<svg xmlns="http://www.w3.org/2000/svg" viewBox="0 0 500 500"><g id="freepik--background-complete--inject-381"><rect x="416.78" y="398.49" width="33.12" height="0.25" style="fill:#ebebeb"></rect><rect x="322.53" y="401.21" width="8.69" height="0.25" style="fill:#ebebeb"></rect><rect x="396.59" y="389.21" width="19.19" height="0.25" style="fill:#ebebeb"></rect><rect x="52.46" y="390.89" width="43.19" height="0.25" style="fill:#ebebeb"></rect><rect x="104.56" y="390.89" width="6.33" height="0.25" style="fill:#ebebeb"></rect><rect x="131.47" y="395.11" width="93.68" height="0.25" style="fill:#ebebeb"></rect><path d="M237,337.8H43.92a5.71,5.71,0,0,1-5.71-5.71V60.66A5.71,5.71,0,0,1,43.92,55H237a5.71,5.71,0,0,1,5.71,5.71V332.09A5.71,5.71,0,0,1,237,337.8ZM43.92,55.2a5.47,5.47,0,0,0-5.46,5.46V332.09a5.47,5.47,0,0,0,5.46,5.46H237a5.47,5.47,0,0,0,5.46-5.46V60.66A5.47,5.47,0,0,0,237,55.2Z" style="fill:#ebebeb"></path><path d="M453.31,337.8H260.21a5.72,5.72,0,0,1-5.71-5.71V60.66A5.72,5.72,0,0,1,260.21,55h193.1A5.71,5.71,0,0,1,459,60.66V332.09A5.71,5.71,0,0,1,453.31,337.8ZM260.21,55.2a5.47,5.47,0,0,0-5.46,5.46V332.09a5.47,5.47,0,0,0,5.46,5.46h193.1a5.47,5.47,0,0,0,5.46-5.46V60.66a5.47,5.47,0,0,0-5.46-5.46Z" style="fill:#ebebeb"></path><rect y="382.4" width="500" height="0.25" style="fill:#ebebeb"></rect><path d="M453.32,382.49S372,154,309.53,154.3c-61.4.31-139.61,225.19-139.61,225.19Z" style="fill:#f5f5f5"></path><path d="M44,382.49s58.74-165.11,103.9-164.88c44.36.22,100.87,162.71,100.87,162.71Z" style="fill:#ebebeb"></path><path d="M53.17,319.63c11.69,10.07,29.46,7.25,41.9.58.62-.34.07-1.29-.56-.95-12,6.41-29.28,9.31-40.57-.41-.53-.46-1.31.31-.77.78Z" style="fill:#e0e0e0"></path><path d="M95.27,317.29h.39A1.35,1.35,0,0,1,97,318.64v63.22a0,0,0,0,1,0,0H93.92a0,0,0,0,1,0,0V318.64A1.35,1.35,0,0,1,95.27,317.29Z" style="fill:#e0e0e0"></path><path d="M101.09,382.49H89.84a.67.67,0,0,1-.67-.68h0a.67.67,0,0,1,.67-.67h11.25a.67.67,0,0,1,.67.67h0A.67.67,0,0,1,101.09,382.49Z" style="fill:#e0e0e0"></path><path d="M53.36,317.29h.39a1.35,1.35,0,0,1,1.35,1.35v63.22a0,0,0,0,1,0,0H52a0,0,0,0,1,0,0V318.64A1.35,1.35,0,0,1,53.36,317.29Z" style="fill:#e0e0e0"></path><path d="M59.18,382.49H47.93a.67.67,0,0,1-.67-.68h0a.67.67,0,0,1,.67-.67H59.18a.67.67,0,0,1,.67.67h0A.67.67,0,0,1,59.18,382.49Z" style="fill:#e0e0e0"></path><path d="M96.09,319.71c6.24,3.92,14,6,21.13,7.33,18.21,3.31,36.76.21,53.75-6.78.64-.26.36-1.33-.29-1.06-17,7-35.71,10.14-54,6.63-6.81-1.3-14.13-3.34-20.08-7.07-.6-.37-1.15.58-.55.95Z" style="fill:#e0e0e0"></path><path d="M170.63,317.29H171a1.35,1.35,0,0,1,1.35,1.35v63.22a0,0,0,0,1,0,0h-3.09a0,0,0,0,1,0,0V318.64A1.35,1.35,0,0,1,170.63,317.29Z" style="fill:#e0e0e0"></path><path d="M176.45,382.49H165.2a.68.68,0,0,1-.68-.68h0a.68.68,0,0,1,.68-.67h11.25a.67.67,0,0,1,.67.67h0A.67.67,0,0,1,176.45,382.49Z" style="fill:#e0e0e0"></path><path d="M213.24,319.63c-11.69,10.07-29.46,7.25-41.9.58-.63-.34-.07-1.29.55-.95,12,6.41,29.29,9.31,40.57-.41.54-.46,1.32.31.78.78Z" style="fill:#e0e0e0"></path><path d="M211.31,317.29h3.09a0,0,0,0,1,0,0v63.22a1.35,1.35,0,0,1-1.35,1.35h-.39a1.35,1.35,0,0,1-1.35-1.35V317.29A0,0,0,0,1,211.31,317.29Z" transform="translate(425.7 699.16) rotate(180)" style="fill:#e0e0e0"></path><path d="M207.23,382.49h11.25a.67.67,0,0,0,.67-.68h0a.67.67,0,0,0-.67-.67H207.23a.68.68,0,0,0-.68.67h0A.68.68,0,0,0,207.23,382.49Z" style="fill:#e0e0e0"></path><path d="M280.89,319.63c11.69,10.07,29.46,7.25,41.9.58.63-.34.07-1.29-.55-.95-12,6.41-29.29,9.31-40.57-.41-.54-.46-1.32.31-.78.78Z" style="fill:#e0e0e0"></path><path d="M323,317.29h.39a1.35,1.35,0,0,1,1.35,1.35v63.22a0,0,0,0,1,0,0h-3.09a0,0,0,0,1,0,0V318.64A1.35,1.35,0,0,1,323,317.29Z" style="fill:#e0e0e0"></path><path d="M328.81,382.49H317.56a.67.67,0,0,1-.67-.68h0a.67.67,0,0,1,.67-.67h11.25a.67.67,0,0,1,.67.67h0A.67.67,0,0,1,328.81,382.49Z" style="fill:#e0e0e0"></path><path d="M281.08,317.29h.39a1.35,1.35,0,0,1,1.35,1.35v63.22a0,0,0,0,1,0,0h-3.09a0,0,0,0,1,0,0V318.64A1.35,1.35,0,0,1,281.08,317.29Z" style="fill:#e0e0e0"></path><path d="M286.9,382.49H275.65a.67.67,0,0,1-.67-.68h0a.67.67,0,0,1,.67-.67H286.9a.68.68,0,0,1,.68.67h0A.68.68,0,0,1,286.9,382.49Z" style="fill:#e0e0e0"></path><path d="M323.81,319.71c6.25,3.92,14,6,21.14,7.33,18.2,3.31,36.75.21,53.74-6.78.65-.26.36-1.33-.29-1.06-17,7-35.71,10.14-53.95,6.63-6.82-1.3-14.14-3.34-20.08-7.07a.55.55,0,0,0-.56.95Z" style="fill:#e0e0e0"></path><path d="M398.35,317.29h.39a1.35,1.35,0,0,1,1.35,1.35v63.22a0,0,0,0,1,0,0H397a0,0,0,0,1,0,0V318.64a1.35,1.35,0,0,1,1.35-1.35Z" style="fill:#e0e0e0"></path><path d="M404.17,382.49H392.92a.67.67,0,0,1-.67-.68h0a.67.67,0,0,1,.67-.67h11.25a.67.67,0,0,1,.67.67h0A.67.67,0,0,1,404.17,382.49Z" style="fill:#e0e0e0"></path><path d="M441,319.63c-11.69,10.07-29.46,7.25-41.9.58-.63-.34-.07-1.29.55-.95,12,6.41,29.29,9.31,40.57-.41.54-.46,1.32.31.78.78Z" style="fill:#e0e0e0"></path><path d="M439,317.29h3.09a0,0,0,0,1,0,0v63.22a1.35,1.35,0,0,1-1.35,1.35h-.39a1.35,1.35,0,0,1-1.35-1.35V317.29A0,0,0,0,1,439,317.29Z" transform="translate(881.15 699.16) rotate(180)" style="fill:#e0e0e0"></path><path d="M435,382.49H446.2a.67.67,0,0,0,.67-.68h0a.67.67,0,0,0-.67-.67H435a.67.67,0,0,0-.67.67h0A.67.67,0,0,0,435,382.49Z" style="fill:#e0e0e0"></path><path d="M334.31,137.62c8.11,6.48,24.5,3,40.67,2.27,18.8-.86,37.31,0,42.18-5.55,9.06-10.42-15.1-13.16-15.1-13.16s2.16-12.05-6.48-9.31c0,0,.44-11.51-11.65-12.06s-14.24,13.7-14.24,13.7-12.51-2.57-8.63,6.39c0,0-19,.74-15.53,7.31S326.28,131.22,334.31,137.62Z" style="fill:#f5f5f5"></path><path d="M292.61,115.79c5,4,15.22,1.86,25.26,1.41,11.67-.54,23.16,0,26.19-3.45,5.63-6.47-9.38-8.17-9.38-8.17s1.34-7.48-4-5.78c0,0,.27-7.15-7.23-7.49s-8.85,8.51-8.85,8.51-7.77-1.6-5.36,4c0,0-11.79.46-9.64,4.54S287.63,111.82,292.61,115.79Z" style="fill:#f5f5f5"></path><path d="M89.19,121.48c6.72,5.37,20.3,2.49,33.7,1.88,15.58-.71,30.91,0,34.94-4.6,7.51-8.63-12.51-10.9-12.51-10.9s1.79-10-5.36-7.72c0,0,.35-9.53-9.66-10s-11.79,11.35-11.79,11.35-10.37-2.13-7.16,5.29c0,0-15.73.61-12.87,6.06S82.54,116.18,89.19,121.48Z" style="fill:#ebebeb"></path><path d="M133.56,133.06c5.93,4.73,17.92,2.2,29.75,1.65,13.74-.62,27.28,0,30.84-4.06C200.77,123,183.1,121,183.1,121s1.58-8.82-4.73-6.81c0,0,.32-8.42-8.52-8.82s-10.41,10-10.41,10-9.16-1.88-6.32,4.67c0,0-13.88.54-11.36,5.35S127.69,128.38,133.56,133.06Z" style="fill:#f5f5f5"></path></g><g id="freepik--Shadow--inject-381"><ellipse id="freepik--path--inject-381" cx="245.18" cy="412.39" rx="193.89" ry="11.32" style="fill:#f5f5f5"></ellipse></g><g id="freepik--Table--inject-381"><polygon points="312.9 411.01 308.82 411.01 307.04 300.31 314.69 300.31 312.9 411.01" style="fill:#10B981"></polygon><g style="opacity:0.30000000000000004"><polygon points="312.9 411.01 308.82 411.01 307.04 300.31 314.69 300.31 312.9 411.01" style="fill:#fff"></polygon></g><polygon points="357.9 411.01 353.83 411.01 352.04 300.31 359.69 300.31 357.9 411.01" style="fill:#10B981"></polygon><polygon points="357.9 411.01 353.83 411.01 352.04 300.31 359.69 300.31 357.9 411.01" style="fill:#fff;opacity:0.5"></polygon><rect x="310.86" y="298.51" width="76.93" height="8.44" style="fill:#10B981"></rect><rect x="310.86" y="298.51" width="76.93" height="8.44" style="fill:#fff;opacity:0.2"></rect><polygon points="434.84 410.41 430.76 410.41 428.97 299.71 436.62 299.71 434.84 410.41" style="fill:#10B981"></polygon><g style="opacity:0.5"><polygon points="434.84 410.41 430.76 410.41 428.97 299.71 436.62 299.71 434.84 410.41" style="fill:#fff"></polygon></g><rect x="387.8" y="298.51" width="45.12" height="8.44" style="fill:#10B981"></rect><rect x="387.8" y="298.51" width="45.12" height="8.44" style="fill:#fff;opacity:0.30000000000000004"></rect><rect x="376.71" y="293.08" width="64.58" height="7.23" rx="2.65" style="fill:#263238"></rect><rect x="376.71" y="293.08" width="64.58" height="7.23" rx="2.65" style="fill:#fff;opacity:0.6000000000000001"></rect><rect x="300.7" y="293.08" width="86.06" height="7.23" rx="2.65" style="fill:#263238"></rect><rect x="300.7" y="293.08" width="86.06" height="7.23" rx="2.65" style="fill:#fff;opacity:0.5"></rect><polygon points="389.84 410.61 385.76 410.61 383.97 299.91 391.62 299.91 389.84 410.61" style="fill:#10B981"></polygon><g style="opacity:0.30000000000000004"><polygon points="389.84 410.61 385.76 410.61 383.97 299.91 391.62 299.91 389.84 410.61" style="fill:#fff"></polygon></g><path d="M328.64,260.16c-.2-1-.83-2.43-3.76-1.71s-11.69.89-13.43-1.15-3.26-3.35-4.16-2.22.45,5.44,2.87,6.77S330.44,269.16,328.64,260.16Z" style="fill:#10B981"></path><path d="M328.64,260.16c-.2-1-.83-2.43-3.76-1.71s-11.69.89-13.43-1.15-3.26-3.35-4.16-2.22.45,5.44,2.87,6.77S330.44,269.16,328.64,260.16Z" style="fill:#fff;opacity:0.4"></path><path d="M356.36,268.37c2.43.13,10.23.87,6.63,7.12s-.27,14.26-7.08,12.14-7.64-6.66-13.84-8.14-17.74-1.15-16.07-5.59,2.82-5.28,3.32-8.89,1.81-9.33,8-4.35S348,267.92,356.36,268.37Z" style="fill:#10B981"></path><path d="M356.36,268.37c2.43.13,10.23.87,6.63,7.12s-.27,14.26-7.08,12.14-7.64-6.66-13.84-8.14-17.74-1.15-16.07-5.59,2.82-5.28,3.32-8.89,1.81-9.33,8-4.35S348,267.92,356.36,268.37Z" style="fill:#fff;opacity:0.6000000000000001"></path><path d="M327.36,264.08c-.2-1-.83-2.44-3.76-1.72s-11.71.9-13.45-1.14-3.26-3.36-4.17-2.23.45,5.45,2.88,6.78S329.17,273.1,327.36,264.08Z" style="fill:#10B981"></path><path d="M327.36,264.08c-.2-1-.83-2.44-3.76-1.72s-11.71.9-13.45-1.14-3.26-3.36-4.17-2.23.45,5.45,2.88,6.78S329.17,273.1,327.36,264.08Z" style="fill:#fff;opacity:0.5"></path><path d="M325.85,268.88c-.21-1-.84-2.43-3.77-1.71s-11.71.89-13.45-1.15-3.26-3.35-4.17-2.23.46,5.46,2.88,6.79S327.65,277.9,325.85,268.88Z" style="fill:#10B981"></path><path d="M325.85,268.88c-.21-1-.84-2.43-3.77-1.71s-11.71.89-13.45-1.15-3.26-3.35-4.17-2.23.46,5.46,2.88,6.79S327.65,277.9,325.85,268.88Z" style="fill:#fff;opacity:0.7000000000000001"></path><path d="M428.76,270.62c-3.71.29-8.39-.85-14.53,1.82s-27.77,4.1-35.52,1.46-14.53-3.53-14.86,3.88c-.08,1.94.73,2.15.65,5.39-.1,4.7-2.2,8,1.62,9.11,5.16,1.52,12.91-2.93,22.6-3.22s20.34-3,27.12-.6,16.8,5.34,19.06-.59-1.62-5.93,0-9.2S435.1,270.14,428.76,270.62Z" style="fill:#10B981"></path><path d="M428.76,270.62c-3.71.29-8.39-.85-14.53,1.82s-27.77,4.1-35.52,1.46-14.53-3.53-14.86,3.88c-.08,1.94.73,2.15.65,5.39-.1,4.7-2.2,8,1.62,9.11,5.16,1.52,12.91-2.93,22.6-3.22s20.34-3,27.12-.6,16.8,5.34,19.06-.59-1.62-5.93,0-9.2S435.1,270.14,428.76,270.62Z" style="fill:#fff;opacity:0.6000000000000001"></path><path d="M356.36,268.37s-3.19,24.71,1.81,24.71,23-.55,22.66,12.45,16.34,0,25.67,4.15,20.51,5.75,19.42-9.37-3.91-21.7,0-30.91c0,0-8.75-.43-20.42,3.52S359.89,263.54,356.36,268.37Z" style="fill:#263238"></path><path d="M356.36,268.37s-3.19,24.71,1.81,24.71,23-.55,22.66,12.45,16.34,0,25.67,4.15,20.51,5.75,19.42-9.37-3.91-21.7,0-30.91c0,0-8.75-.43-20.42,3.52S359.89,263.54,356.36,268.37Z" style="fill:#fff;opacity:0.7000000000000001"></path><path d="M379.36,293.08l-.65-19.18S368.71,289.3,379.36,293.08Z" style="opacity:0.1"></path><path d="M402.5,281.59S400.25,305,409,306.94,404.25,301.57,402.5,281.59Z" style="opacity:0.1"></path><path d="M370.64,283.57a6.9,6.9,0,1,0-3.94,8.92A6.89,6.89,0,0,0,370.64,283.57ZM359.1,288a5.48,5.48,0,1,1,7.09,3.13A5.49,5.49,0,0,1,359.1,288Z" style="fill:#263238"></path><path d="M356.91,290.21a.73.73,0,0,0,.4-.61.75.75,0,0,0,.72.18c.41-.16.54-.8.29-1.44s-.77-1-1.18-.86a.64.64,0,0,1-1.12.43.85.85,0,0,0-.42.83,5.79,5.79,0,0,0-2.54.48,5.45,5.45,0,0,0-2.32,1.5.86.86,0,0,0-.93-.4.64.64,0,0,1-1.12.43c-.41.16-.54.8-.29,1.43s.77,1,1.18.87a.74.74,0,0,0,.41-.62.71.71,0,0,0,.71.18.83.83,0,0,0,.41-.92,5.57,5.57,0,0,0,2.73-.45,6,6,0,0,0,2.2-1.36A.83.83,0,0,0,356.91,290.21Z" style="fill:#263238"></path><g style="opacity:0.2"><path d="M370.64,283.57a6.9,6.9,0,1,0-3.94,8.92A6.89,6.89,0,0,0,370.64,283.57ZM359.1,288a5.48,5.48,0,1,1,7.09,3.13A5.49,5.49,0,0,1,359.1,288Z" style="fill:#fff"></path><path d="M356.91,290.21a.73.73,0,0,0,.4-.61.75.75,0,0,0,.72.18c.41-.16.54-.8.29-1.44s-.77-1-1.18-.86a.64.64,0,0,1-1.12.43.85.85,0,0,0-.42.83,5.79,5.79,0,0,0-2.54.48,5.45,5.45,0,0,0-2.32,1.5.86.86,0,0,0-.93-.4.64.64,0,0,1-1.12.43c-.41.16-.54.8-.29,1.43s.77,1,1.18.87a.74.74,0,0,0,.41-.62.71.71,0,0,0,.71.18.83.83,0,0,0,.41-.92,5.57,5.57,0,0,0,2.73-.45,6,6,0,0,0,2.2-1.36A.83.83,0,0,0,356.91,290.21Z" style="fill:#fff"></path></g><path d="M497.6,360.71s0-5,0-5,0,5,0,5Z" style="fill:#263238"></path></g><g id="freepik--Shovel--inject-381"><g id="freepik--shovel--inject-381"><path d="M391.23,381.06l2.27,10.7c.65,3.1.9,5,.25,7.34s-5.32,8.56-7.79,9.08a6.11,6.11,0,0,1-2.85-.41,24.41,24.41,0,0,1-3.34-1.46c-.6-.32-1.18-.66-1.72-1a10.22,10.22,0,0,1-5.45-8.14c-.09-.35-.17-.72-.25-1.11l-2.24-10.52a1.18,1.18,0,0,1,.88-1.38l9.38-2.25,2.43-.46,7.07-1.31A1.18,1.18,0,0,1,391.23,381.06Z" style="fill:#263238"></path><path d="M391.23,381.06l2.27,10.7c.65,3.1.9,5,.25,7.34s-5.32,8.56-7.79,9.08a6.11,6.11,0,0,1-2.85-.41,24.41,24.41,0,0,1-3.34-1.46c-.6-.32-1.18-.66-1.72-1a10.22,10.22,0,0,1-5.45-8.14c-.09-.35-.17-.72-.25-1.11l-2.24-10.52a1.18,1.18,0,0,1,.88-1.38l9.38-2.25,2.43-.46,7.07-1.31A1.18,1.18,0,0,1,391.23,381.06Z" style="fill:#fff;opacity:0.2"></path><path d="M380.38,381.91h0L371,384.17a1.18,1.18,0,0,0-.88,1.38l2.24,10.52c.08.39.16.76.25,1.11a10.22,10.22,0,0,0,5.45,8.14c.54.33,1.12.67,1.72,1a24.41,24.41,0,0,0,3.34,1.46,6.11,6.11,0,0,0,2.85.41h0Z" style="opacity:0.2"></path><path d="M365.85,312.27l-.53.11a26.23,26.23,0,0,0-4.61,1.44l.36,1.69a26.75,26.75,0,0,0,4.79-.56l.54-.12A26.46,26.46,0,0,0,371,313.4l-.36-1.69A25.88,25.88,0,0,0,365.85,312.27Z" style="fill:#10B981"></path><polygon points="380.42 370.23 375.58 371.26 367.15 326.58 369.95 325.99 380.42 370.23" style="fill:#10B981"></polygon><path d="M371.85,311.49a11.5,11.5,0,0,1-.68,7.26,25.28,25.28,0,0,0-1.3,3.33c-.24.9.35,3.56.54,4.7a8.41,8.41,0,0,0-2.3.34,6.34,6.34,0,0,0-.61.19,2.12,2.12,0,0,0-.44.19c-.29-1.12-.83-3.8-1.42-4.52a26.62,26.62,0,0,0-2.55-2.51,11.6,11.6,0,0,1-3.57-6.36,2.38,2.38,0,0,1,.22-.18,1.65,1.65,0,0,1,.27-.19,2.1,2.1,0,0,1,.46-.22h.06c.12,0,.22,0,.26.06.29.5,1.29,4.29,3.86,6.58,1.5,1.34,2.44,1.9,3,1.78s1.17-1,2-2.83c1.42-3.14.78-7,.84-7.59C370.51,311.18,371.5,311.36,371.85,311.49Z" style="fill:#263238"></path><path d="M383.36,381.34c.07.78.54,4.24.93,8.54s-1.06,5.46-1.06,5.46-1.78-.5-3.17-4.57-2.39-7.42-2.65-8.17c.24-.2.75-.75,0-4.16-.5-2.38-1.95-7.16-1.95-7.16a6.93,6.93,0,0,1,.83-.34c.27-.1.6-.21,1-.32l.67-.16a12.21,12.21,0,0,1,2.6-.25s.62,5,1.12,7.33C382.39,381,383.07,381.25,383.36,381.34Z" style="fill:#263238"></path></g></g><g id="freepik--Rock--inject-381"><polygon points="364.38 412.22 370.23 399.39 386.71 397.94 400.51 381.31 422.05 384.48 424.74 400.23 433.28 403.53 437.88 411.32 364.38 412.22" style="fill:#263238"></polygon><polygon points="364.38 412.22 370.23 399.39 386.71 397.94 400.51 381.31 422.05 384.48 424.74 400.23 433.28 403.53 437.88 411.32 364.38 412.22" style="fill:#fff;opacity:0.6000000000000001"></polygon><polygon points="398.55 405.11 381.56 405.77 378.96 412.04 413.91 411.61 414.64 404.63 424.74 400.22 422.05 384.48 410.87 390.6 398.55 405.11" style="opacity:0.2"></polygon><g style="opacity:0.30000000000000004"><polygon points="401.92 411.76 413.91 411.61 401.92 411.76 401.92 411.76"></polygon><polygon points="433.28 403.53 424.74 400.22 414.64 404.63 413.91 411.61 437.88 411.32 433.28 403.53"></polygon></g><polygon points="360.21 412.1 378.66 412.1 383.43 395.93 364.66 387.11 355.44 403.19 360.21 412.1" style="fill:#263238"></polygon><polygon points="360.21 412.1 378.66 412.1 383.43 395.93 364.66 387.11 355.44 403.19 360.21 412.1" style="fill:#fff;opacity:0.5"></polygon><polygon points="366.73 398.53 377.7 400.85 383.43 395.93 364.66 387.11 366.73 398.53" style="fill:#fff;opacity:0.30000000000000004"></polygon><polygon points="366.73 398.53 360.21 412.1 378.66 412.1 377.7 400.85 366.73 398.53" style="opacity:0.30000000000000004"></polygon></g><g id="freepik--character-2--inject-381"><path d="M201.44,346.44c-.93.54-3.88,3-6.82,5.5s-1.67,3.15.72,4.36,4.57,2.9,6.58,1.83,4.06-5.78,4.27-7.86S201.44,346.44,201.44,346.44Z" style="fill:#e4897b"></path><path d="M232.45,304.05c-.86,8.16-2.2,18.46-3.82,21.86-2.82,5.93-27.57,20.75-27.57,20.75l4.75,3.86s30.36-14.34,31.89-17.18c.86-1.58,3.73-14.83,6-23.25Z" style="fill:#e4897b"></path><path d="M230.42,297.57s-1.33,2.73-1.8,11.82-1,17.74-3.63,21.51a19.19,19.19,0,0,1,10.3,5.24,45.7,45.7,0,0,0,2.82-3.85c3.41-6.08,7.37-28.16,7.37-28.16S240,292.24,230.42,297.57Z" style="fill:#10B981"></path><path d="M230.42,297.57s-1.33,2.73-1.8,11.82-1,17.74-3.63,21.51a19.19,19.19,0,0,1,10.3,5.24,45.7,45.7,0,0,0,2.82-3.85c3.41-6.08,7.37-28.16,7.37-28.16S240,292.24,230.42,297.57Z" style="fill:#fff;opacity:0.5"></path><path d="M223.5,331.92s6.93,1.15,10.83,6c0,0,1.58,0,2.89-2.44,0,0,2.3-.41,2.54-4.05,0,0-4.57-5-13.93-4.62a2,2,0,0,0-.84,2.14S222.58,329.91,223.5,331.92Z" style="fill:#10B981"></path><path d="M223.5,331.92s6.93,1.15,10.83,6c0,0,1.58,0,2.89-2.44,0,0,2.3-.41,2.54-4.05,0,0-4.57-5-13.93-4.62a2,2,0,0,0-.84,2.14S222.58,329.91,223.5,331.92Z" style="fill:#fff;opacity:0.7000000000000001"></path><path d="M275.49,279.65a119.64,119.64,0,0,1,34.16,53.67l-21.89,5.22a30.31,30.31,0,0,1-18.55-1.43l-1.82-.74s-2.41-15-37.14-38.28a44.27,44.27,0,0,1,29.9-22.51A17.42,17.42,0,0,1,275.49,279.65Z" style="fill:#10B981"></path><path d="M240.18,286.47c1.8-2.77,2.27-2.9,1.29-4.69-.65-1.08-2.5-2-3.52-2.76a18.65,18.65,0,0,0-1.7-1.21l1.45-14.52c3,4.68,11.8,16.93,18.83,13.55l.57,3.73-1.34,6.71-2.83,8.83-8.13-2.71-3.08-2.91-1.29-2.67Z" style="fill:#e4897b"></path><polygon points="323.27 393.49 323.81 400.88 306.73 402.72 306.2 395.31 323.27 393.49" style="fill:#e4897b"></polygon><path d="M322.25,401.81l-4.86-7.62a.65.65,0,0,1,.08-.8l4.77-4.78a1.1,1.1,0,0,1,1.55,0,2.12,2.12,0,0,1,.11.21c1.53,2.48,2.51,4.34,4.49,7.44,1.21,1.9,5.07,7.52,6.74,10.12s-.7,4.62-1.62,3.7c-4.12-4.14-7.88-6.83-10.25-7.49A1.8,1.8,0,0,1,322.25,401.81Z" style="fill:#263238"></path><path d="M324.66,403.18a2.16,2.16,0,0,1,.45,1.4,1,1,0,0,1-.59.82.55.55,0,0,1-.58,0c-.8-.46-.85-3.27-.84-3.58a.15.15,0,0,1,.1-.17.17.17,0,0,1,.19,0A9,9,0,0,1,324.66,403.18Zm-.69,1.75a.37.37,0,0,0,.16.17s.11,0,.23,0a.73.73,0,0,0,.41-.55,3.57,3.57,0,0,0-1.32-2.29A7.43,7.43,0,0,0,324,404.93Z" style="fill:#10B981"></path><path d="M323.42,401.73l0,.08c.06.86-.51,3-1.26,3.28a.59.59,0,0,1-.69-.23.92.92,0,0,1-.2-.75c.12-1.1,1.81-2.4,1.9-2.46a.21.21,0,0,1,.17,0A.13.13,0,0,1,323.42,401.73Zm-1.73,2.87,0,.08a.22.22,0,0,0,.29.12,4.28,4.28,0,0,0,1.06-2.59,4.17,4.17,0,0,0-1.48,2A.58.58,0,0,0,321.69,404.6Z" style="fill:#10B981"></path><polygon points="306.21 395.31 306.74 402.72 315.55 401.76 315.01 394.37 306.21 395.31" style="isolation:isolate;opacity:0.2"></polygon><path d="M266.46,347.76c-2.8,3.94-21,49.57-5,61.48,11.81,8.74,51.21-4.44,51.21-4.44l-.57-12.29s-31.65,4.16-35.35.79,17.69-33.72,18.77-41.72S266.46,347.76,266.46,347.76Z" style="fill:#263238"></path><path d="M266.46,347.76c-2.8,3.94-21,49.57-5,61.48,11.81,8.74,51.21-4.44,51.21-4.44l-.57-12.29s-31.65,4.16-35.35.79,17.69-33.72,18.77-41.72S266.46,347.76,266.46,347.76Z" style="opacity:0.2"></path><polygon points="310.46 391.52 311.12 406.35 314.85 405.49 313.51 390.81 310.46 391.52" style="fill:#10B981"></polygon><path d="M307,323.52s10.28,21.37,2.25,29l-31.06,4.21-11.95-8.14a37.92,37.92,0,0,1,1.14-12.2C268,334.29,283.83,337.55,307,323.52Z" style="fill:#263238"></path><polygon points="344.4 392.57 344.99 400.67 326.28 402.68 325.69 394.57 344.4 392.57" style="fill:#e4897b"></polygon><path d="M343.28,401.69,338,393.34a.69.69,0,0,1,.09-.87l5.23-5.25a1.2,1.2,0,0,1,1.69,0,1.08,1.08,0,0,1,.12.24c1.68,2.71,2.75,4.75,4.92,8.15,1.33,2.08,5.56,8.23,7.39,11.09s-.76,5.06-1.78,4.06c-4.51-4.55-8.64-7.49-11.23-8.22A1.9,1.9,0,0,1,343.28,401.69Z" style="fill:#263238"></path><path d="M345.93,403.19a2.37,2.37,0,0,1,.49,1.54,1.11,1.11,0,0,1-.65.9.6.6,0,0,1-.63,0c-.88-.5-.93-3.58-.92-3.92a.15.15,0,0,1,.1-.18.2.2,0,0,1,.21,0A9.88,9.88,0,0,1,345.93,403.19Zm-.76,1.92a.37.37,0,0,0,.17.18s.12.06.26,0a.75.75,0,0,0,.44-.59,3.87,3.87,0,0,0-1.44-2.52A8,8,0,0,0,345.17,405.11Z" style="fill:#10B981"></path><path d="M344.57,401.6l0,.09c.07.94-.56,3.27-1.38,3.59a.64.64,0,0,1-.76-.25,1,1,0,0,1-.22-.82c.13-1.2,2-2.63,2.09-2.7a.21.21,0,0,1,.19,0A.12.12,0,0,1,344.57,401.6Zm-1.9,3.14.05.09c.11.22.26.15.31.13.48-.24,1.09-1.79,1.17-2.84a4.64,4.64,0,0,0-1.63,2.18A.67.67,0,0,0,342.67,404.74Z" style="fill:#10B981"></path><polygon points="325.7 394.57 326.29 402.68 335.94 401.64 335.35 393.53 325.7 394.57" style="isolation:isolate;opacity:0.2"></polygon><path d="M281.5,342c-2.93,4.12-19.27,54.36-2.52,66.8,12.34,9.13,53.5-4.64,53.5-4.64l-.59-12.83s-33.07,4.33-36.93.82,15.81-37.8,16.93-46.16S281.5,342,281.5,342Z" style="fill:#263238"></path><polygon points="330.15 390.24 330.84 405.74 334.74 404.84 333.33 389.5 330.15 390.24" style="fill:#10B981"></polygon><path d="M257.54,276.23c-.49.13-1,.28-1.51.45,1.67,3.76-3.47,18-3.47,18-10.88-2.32-12.15-7-11.94-9.51-.46.39-.91.79-1.36,1.21l.6,7.14,3.28-.58-1.71,2.67,12.11,2.24,6.9-12.11-3.52-1.3,4.07-1.7Z" style="fill:#10B981"></path><path d="M257.54,276.23c-.49.13-1,.28-1.51.45,1.67,3.76-3.47,18-3.47,18-10.88-2.32-12.15-7-11.94-9.51-.46.39-.91.79-1.36,1.21l.6,7.14,3.28-.58-1.71,2.67,12.11,2.24,6.9-12.11-3.52-1.3,4.07-1.7Z" style="fill:#fff;opacity:0.5"></path><path d="M238.42,279.34a11.25,11.25,0,0,1,3,2.34c1.4-2.51,2.72-7.05-1.26-11.24Z" style="opacity:0.2"></path><path d="M214,268.16s4.41,7.27,11.09,6.82-5.47-15-5.47-15Z" style="fill:#263238"></path><path d="M242.39,271.16a9.28,9.28,0,0,1-5.89,9.54,10.26,10.26,0,0,1-7.59.07,9,9,0,0,1-1-.43c-6-3.09-13.67-10.95-11.21-18.3a10,10,0,0,1,12.59-6.44l.06,0a10.1,10.1,0,0,1,4,2.43C238.64,263.15,242,265.9,242.39,271.16Z" style="fill:#e4897b"></path><path d="M227.65,267.87a.92.92,0,0,1,.35,1.24c-.25.29-.82.21-1.28-.17s-.61-.95-.36-1.24S227.19,267.48,227.65,267.87Z" style="fill:#263238"></path><path d="M223.26,273a.93.93,0,0,1,.35,1.24c-.25.29-.82.21-1.28-.17s-.61-.95-.36-1.24S222.83,272.63,223.26,273Z" style="fill:#263238"></path><path d="M224.88,271.56a21.57,21.57,0,0,1,2,5.49,3.47,3.47,0,0,0,2.26-1.87Z" style="fill:#de5753"></path><path d="M227.35,264.85a.37.37,0,0,1-.33.17,2.85,2.85,0,0,0-2.35.94.34.34,0,0,1-.49.07.35.35,0,0,1-.07-.48h0a3.51,3.51,0,0,1,2.95-1.23.35.35,0,0,1,.34.36h0A.48.48,0,0,1,227.35,264.85Z" style="fill:#263238"></path><path d="M232.16,276.49h0a5.35,5.35,0,0,0,1.83-4.61.18.18,0,0,0-.21-.16.17.17,0,0,0-.15.2h0a5.15,5.15,0,0,1-1.74,4.28.18.18,0,0,0,0,.25h0a.18.18,0,0,0,.25,0Z" style="fill:#263238"></path><path d="M219.59,273.69a.31.31,0,0,1-.12.16.32.32,0,0,1-.44-.15v0h0a3.45,3.45,0,0,1,.14-3.23.35.35,0,0,1,.48-.1h0a.35.35,0,0,1,.1.48h0a2.84,2.84,0,0,0-.08,2.54A.34.34,0,0,1,219.59,273.69Z" style="fill:#263238"></path><path d="M238.67,260.26c-3.56-5.62-7.35-9.32-9.89-9.55s-5.31,9.21-5.31,9.21a2.6,2.6,0,0,1,4.58,0c1.26,2.63,5.39,4.39,8,4,0,0-.8-.86.08-1.39s5.16,3.87,6,7.29C242.09,269.85,242.17,265.9,238.67,260.26Z" style="fill:#263238"></path><path d="M240,259.55a7,7,0,0,1,.07,5.33c-.92,2.27-3.31,1.91-4.67,0-1.21-1.69-2.23-4.91-.51-6.58S239.06,257.48,240,259.55Z" style="fill:#e4897b"></path><path d="M228.48,252s-3.29-3.25-10.93,1.22-6.4,14.8-3.19,15.91S221.1,261,221.1,261s-.82,4.84-2.4,6.58C218.7,267.56,225.41,263.69,228.48,252Z" style="fill:#263238"></path><path d="M210.8,262.28s-4.37-9.87,5.7-15.53,16.74,3.73,16.74,3.73l-1.54,5.43-16.85,9Z" style="fill:#10B981"></path><path d="M210.8,262.28s-4.37-9.87,5.7-15.53,16.74,3.73,16.74,3.73l-1.54,5.43-16.85,9Z" style="fill:#fff;opacity:0.5"></path><path d="M234.32,288.78a1.7,1.7,0,0,1-.59-.1c-2.33-.8-2.4-6.59-2.4-7.25h1c0,2.37.54,5.9,1.73,6.31.64.22,1.63-.48,2.81-2,6.48-8.27-6.89-27.83-7-28l.82-.57c.58.83,13.93,20.37,7,29.22C236.39,288,235.29,288.78,234.32,288.78Z" style="fill:#10B981"></path><path d="M204.34,272.64s14.57-4.46,40.5-21.73l-11.6-.43s-10.63,8.18-22.44,11.8Z" style="fill:#10B981"></path><path d="M204.34,272.64s14.57-4.46,40.5-21.73l-11.6-.43s-10.63,8.18-22.44,11.8Z" style="fill:#fff;opacity:0.30000000000000004"></path><path d="M239.43,363.23s-.82,6.55-3.09,7.07c0,0,1.76,1,3-1.8a2.47,2.47,0,0,1-.89,2.59l4.62.85c2.09.38,2.54-2.7,2.54-2.7s.47,2.2-.45,3.08c0,0,1.67-.06,1.32-7.8l-1.91-2.11-1.76-.32-1.08-.2Z" style="fill:#263238"></path><path d="M245.84,361.36c-.11-.69-.33-2.77-.33-2.77a31.11,31.11,0,0,0,1.36-5.11c.87-4.73.7-8.72-.38-8.92s-2.66,3.47-3.53,8.2a31.06,31.06,0,0,0-.55,5.26s-.94,1.86-1.29,2.47-1.69,2.74-1.69,2.74l7,1.29S246,362.15,245.84,361.36Z" style="fill:#10B981"></path><path d="M239.43,363.23l7,1.29-.37-1.83-5.66-1Z" style="fill:#263238"></path><path d="M239.43,363.23l7,1.29-.37-1.83-5.66-1Z" style="fill:#fff;opacity:0.5"></path><path d="M245.76,368.27c-.69-.13-1.29,1.23-1.29,1.23s-.2-1.15-1.11-1.32-1.84.78-1.84.78,0-1.82-1.26-2.43a1.55,1.55,0,0,0-1.66.47c-.49,1.56-1.22,3.06-2.26,3.3,0,0,1.76,1,3-1.8a2.47,2.47,0,0,1-.89,2.59l4.61.85c2.1.38,2.55-2.7,2.55-2.7s.47,2.2-.45,3.08c0,0,1,0,1.27-3.44A1.37,1.37,0,0,0,245.76,368.27Z" style="fill:#fff;opacity:0.5"></path><path d="M266,293.2s2.36,26.42-.57,33.9c-2.58,6.56-14.63,19.53-14.63,19.53l3.16,3.62s18.86-13.6,21.78-20.51c3.55-8.32,3-33.49,3-33.49Z" style="fill:#e4897b"></path><path d="M267.06,274.9c-10.27.07-2,16.81-1.05,30.92a68.08,68.08,0,0,1-.87,16.7L277.88,325S286.51,274.78,267.06,274.9Z" style="fill:#10B981"></path><path d="M267.06,274.9c-10.27.07-2,16.81-1.05,30.92a68.08,68.08,0,0,1-.87,16.7L277.88,325S286.51,274.78,267.06,274.9Z" style="fill:#fff;opacity:0.5"></path><path d="M264.42,320.24a85.46,85.46,0,0,0,15.21,3.43s.1,3.29-2.32,4.48a4.39,4.39,0,0,1-2.71,4.23s-4.53.19-12.63-4.71c0,0-.09-2.57,2.12-3C264.09,324.67,262.36,323.07,264.42,320.24Z" style="fill:#10B981"></path><path d="M264.42,320.24a85.46,85.46,0,0,0,15.21,3.43s.1,3.29-2.32,4.48a4.39,4.39,0,0,1-2.71,4.23s-4.53.19-12.63-4.71c0,0-.09-2.57,2.12-3C264.09,324.67,262.36,323.07,264.42,320.24Z" style="fill:#fff;opacity:0.7000000000000001"></path><path d="M267,331a27.33,27.33,0,0,0,4.13-13.25l2.64-1.07,1.89,2.21s.4,6.27-4.43,13.87C271.24,332.77,269.73,333,267,331Z" style="fill:#10B981"></path><path d="M274.8,319.59a1.29,1.29,0,0,1-2.56.31,1.29,1.29,0,1,1,2.56-.31Z" style="fill:#263238"></path><path d="M253.91,350.24c-.87,1.29-2.65,4-3.15,5-.66,1.32-5.9,3.86-7.3,3.13-1.08-.56-3.78-3-3-4.22.46-.67,1.49-4,3.85-5.33,1.67-.94,5.12-1.58,6.13-2a.79.79,0,0,0,.12.15Z" style="fill:#263238"></path><path d="M255.66,350.47a1.09,1.09,0,0,1-1.52,0l-3.53-3.53a.79.79,0,0,1-.12-.15,1.07,1.07,0,0,1,1.64-1.36l3.53,3.53A1.08,1.08,0,0,1,255.66,350.47Z" style="fill:#263238"></path><g style="opacity:0.5"><path d="M253.91,350.24c-.87,1.29-2.65,4-3.15,5-.66,1.32-5.9,3.86-7.3,3.13-1.08-.56-3.78-3-3-4.22.46-.67,1.49-4,3.85-5.33,1.67-.94,5.12-1.58,6.13-2a.79.79,0,0,0,.12.15Z" style="fill:#fff"></path><path d="M255.66,350.47a1.09,1.09,0,0,1-1.52,0l-3.53-3.53a.79.79,0,0,1-.12-.15,1.07,1.07,0,0,1,1.64-1.36l3.53,3.53A1.08,1.08,0,0,1,255.66,350.47Z" style="fill:#fff"></path></g></g><g id="freepik--character-1--inject-381"><path d="M111.63,177.25s22.6,3.05,46.92-13.2l-13.94-3.32-18.23,2.8-7.27,4.93Z" style="fill:#10B981"></path><path d="M152.85,249.64s5.49,42.71,5,69.83c1.9,25.44,3.5,78.83,6.39,84.6-.1,1.3-4.64,1.58-5.85.8,0,0-19-44.1-16.47-85.4-17.46-43.07-16.42-69.83-16.42-69.83Z" style="fill:#ffb573"></path><path d="M148.48,376.49a96,96,0,0,1,12.87-2.25c.75.11.91,3.86.7,4.32,0,0-.1.08-.23.13.28,5.7,1.47,17.36,2.82,25.3,0,0-5.95,1.24-7.42,1-2.05-4.64-6.19-18.83-7.58-24l-.17,0A13.41,13.41,0,0,1,148.48,376.49Z" style="fill:#10B981"></path><path d="M148.48,376.49a96,96,0,0,1,12.87-2.25c.75.11.91,3.86.7,4.32,0,0-.1.08-.23.13.28,5.7,1.47,17.36,2.82,25.3,0,0-5.95,1.24-7.42,1-2.05-4.64-6.19-18.83-7.58-24l-.17,0A13.41,13.41,0,0,1,148.48,376.49Z" style="fill:#fff;opacity:0.5"></path><path d="M175.17,408.72c-5.82,1-6.48.73-9.79,1.18-2.85.39-3.08,1.05-5.92,1.54-1.88.33-3-1.69-2.89-3.36.05-1,.26-2.17.24-3.41a1.3,1.3,0,0,1,1.11-1.32L164,402.3a1.81,1.81,0,0,1,1.37.34,12.83,12.83,0,0,0,9.63,2.69C178.21,405,177.5,408.32,175.17,408.72Z" style="fill:#10B981"></path><path d="M125,249.64s-.72,23.31,11.55,57.66c0,0,5.47,1.27,21.92-2.12,0,0-.93-30.33-5.11-55.54Z" style="fill:#10B981"></path><path d="M125,249.64s-.72,23.31,11.55,57.66c0,0,5.47,1.27,21.92-2.12,0,0-.93-30.33-5.11-55.54Z" style="fill:#fff;opacity:0.5"></path><path d="M135.37,305.51s12.31.54,23.62-2.66l.27,5.14s-15,3.48-22.31,1.91Z" style="fill:#10B981"></path><path d="M135.37,305.51s12.31.54,23.62-2.66l.27,5.14s-15,3.48-22.31,1.91Z" style="fill:#fff;opacity:0.7000000000000001"></path><path d="M145.41,249.64S132.93,297.85,128,321.52c-5.2,24.86-12,66.65-10.6,83.16-1.39.82-4,.92-6.78.05,0,0-11.14-55.5.07-82.11-4.92-58.89,10.66-73,10.66-73Z" style="fill:#ffb573"></path><path d="M106.25,374.55a94.67,94.67,0,0,1,13.06-.17c.73.22.28,4,0,4.38t-.24.09c-.63,5.67-1.32,17.37-1.25,25.42,0,0-6.08.28-7.5-.18-1.27-4.91-3.1-19.58-3.65-24.92l-.16-.05A13.51,13.51,0,0,1,106.25,374.55Z" style="fill:#10B981"></path><path d="M106.25,374.55a94.67,94.67,0,0,1,13.06-.17c.73.22.28,4,0,4.38t-.24.09c-.63,5.67-1.32,17.37-1.25,25.42,0,0-6.08.28-7.5-.18-1.27-4.91-3.1-19.58-3.65-24.92l-.16-.05A13.51,13.51,0,0,1,106.25,374.55Z" style="fill:#fff;opacity:0.5"></path><path d="M124.8,411.44c-6,0-5.61-.09-9-.2-2.91-.11-3.58.25-5.92.2-2,0-2-1.91-1.57-4.06.17-.82.43-1.78.67-3a1.44,1.44,0,0,1,1.43-1.17h7.07a1.66,1.66,0,0,1,1.33.68,10.2,10.2,0,0,0,7,3.94C129.09,408.3,127.2,411.44,124.8,411.44Z" style="fill:#10B981"></path><path d="M135.71,304.9a377,377,0,0,0,7.37-43.72h-4.23l-8,4.23-3.2,9.41A211.54,211.54,0,0,0,135.71,304.9Z" style="opacity:0.2"></path><path d="M108.73,303.15S117.2,308,132,308l14.87-58.9s-16.14,1-26.39-.55l-1.16,3.06S106.39,266.26,108.73,303.15Z" style="fill:#10B981"></path><path d="M108.73,303.15S117.2,308,132,308l14.87-58.9s-16.14,1-26.39-.55l-1.16,3.06S106.39,266.26,108.73,303.15Z" style="fill:#fff;opacity:0.5"></path><path d="M107.8,300.33a63.18,63.18,0,0,0,25.49,5.12l-1.48,4.68s-16.67.08-23.68-5.57Z" style="fill:#10B981"></path><path d="M107.8,300.33a63.18,63.18,0,0,0,25.49,5.12l-1.48,4.68s-16.67.08-23.68-5.57Z" style="fill:#fff;opacity:0.7000000000000001"></path><path d="M124.61,163.33c2.72-5.52,18.38-6.07,20-.29,3.65,12.88,10,14.5,7.76,23.91-.26-1.53-3.07-5.59-3.07-5.59s4,8.19-3.91,10.29-19.91,2.15-23,.5c-.92-1.16-.76-3.65-.76-3.65a4.25,4.25,0,0,0-.44,3.21c-1.49-1.46-6.47-4.76-3.7-12.54S119.16,162.13,124.61,163.33Z" style="fill:#263238"></path><path d="M140,198.49a39.2,39.2,0,0,0-12.06-.27c-1.08,2.08-.5,5.23-.5,5.23l15.06-.41A4.5,4.5,0,0,0,140,198.49Z" style="fill:#263238"></path><g style="opacity:0.4"><path d="M140,198.49a39.2,39.2,0,0,0-12.06-.27c-1.08,2.08-.5,5.23-.5,5.23l15.06-.41A4.5,4.5,0,0,0,140,198.49Z"></path></g><path d="M185.52,223.93a2.74,2.74,0,0,0-3.73-1l-.09.05a96.45,96.45,0,0,1-10.79,5.67,16.79,16.79,0,0,1-4.74,1.38l-.32-.59c-2-3.77-4.14-7.49-6.28-11.2s-4.33-7.38-6.62-11l0,0a5.46,5.46,0,0,0-9.32,5.67q3.24,5.55,6.7,11c2.31,3.61,4.65,7.21,7.05,10.77l.45.67.29.43c.18.25.35.5.56.74a8.17,8.17,0,0,0,3.13,2.3,9,9,0,0,0,3.26.65,11.84,11.84,0,0,0,2.59-.27,17.15,17.15,0,0,0,4-1.38,31.7,31.7,0,0,0,3.22-1.79,47.63,47.63,0,0,0,5.52-4.15,53.77,53.77,0,0,0,4.85-4.71A2.74,2.74,0,0,0,185.52,223.93Z" style="fill:#ffb573"></path><path d="M146.62,200.84c7.92,1.46,9.21,6.79,15.13,17.45a16.8,16.8,0,0,1-11.37,9S136.7,208.61,146.62,200.84Z" style="fill:#10B981"></path><path d="M155.22,215.8a35.5,35.5,0,0,0,2.64,7.59,16.18,16.18,0,0,1-7.48,3.87,50.43,50.43,0,0,1-5.41-9.8Z" style="opacity:0.2"></path><path d="M156.16,211.49a128.8,128.8,0,0,1-.22,14c-.25,6.09.81,23.44-3.5,24.54-3.34,1.95-20.24,1.23-31-.16-5.13-1.51,3.57-15-6-40.23-1.66-4.4,1.67-8.83,6.5-9.29,1.29-.13,2.66-.23,4.07-.29a109,109,0,0,1,14.8,0c1.61.13,3.28.33,4.88.53C151.44,201.37,156,206.09,156.16,211.49Z" style="fill:#263238"></path><path d="M123,216.35c.55,5.59-1.89,11.18-3,13.32a66.11,66.11,0,0,0-1.36-9.35Z" style="opacity:0.4"></path><path d="M127.05,183.43c1.29,4.77,2.87,13.49-.23,16.67,0,0-2.22,4.18,10.35,3.8,1.1,2.62,2.79,9.75,3.38,16.49,2-6.77,0-14.72-.87-16.62,8.08-.7,1.95-3.67,1.95-3.67-5.41-1.27-5.56-5.21-4.92-8.91Z" style="fill:#ffb573"></path><path d="M131,186.6l5.72,4.59a14.65,14.65,0,0,0-.26,2.63c-2-.3-5-2.52-5.38-4.65A6.92,6.92,0,0,1,131,186.6Z" style="opacity:0.2"></path><path d="M123,173.87c1.45,7.69,1.9,11,6.28,14.66,6.61,5.55,15.68,2.61,16.54-5.23.78-7.05-1.71-18.45-9.64-21A10,10,0,0,0,123,173.87Z" style="fill:#ffb573"></path><path d="M129.59,168.32c-4.24,5.47,4.48,11.77-4.24,11.41s-5.18-12.68,0-15.47S129.59,168.32,129.59,168.32Z" style="fill:#263238"></path><path d="M125.38,164.35c1.09,5.25,1.93,6.61,6.6,5.18a5.42,5.42,0,0,1-.87-3.57,5.19,5.19,0,0,0,2.61,2.89,18.68,18.68,0,0,1,3.89-1.2,5,5,0,0,1-.23-2.26,4.82,4.82,0,0,0,1.76,2.14,13.2,13.2,0,0,1,4.21.74C143.32,162.74,134,156.78,125.38,164.35Z" style="fill:#263238"></path><path d="M135.16,175.15c.1.66.51,1.16.93,1.13s.68-.59.58-1.24-.5-1.15-.92-1.12S135.07,174.5,135.16,175.15Z" style="fill:#263238"></path><path d="M143,174.69c.09.65.51,1.16.92,1.12s.68-.58.59-1.23-.51-1.15-.92-1.12S142.93,174,143,174.69Z" style="fill:#263238"></path><path d="M143.43,173.51l1.46-.57S144.28,174.22,143.43,173.51Z" style="fill:#263238"></path><path d="M141,175.92a19.26,19.26,0,0,0,2.87,4,2.63,2.63,0,0,1-2.21.6Z" style="fill:#ed893e"></path><path d="M138.33,183.18a5.51,5.51,0,0,0,1.08,0,.18.18,0,0,0,.16-.21.21.21,0,0,0-.22-.17,5.5,5.5,0,0,1-4.4-1.71.19.19,0,0,0-.27,0,.19.19,0,0,0,0,.27A5.78,5.78,0,0,0,138.33,183.18Z" style="fill:#263238"></path><path d="M122.23,181.29a5.4,5.4,0,0,0,3.27,2.87c1.79.47,2.57-1.58,2-3.63-.53-1.85-2.11-4.32-3.86-3.87S121.33,179.49,122.23,181.29Z" style="fill:#ffb573"></path><path d="M133,171.66a.36.36,0,0,0,.27-.12,2.78,2.78,0,0,1,2.49-.95.36.36,0,0,0,.42-.3.41.41,0,0,0-.33-.45,3.47,3.47,0,0,0-3.16,1.17.39.39,0,0,0,.05.54A.38.38,0,0,0,133,171.66Z" style="fill:#263238"></path><path d="M144.79,171a.35.35,0,0,0,.26-.08.38.38,0,0,0,0-.54,4,4,0,0,0-3.25-1.45.35.35,0,0,0-.31.42.42.42,0,0,0,.45.34,3.2,3.2,0,0,1,2.56,1.18A.41.41,0,0,0,144.79,171Z" style="fill:#263238"></path><path d="M135.57,174l1.47-.56S136.43,174.69,135.57,174Z" style="fill:#263238"></path><path d="M187.91,217l-2.42.21a2.81,2.81,0,0,0-2.19,1.38l-2.18,3.68a5.29,5.29,0,0,0-.28,4.83l.43,1c4-.07,8.36-3.12,8.36-3.12l1.33-.74a2.35,2.35,0,0,0,1-3.19l-1.42-2.65A2.71,2.71,0,0,0,187.91,217Z" style="fill:#ffb573"></path><path d="M140.14,231.64a2.72,2.72,0,0,0-3.14-2.21h-.06c-4.48.78-9,1.54-13.47,2.19-2.22.3-4.43.59-6.52.7l-.77,0,.35-1.06c.73-2.14,1.49-4.26,2.25-6.38l2.36-6.34c.76-2.1,1.63-4.24,2.39-6.21l0-.12a5.45,5.45,0,0,0-10.06-4.2c-1,2.3-1.84,4.47-2.69,6.71s-1.56,4.48-2.25,6.75-1.32,4.56-1.93,6.85c-.29,1.15-.58,2.3-.84,3.47l-.41,1.82a6.52,6.52,0,0,0,.11,3.51,6,6,0,0,0,1,1.9,6.35,6.35,0,0,0,1.33,1.25,7.28,7.28,0,0,0,2.18,1,10.37,10.37,0,0,0,1.57.3,14.79,14.79,0,0,0,2.44.07,31.32,31.32,0,0,0,4-.47,67.1,67.1,0,0,0,7.14-1.74,111.6,111.6,0,0,0,13.35-4.91A2.74,2.74,0,0,0,140.14,231.64Z" style="fill:#ffb573"></path><path d="M121.64,200.45c-6.63.39-10.29,8.27-14.62,18.93a24,24,0,0,0,13.44,6S128.93,212.79,121.64,200.45Z" style="fill:#10B981"></path><path d="M137.17,203.9a7.84,7.84,0,0,1-1.54-2.75s-9,.41-7.67-2.93c-1.58,1.22-1.74,2-1.65,2.93S129.94,204.71,137.17,203.9Z" style="fill:#263238"></path><path d="M139.68,203.77a4.76,4.76,0,0,0-.14-2.85c2.41.11.65-2.23.48-2.43,1.29.45,4,2.17,4,4C144,203.48,141.88,203.76,139.68,203.77Z" style="fill:#263238"></path><g style="opacity:0.5"><path d="M132.45,206a1.1,1.1,0,0,1-.31,0c-5-1.45-6-4.67-6-4.8l.38-.11s.94,3.16,5.74,4.54a.78.78,0,0,0,.6-.09.82.82,0,0,0,.38-.57,7.62,7.62,0,0,1,1.56-3.17l.3.23a7.21,7.21,0,0,0-1.48,3,1.19,1.19,0,0,1-.56.83A1.12,1.12,0,0,1,132.45,206Z" style="fill:#fff"></path></g><g style="opacity:0.5"><path d="M142.44,204.82c-.24,0-.47-.2-.59-.54a8.32,8.32,0,0,0-1.61-2.65l.21-.53a8.3,8.3,0,0,1,1.74,2.86c.1.25.26.23.31.22s.24-.15.28-.42a15.49,15.49,0,0,0,.13-2.86l.4-.05a15.74,15.74,0,0,1-.14,3,1,1,0,0,1-.61.91Z" style="fill:#fff"></path></g><path d="M119.13,166.5S118,155.67,129.86,153c10.75-2.4,13.77,5.91,13.77,5.91l1,3.71h-10.8l-12.37,6.23Z" style="fill:#10B981"></path><g style="opacity:0.30000000000000004"><path d="M119.13,166.5S118,155.67,129.86,153c10.75-2.4,13.77,5.91,13.77,5.91l1,3.71h-10.8l-12.37,6.23Z" style="fill:#fff"></path></g><path d="M111.63,177.25s18.16-20.09,46.92-13.2l-14.92-5.12s-13.71-1.07-24.5,7.57Z" style="fill:#10B981"></path><path d="M111.63,177.25s18.16-20.09,46.92-13.2l-14.92-5.12s-13.71-1.07-24.5,7.57Z" style="fill:#fff;opacity:0.5"></path><path d="M154.24,216.06s5.15-3.78,4.52-5.94c0,0,1.65,1-.12,3.36,0,0,1.71-.47,1.77-2L163.3,215c1.32,1.59-1.08,3.43-1.08,3.43s2.08-.64,2.4-1.84c0,0,.73,1.44-6,4.79l-2.69-.61-1.1-1.34-.68-.81Z" style="fill:#263238"></path><path d="M155.68,222.36c-.63.23-2.48,1-2.48,1a31.85,31.85,0,0,1-3.69,3.56c-3.58,3-7,4.7-7.71,3.88s1.68-3.89,5.26-6.85a31.56,31.56,0,0,1,4.19-2.95s1.13-1.67,1.48-2.24,1.51-2.73,1.51-2.73l4.41,5.32S156.41,222.09,155.68,222.36Z" style="fill:#10B981"></path><path d="M155.68,222.36c-.63.23-2.48,1-2.48,1a31.85,31.85,0,0,1-3.69,3.56c-3.58,3-7,4.7-7.71,3.88s1.68-3.89,5.26-6.85a31.56,31.56,0,0,1,4.19-2.95s1.13-1.67,1.48-2.24,1.51-2.73,1.51-2.73l4.41,5.32S156.41,222.09,155.68,222.36Z" style="fill:#fff;opacity:0.5"></path><path d="M154.24,216.06l4.41,5.32-1.72.56-3.55-4.3Z" style="fill:#263238"></path><path d="M154.24,216.06l4.41,5.32-1.72.56-3.55-4.3Z" style="fill:#fff;opacity:0.5"></path><path d="M161.49,219c-.43-.52.43-1.66.43-1.66a1.61,1.61,0,0,1-1.64-.32,2.42,2.42,0,0,1-.21-1.92,2.86,2.86,0,0,1-2.65.08,1.52,1.52,0,0,1-.38-1.63c1.09-1.15,2-2.47,1.72-3.46,0,0,1.65,1-.12,3.36,0,0,1.71-.47,1.77-2L163.3,215c1.32,1.59-1.08,3.43-1.08,3.43s2.08-.64,2.4-1.84c0,0,.41.83-2.32,2.7A1.24,1.24,0,0,1,161.49,219Z" style="fill:#fff;opacity:0.7000000000000001"></path><path d="M143.91,224.41h-2.43a2.85,2.85,0,0,0-2.3,1.21l-2.46,3.49a5.26,5.26,0,0,0-.65,4.8l.35,1c4,.25,8.58-2.46,8.58-2.46l1.38-.63a2.35,2.35,0,0,0,1.25-3.1L146.42,226A2.71,2.71,0,0,0,143.91,224.41Z" style="fill:#ffb573"></path><polygon points="192.59 233 177 199.29 168.76 203.71 186.19 237.4 192.59 233" style="fill:#10B981"></polygon><polygon points="192.59 233 177 199.29 168.76 203.71 186.19 237.4 192.59 233" style="fill:#fff;opacity:0.5"></polygon><path d="M184.63,237.32a.73.73,0,0,1-.19,1l-3.2,2A1.13,1.13,0,0,0,181,242c.15.22.27.43.43.66a1.24,1.24,0,0,0,1.47.52c1.2-.56,2.39-1.14,3.56-1.74a1,1,0,0,1,1.2.33,1.79,1.79,0,0,0,2.58.32l4.91-4.58c.7-.66.92-1.62.48-2.12a1.05,1.05,0,0,1,.15-1.29l.17-.2a1,1,0,0,0,.18-1.23c-.12-.15-.25-.37-.37-.56a1.16,1.16,0,0,0-1.6-.21l-.14.09a.59.59,0,0,1-.81-.13,1.33,1.33,0,0,0-1.81-.37l-6.27,3.7A1.55,1.55,0,0,0,184.63,237.32Z" style="fill:#10B981"></path><g style="opacity:0.7000000000000001"><path d="M184.63,237.32a.73.73,0,0,1-.19,1l-3.2,2A1.13,1.13,0,0,0,181,242c.15.22.27.43.43.66a1.24,1.24,0,0,0,1.47.52c1.2-.56,2.39-1.14,3.56-1.74a1,1,0,0,1,1.2.33,1.79,1.79,0,0,0,2.58.32l4.91-4.58c.7-.66.92-1.62.48-2.12a1.05,1.05,0,0,1,.15-1.29l.17-.2a1,1,0,0,0,.18-1.23c-.12-.15-.25-.37-.37-.56a1.16,1.16,0,0,0-1.6-.21l-.14.09a.59.59,0,0,1-.81-.13,1.33,1.33,0,0,0-1.81-.37l-6.27,3.7A1.55,1.55,0,0,0,184.63,237.32Z" style="fill:#fff"></path></g><path d="M179.48,228a.76.76,0,0,1-.32,1l-3.58,1.85a1.14,1.14,0,0,0-.46,1.53l.34.66a1.17,1.17,0,0,0,1.38.58l4-1.37a1,1,0,0,1,1.17.47,1.85,1.85,0,0,0,2.55.74l6.18-3.56a1.81,1.81,0,0,0,.76-2.42,1.27,1.27,0,0,1,.25-1.51l.2-.21a1.22,1.22,0,0,0,.26-1.46l-.38-.74a1.29,1.29,0,0,0-1.75-.52l-.15.08a.64.64,0,0,1-.87-.26,1.45,1.45,0,0,0-1.93-.6l-6.91,3.48A1.65,1.65,0,0,0,179.48,228Z" style="fill:#10B981"></path><g style="opacity:0.7000000000000001"><path d="M179.48,228a.76.76,0,0,1-.32,1l-3.58,1.85a1.14,1.14,0,0,0-.46,1.53l.34.66a1.17,1.17,0,0,0,1.38.58l4-1.37a1,1,0,0,1,1.17.47,1.85,1.85,0,0,0,2.55.74l6.18-3.56a1.81,1.81,0,0,0,.76-2.42,1.27,1.27,0,0,1,.25-1.51l.2-.21a1.22,1.22,0,0,0,.26-1.46l-.38-.74a1.29,1.29,0,0,0-1.75-.52l-.15.08a.64.64,0,0,1-.87-.26,1.45,1.45,0,0,0-1.93-.6l-6.91,3.48A1.65,1.65,0,0,0,179.48,228Z" style="fill:#fff"></path></g><path d="M174.81,218.5a.79.79,0,0,1-.37,1.06l-3.83,1.88a1.18,1.18,0,0,0-.53,1.58l.33.68a1.19,1.19,0,0,0,1.41.6l4.24-1.32a1,1,0,0,1,1.22.52,2,2,0,0,0,2.64.89l6.74-3.39a2,2,0,0,0,.89-2.61,1.41,1.41,0,0,1,.3-1.64l.22-.21a1.38,1.38,0,0,0,.3-1.62l-.4-.82a1.41,1.41,0,0,0-1.87-.63l-.16.08a.69.69,0,0,1-.93-.32,1.55,1.55,0,0,0-2.06-.7l-7.34,3.63A1.75,1.75,0,0,0,174.81,218.5Z" style="fill:#10B981"></path><g style="opacity:0.7000000000000001"><path d="M174.81,218.5a.79.79,0,0,1-.37,1.06l-3.83,1.88a1.18,1.18,0,0,0-.53,1.58l.33.68a1.19,1.19,0,0,0,1.41.6l4.24-1.32a1,1,0,0,1,1.22.52,2,2,0,0,0,2.64.89l6.74-3.39a2,2,0,0,0,.89-2.61,1.41,1.41,0,0,1,.3-1.64l.22-.21a1.38,1.38,0,0,0,.3-1.62l-.4-.82a1.41,1.41,0,0,0-1.87-.63l-.16.08a.69.69,0,0,1-.93-.32,1.55,1.55,0,0,0-2.06-.7l-7.34,3.63A1.75,1.75,0,0,0,174.81,218.5Z" style="fill:#fff"></path></g><path d="M170.17,209.11a.83.83,0,0,1-.37,1.12l-4,2a1.22,1.22,0,0,0-.56,1.63l.35.7a1.22,1.22,0,0,0,1.47.6l4.47-1.42a1.08,1.08,0,0,1,1.28.53,2.08,2.08,0,0,0,2.78.93l7.14-3.53a2.08,2.08,0,0,0,.93-2.79,1.5,1.5,0,0,1,.29-1.76l.24-.23a1.5,1.5,0,0,0,.29-1.74l-.45-.88a1.49,1.49,0,0,0-2-.68l-.17.09a.75.75,0,0,1-1-.33,1.63,1.63,0,0,0-2.19-.73l-7.68,4A1.85,1.85,0,0,0,170.17,209.11Z" style="fill:#10B981"></path><g style="opacity:0.7000000000000001"><path d="M170.17,209.11a.83.83,0,0,1-.37,1.12l-4,2a1.22,1.22,0,0,0-.56,1.63l.35.7a1.22,1.22,0,0,0,1.47.6l4.47-1.42a1.08,1.08,0,0,1,1.28.53,2.08,2.08,0,0,0,2.78.93l7.14-3.53a2.08,2.08,0,0,0,.93-2.79,1.5,1.5,0,0,1,.29-1.76l.24-.23a1.5,1.5,0,0,0,.29-1.74l-.45-.88a1.49,1.49,0,0,0-2-.68l-.17.09a.75.75,0,0,1-1-.33,1.63,1.63,0,0,0-2.19-.73l-7.68,4A1.85,1.85,0,0,0,170.17,209.11Z" style="fill:#fff"></path></g><path d="M164.72,199.33a.87.87,0,0,1-.36,1.18l-4.15,2.29a1.27,1.27,0,0,0-.54,1.72l.38.7a1.27,1.27,0,0,0,1.56.57l4.65-1.63a1.11,1.11,0,0,1,1.35.52,2.2,2.2,0,0,0,2.95.9l7.44-3.86a2.2,2.2,0,0,0,.89-3,1.63,1.63,0,0,1,.26-1.89l.24-.24a1.6,1.6,0,0,0,.24-1.87l-.52-.93a1.57,1.57,0,0,0-2.13-.66l-.18.09a.77.77,0,0,1-1.06-.32,1.71,1.71,0,0,0-2.33-.7l-7.93,4.49A2,2,0,0,0,164.72,199.33Z" style="fill:#10B981"></path><g style="opacity:0.7000000000000001"><path d="M164.72,199.33a.87.87,0,0,1-.36,1.18l-4.15,2.29a1.27,1.27,0,0,0-.54,1.72l.38.7a1.27,1.27,0,0,0,1.56.57l4.65-1.63a1.11,1.11,0,0,1,1.35.52,2.2,2.2,0,0,0,2.95.9l7.44-3.86a2.2,2.2,0,0,0,.89-3,1.63,1.63,0,0,1,.26-1.89l.24-.24a1.6,1.6,0,0,0,.24-1.87l-.52-.93a1.57,1.57,0,0,0-2.13-.66l-.18.09a.77.77,0,0,1-1.06-.32,1.71,1.71,0,0,0-2.33-.7l-7.93,4.49A2,2,0,0,0,164.72,199.33Z" style="fill:#fff"></path></g></g><g id="freepik--Fossil--inject-381"><polygon points="76.19 387.18 58.63 395.09 61.38 411.77 83.22 411.7 84.75 393.2 76.19 387.18" style="fill:#263238"></polygon><polygon points="76.19 387.18 58.63 395.09 61.38 411.77 83.22 411.7 84.75 393.2 76.19 387.18" style="fill:#fff;opacity:0.5"></polygon><polygon points="76.1 402.25 64.61 404.86 61.38 411.77 83.22 411.7 76.1 402.25" style="opacity:0.2"></polygon><polygon points="76.1 402.25 76.19 387.18 58.63 395.09 64.61 404.86 76.1 402.25" style="fill:#fff;opacity:0.30000000000000004"></polygon><polygon points="254.75 392.71 254.72 392.83 249.55 411.77 95.6 411.77 84.75 389.09 106.46 372.21 134.09 387.07 167.15 344.89 219.95 355.24 218.96 380.65 249.55 378.33 254.21 391.21 254.75 392.71" style="fill:#263238"></polygon><polygon points="254.75 392.71 254.72 392.83 249.55 411.77 95.6 411.77 84.75 389.09 106.46 372.21 134.09 387.07 167.15 344.89 219.95 355.24 218.96 380.65 249.55 378.33 254.21 391.21 254.75 392.71" style="fill:#fff;opacity:0.6000000000000001"></polygon><polygon points="134.09 387.07 129.16 401.97 105.22 397.27 95.6 411.77 163.85 411.77 164.93 393.05 134.09 387.07" style="opacity:0.30000000000000004"></polygon><polygon points="203.17 390.7 184.17 376.86 164.93 393.05 163.85 411.77 211.42 411.77 203.17 390.7" style="opacity:0.2"></polygon><polygon points="236.23 401.73 203.17 390.7 211.42 411.77 249.55 411.77 254.75 392.71 236.23 401.73" style="opacity:0.30000000000000004"></polygon><polygon points="254.75 392.71 254.69 392.74 236.23 401.73 203.17 390.7 184.17 376.86 219.95 355.24 218.96 380.65 249.55 378.33 254.21 391.21 254.75 392.71" style="fill:#fff;opacity:0.30000000000000004"></polygon><polygon points="84.75 389.09 95.6 411.77 105.22 397.27 84.75 389.09" style="opacity:0.1"></polygon><polygon points="254.75 392.93 249.55 411.77 211.42 411.77 203.05 391.66 184.17 376.86 190.74 364.13 177.12 364.96 167.15 344.89 219.95 355.24 218.96 380.65 249.55 378.33 254.21 391.21 254.69 392.74 254.72 392.83 254.75 392.93" style="fill:#263238"></polygon><polygon points="254.75 392.93 249.55 411.77 211.42 411.77 203.05 391.66 184.17 376.86 190.74 364.13 177.12 364.96 167.15 344.89 219.95 355.24 218.96 380.65 249.55 378.33 254.21 391.21 254.69 392.74 254.72 392.83 254.75 392.93" style="opacity:0.2"></polygon><polygon points="254.75 392.93 249.55 411.77 211.42 411.77 203.05 391.66 184.17 376.86 190.74 364.13 177.12 364.96 167.15 344.89 219.95 355.24 218.96 380.65 249.55 378.33 254.21 391.21 254.69 392.74 254.72 392.83 254.75 392.93" style="fill:#fff;opacity:0.4"></polygon><polygon points="211.42 411.77 203.05 391.66 236.23 401.73 254.69 392.74 249.55 411.77 211.42 411.77" style="opacity:0.2"></polygon><path d="M226.5,361.14s.74,5.48,7.13,8.83,17.52,7.12,17.52,7.12,14.3,1.84,19.83-1.68a11.75,11.75,0,0,1-10.67,8.39s8.85,9.52,2.25,20.06l-5.35-4.27s-10.35,2.26-16.89.32-10.06-7.47-23.52-9.11c0,0,.73-7.83-3-9.18s-7.24,9.49-11.56,7.64-4.12-9.36-4.12-9.36-7.53-7.13-5.54-9.8,11.27,2.1,11.13-2.88-5.31-3.71-5.31-3.71-.47,4.2-4.67,3.72-1-5.46-3.8-5.5-4.22,2.57-8.81.74-.53-6.33-2.95-8.62-8.7-7.87-7.7-15.72-7.73-5.72-1.48-14c0,0-5.62-7.57-.78-12.69,0,0,19.68,29.4,33.85,32.92s14.79,11,14.79,11,9.92-10.55,18.48-14.32,20.9-12,20.9-12-.22,10.56-13.75,17.8S226.5,361.14,226.5,361.14Z" style="fill:#10B981"></path><path d="M226.5,361.14s.74,5.48,7.13,8.83,17.52,7.12,17.52,7.12,14.3,1.84,19.83-1.68a11.75,11.75,0,0,1-10.67,8.39s8.85,9.52,2.25,20.06l-5.35-4.27s-10.35,2.26-16.89.32-10.06-7.47-23.52-9.11c0,0,.73-7.83-3-9.18s-7.24,9.49-11.56,7.64-4.12-9.36-4.12-9.36-7.53-7.13-5.54-9.8,11.27,2.1,11.13-2.88-5.31-3.71-5.31-3.71-.47,4.2-4.67,3.72-1-5.46-3.8-5.5-4.22,2.57-8.81.74-.53-6.33-2.95-8.62-8.7-7.87-7.7-15.72-7.73-5.72-1.48-14c0,0-5.62-7.57-.78-12.69,0,0,19.68,29.4,33.85,32.92s14.79,11,14.79,11,9.92-10.55,18.48-14.32,20.9-12,20.9-12-.22,10.56-13.75,17.8S226.5,361.14,226.5,361.14Z" style="fill:#fff;opacity:0.7000000000000001"></path><path d="M250.08,403.8S240,405,233.33,400.41s-20-6.64-20-6.64,1.82-6.94-.73-8.62-3.16,6.36-8.45,7.18C204.18,392.33,234.93,417.1,250.08,403.8Z" style="fill:#10B981"></path><path d="M250.08,403.8S240,405,233.33,400.41s-20-6.64-20-6.64,1.82-6.94-.73-8.62-3.16,6.36-8.45,7.18C204.18,392.33,234.93,417.1,250.08,403.8Z" style="fill:#fff;opacity:0.7000000000000001"></path><path d="M254,390.53s-.36-6.44-5.59-7.11-7.29,1.36-7,4.39S244.91,393.26,254,390.53Z" style="opacity:0.5"></path><path d="M222.52,373s2.16-7.95-2.92-12-9,1.88-6.59,4.44S222.52,373,222.52,373Z" style="opacity:0.5"></path><path d="M200.36,347.17s-5.77-.44-14-8.62-11.6-3.83-10.65.9S194.17,361.37,200.36,347.17Z" style="opacity:0.2"></path></g></svg>