<svg xmlns="http://www.w3.org/2000/svg" viewBox="0 0 500 500"><g id="freepik--background-complete--inject-1065"><rect y="382.4" width="500" height="0.25" style="fill:#ebebeb"></rect><rect x="416.78" y="394.17" width="33.12" height="0.25" style="fill:#ebebeb"></rect><rect x="352.42" y="396.89" width="8.69" height="0.25" style="fill:#ebebeb"></rect><rect x="238.24" y="386.69" width="146.54" height="0.25" style="fill:#ebebeb"></rect><rect x="52.46" y="386.57" width="15.21" height="0.25" style="fill:#ebebeb"></rect><rect x="76.57" y="386.57" width="34.32" height="0.25" style="fill:#ebebeb"></rect><rect x="131.47" y="390.79" width="44.2" height="0.25" style="fill:#ebebeb"></rect><path d="M238.45,337.8H45.35a5.71,5.71,0,0,1-5.71-5.71V60.66A5.71,5.71,0,0,1,45.35,55h193.1a5.71,5.71,0,0,1,5.7,5.71V332.09A5.71,5.71,0,0,1,238.45,337.8ZM45.35,55.2a5.47,5.47,0,0,0-5.46,5.46V332.09a5.47,5.47,0,0,0,5.46,5.46h193.1a5.46,5.46,0,0,0,5.45-5.46V60.66a5.46,5.46,0,0,0-5.45-5.46Z" style="fill:#ebebeb"></path><path d="M453.31,337.8H260.21a5.72,5.72,0,0,1-5.71-5.71V60.66A5.72,5.72,0,0,1,260.21,55h193.1A5.71,5.71,0,0,1,459,60.66V332.09A5.71,5.71,0,0,1,453.31,337.8ZM260.21,55.2a5.47,5.47,0,0,0-5.46,5.46V332.09a5.47,5.47,0,0,0,5.46,5.46h193.1a5.47,5.47,0,0,0,5.46-5.46V60.66a5.47,5.47,0,0,0-5.46-5.46Z" style="fill:#ebebeb"></path><path d="M408.11,334.91c-15.33-3.71-34.94,6.61-34.94,6.61s19-23.81-2.67-30.73-30.33,8.63-30.33,8.63,3.5-9.36-1-12.38-9.38.16-9.38.16,5.34-5.1,0-8.76-11.05-.69-11.05-.69,12.89-14.86,0-26.75-28.67.42-28.67.42,13.33-20.81,1.56-29.51-31.18-.32-31.18-.32S274.83,226,265.83,223s-18.71,7.17-18.71,7.17,1.55-4.15-1-6.53-8.5.63-8.5.63,6.23-10.83-9-17.2-22.07,0-22.07,0,2.9-3.29,0-5.25a2.59,2.59,0,0,0-4.12,1c.47-1,3.29-7.57-1.87-11.69-5.58-4.46-17.18-.48-17.18-.48s5.77-12.26-9-13.53c-14.15-1.23-17.81,9.43-18.08,10.29.25-.81-21.21-29.62-39.35-19.69-18.94,10.37.22,34.08.22,34.08s-19.78-8.92-23.49,1.95-1.4,21.62,10.16,35.21C79.44,237,88.33,254.33,88.33,254.33s-9.55-6.58-17.77,1.17,9,32.16,9,32.16a8.38,8.38,0,0,0-8.34,1.17c-3.89,3.19,0,13.38,0,13.38S59,287.56,46.78,293.93s-2.67,25.69,0,35.24c-20.67,2.55-15.34,28-6.22,32.35H416.78S423.44,338.62,408.11,334.91Z" style="fill:#f5f5f5"></path><path d="M356.76,344.92c-50.24,0-90.16,14.4-124,14.4s-50.21-34.73-103.63-34.73-114,57.81-114,57.81h471S407,344.92,356.76,344.92Z" style="fill:#ebebeb"></path><path d="M424.25,331.25a142.1,142.1,0,0,0,28.42-6.66c-12.25-6.58-28.5,5.66-28.5,5.66s17-15.92,17.25-19.5c-12.84-.5-15.84,13.42-18.25,18.42,1-7.92-2.09-18.09-6.75-22.59-.5,3.84,2.25,19.42,4.83,23.5-8.25-7.46-20.33-6.83-20.33-6.83s12.86,6.53,19.52,8.42c-10.77,9-20.88,50.73-20.88,50.73h7.27c4-35,15.25-50.48,15.25-50.48a97.74,97.74,0,0,0,8.75,20.75c5.59-11.09-6.83-20.59-6.83-20.59a95.9,95.9,0,0,0,21.5,3.34C443.58,329.67,424.25,331.25,424.25,331.25Z" style="fill:#e0e0e0"></path><path d="M386.6,319.74a194.3,194.3,0,0,0,25.53-23.19c-14.18.27-25.94,22.21-25.94,22.21s11.25-26.16,10.29-30c-12.71,6.86-11,22.91-11.64,29.45-1.68-8.73-8.12-17.42-14.19-19.37.8,4.24,8.73,18.7,12.63,21.41-10.58-2.94-22.17,4.66-22.17,4.66s14.76-.68,21.92-2.56c-7.51,15.46-4.27,60-4.27,60h8c-7.87-38.38-2.09-60.73-2.09-60.73A82.1,82.1,0,0,0,400.25,338c1.72-14.62-13.61-17.26-13.61-17.26a103.59,103.59,0,0,0,22.13-8.93C405,307,386.6,319.74,386.6,319.74Z" style="fill:#e0e0e0"></path><path d="M84.57,339.37a119.75,119.75,0,0,1-23.91-5.6c10.31-5.54,24,4.76,24,4.76s-14.3-13.39-14.51-16.4c10.79-.42,13.32,11.28,15.35,15.49-.84-6.66,1.75-15.21,5.68-19,.42,3.23-1.9,16.34-4.07,19.77,6.94-6.28,17.11-5.75,17.11-5.75s-10.82,5.49-16.43,7.08c9.07,7.57,17.57,42.68,17.57,42.68H99.22c-3.38-29.48-12.83-42.47-12.83-42.47A82,82,0,0,1,79,357.39c-4.7-9.33,5.75-17.32,5.75-17.32a80.21,80.21,0,0,1-18.09,2.81C68.3,338,84.57,339.37,84.57,339.37Z" style="fill:#e0e0e0"></path><path d="M135.55,305.76a238.19,238.19,0,0,0,31.23-28.36c-17.35.33-31.74,27.16-31.74,27.16s13.77-32,12.59-36.67c-15.54,8.39-13.4,28-14.23,36-2.06-10.67-9.93-21.3-17.36-23.68,1,5.18,10.68,22.86,15.45,26.19-12.94-3.6-27.12,5.69-27.12,5.69s18.06-.83,26.81-3.14C122,327.87,126,382.4,126,382.4h9.83c-9.62-46.94-2.55-74.27-2.55-74.27s6.36,9.64,19,20C154.35,310.22,135.6,307,135.6,307a127.51,127.51,0,0,0,27.07-10.92C158,290.18,135.55,305.76,135.55,305.76Z" style="fill:#e0e0e0"></path><path d="M68.18,357.82a122.59,122.59,0,0,1-14.37-9.1c6.89.1,14.48,8.71,14.48,8.71s-7.71-10.26-7.58-11.76c6.75,2.69,7.29,9,8.19,11.55.06-3.42,2.42-6.83,5.19-7.6,0,1.66-2.61,7.34-4.26,8.4C74.7,356.87,81,359.85,81,359.85a92.2,92.2,0,0,1-10.83-1c5,6.07,7.26,23.56,7.26,23.56H73.51c.48-15.06-4.25-23.83-4.25-23.83A25.75,25.75,0,0,1,63.15,365c-2.1-5.73,5.1-6.77,5.1-6.77a69.69,69.69,0,0,1-11.49-3.5C58.19,352.82,68.18,357.82,68.18,357.82Z" style="fill:#e0e0e0"></path><path d="M206.43,339.37a119.74,119.74,0,0,0,23.9-5.6c-10.3-5.54-24,4.76-24,4.76s14.3-13.39,14.51-16.4c-10.8-.42-13.32,11.28-15.36,15.49.85-6.66-1.75-15.21-5.67-19-.42,3.23,1.89,16.34,4.06,19.77-6.94-6.28-17.1-5.75-17.1-5.75s10.82,5.49,16.42,7.08c-9.06,7.57-17.57,42.68-17.57,42.68h6.12c3.39-29.48,12.83-42.47,12.83-42.47A82.68,82.68,0,0,0,212,357.39c4.7-9.33-5.74-17.32-5.74-17.32a80.18,80.18,0,0,0,18.08,2.81C222.69,338,206.43,339.37,206.43,339.37Z" style="fill:#e0e0e0"></path><path d="M288.07,357.82a122.59,122.59,0,0,0,14.37-9.1c-6.89.1-14.48,8.71-14.48,8.71s7.71-10.26,7.57-11.76c-6.74,2.69-7.28,9-8.18,11.55-.06-3.42-2.42-6.83-5.19-7.6,0,1.66,2.61,7.34,4.26,8.4-4.87-1.15-11.14,1.83-11.14,1.83a92.2,92.2,0,0,0,10.83-1c-5,6.07-7.26,23.56-7.26,23.56h3.89c-.48-15.06,4.25-23.83,4.25-23.83A25.75,25.75,0,0,0,293.1,365c2.1-5.73-5.1-6.77-5.1-6.77a69.69,69.69,0,0,0,11.49-3.5C298.06,352.82,288.07,357.82,288.07,357.82Z" style="fill:#e0e0e0"></path><circle cx="399.56" cy="111.49" r="30.78" transform="translate(38.19 315.18) rotate(-45)" style="fill:#f5f5f5"></circle></g><g id="freepik--Shadow--inject-1065"><ellipse id="freepik--path--inject-1065" cx="250" cy="416.24" rx="193.89" ry="11.32" style="fill:#f5f5f5"></ellipse></g><g id="freepik--lifeguard-chair--inject-1065"><path d="M331.15,81.4c-1.34,8.65-4.39,16.75-6.89,25l-7.79,24.76-15.58,49.49-15.74,49.45-15.92,49.39a1.5,1.5,0,0,1-2.86-.92L282,229.13l15.86-49.4,16-49.36,8-24.68c2.77-8.2,5-16.57,8.91-24.39a.17.17,0,0,1,.23-.08A.19.19,0,0,1,331.15,81.4Z" style="fill:#263238"></path><path d="M327.07,93.6c50.76,16.23,85,50.9,76.55,77.46L219.79,112.3C228.28,85.75,276.31,77.38,327.07,93.6Z" style="fill:#10B981"></path><path d="M327.07,93.6c33.19,10.61,53.22,40.74,44.73,67.29L251.61,122.47C260.1,95.92,293.88,83,327.07,93.6Z" style="fill:#fff;opacity:0.8"></path><path d="M327.07,93.6c11.72,3.75,14.33,28.31,5.85,54.86L290.5,134.9C299,108.35,315.36,89.86,327.07,93.6Z" style="fill:#10B981"></path><path d="M377.88,175.3l12.43,4a8.27,8.27,0,0,0,9-2.75l4.31-5.46L371.8,160.89l.35,7A8.26,8.26,0,0,0,377.88,175.3Z" style="fill:#10B981"></path><path d="M339.53,163,358,168.93a8.27,8.27,0,0,0,8.62-2.3l5.23-5.74-38.88-12.43.93,7.71A8.26,8.26,0,0,0,339.53,163Z" style="fill:#10B981"></path><path d="M339.53,163,358,168.93a8.27,8.27,0,0,0,8.62-2.3l5.23-5.74-38.88-12.43.93,7.71A8.26,8.26,0,0,0,339.53,163Z" style="fill:#fff;opacity:0.8"></path><path d="M238.3,130.69l-12.43-4a8.24,8.24,0,0,1-5.73-7.46l-.35-7,31.82,10.17-4.31,5.46A8.27,8.27,0,0,1,238.3,130.69Z" style="fill:#10B981"></path><path d="M276.65,142.94l-18.42-5.88a8.27,8.27,0,0,1-5.69-6.88l-.93-7.71L290.5,134.9l-5.23,5.74A8.25,8.25,0,0,1,276.65,142.94Z" style="fill:#10B981"></path><path d="M276.65,142.94l-18.42-5.88a8.27,8.27,0,0,1-5.69-6.88l-.93-7.71L290.5,134.9l-5.23,5.74A8.25,8.25,0,0,1,276.65,142.94Z" style="fill:#fff;opacity:0.8"></path><path d="M297.4,149.57l21.38,6.84a8.27,8.27,0,0,0,8.43-2.1l5.71-5.85L290.5,134.9l1.25,8.08A8.25,8.25,0,0,0,297.4,149.57Z" style="fill:#10B981"></path><rect x="260.49" y="280.3" width="8.26" height="135.94" rx="2.78" style="fill:#10B981"></rect><rect x="260.49" y="280.3" width="8.26" height="135.94" rx="2.78" style="opacity:0.1"></rect><path d="M266.6,280.3V416.24a2.15,2.15,0,0,0,2.15-2.15V282.45A2.15,2.15,0,0,0,266.6,280.3Z" style="opacity:0.2"></path><rect x="189.78" y="280.3" width="8.26" height="135.94" rx="2.78" style="fill:#10B981"></rect><rect x="189.78" y="280.3" width="8.26" height="135.94" rx="2.78" style="opacity:0.1"></rect><path d="M195.89,280.3V416.24a2.15,2.15,0,0,0,2.15-2.15V282.45A2.15,2.15,0,0,0,195.89,280.3Z" style="opacity:0.2"></path><path d="M238.46,416.24h-4a1.7,1.7,0,0,1-1.7-2.15l47.75-231.73a2.8,2.8,0,0,1,2.6-2.16h4a1.7,1.7,0,0,1,1.7,2.16L241.06,414.09A2.8,2.8,0,0,1,238.46,416.24Z" style="fill:#10B981"></path><path d="M287.11,180.2,265.33,285.87h-5.47l5.08,1.92-7.59,36.8H252l5,1.88-7.59,36.84h-5.46l5.07,1.92L241.39,402h-5.28l4.9,1.86-2.55,12.35a2.79,2.79,0,0,0,2.6-2.15l47.75-231.74A1.69,1.69,0,0,0,287.11,180.2Z" style="opacity:0.2"></path><path d="M167.44,416.24h-4a1.7,1.7,0,0,1-1.71-2.15l47.76-231.73a2.8,2.8,0,0,1,2.6-2.16h4a1.7,1.7,0,0,1,1.71,2.16L170,414.09A2.78,2.78,0,0,1,167.44,416.24Z" style="fill:#10B981"></path><path d="M216.08,180.2l-3.34,16.18h-3.27l2.59,3.27-2.53,12.22h-3.27l2.59,3.27L202.27,247h-6.11l5.66,2.15-7.56,36.74h-5.79l5.37,2-7.54,36.68h-5.69l5.27,2-7.55,36.72h-5.81l5.39,2L170.36,402h-5.64l5.23,2-2.51,12.22a2.77,2.77,0,0,0,2.59-2.15l47.76-231.74A1.7,1.7,0,0,0,216.08,180.2Z" style="opacity:0.2"></path><path d="M209.83,194.23l.81-4a2.79,2.79,0,0,1,2.6-2.15h69.48a1.69,1.69,0,0,1,1.7,2.15l-.82,4a2.77,2.77,0,0,1-2.59,2.15H211.53A1.69,1.69,0,0,1,209.83,194.23Z" style="fill:#10B981"></path><path d="M206.62,209.72l.82-4a2.79,2.79,0,0,1,2.6-2.15h69.47a1.7,1.7,0,0,1,1.71,2.15l-.82,4a2.79,2.79,0,0,1-2.6,2.15H208.33A1.7,1.7,0,0,1,206.62,209.72Z" style="fill:#10B981"></path><path d="M175.18,244.82l.51-3.95a2.53,2.53,0,0,1,2.43-2.16H271.8a1.86,1.86,0,0,1,1.87,2.16l-.51,3.95a2.52,2.52,0,0,1-2.43,2.15H177.05A1.85,1.85,0,0,1,175.18,244.82Z" style="fill:#10B981"></path><path d="M247.9,244.82l.51-3.95a2.53,2.53,0,0,1,2.43-2.16h21a1.86,1.86,0,0,1,1.87,2.16l-.51,3.95a2.52,2.52,0,0,1-2.43,2.15h-21A1.85,1.85,0,0,1,247.9,244.82Z" style="opacity:0.2"></path><path d="M159.18,283.72l.51-4a2.51,2.51,0,0,1,2.42-2.15H273.5a1.85,1.85,0,0,1,1.87,2.15l-.51,4a2.53,2.53,0,0,1-2.43,2.15H161.05A1.85,1.85,0,0,1,159.18,283.72Z" style="fill:#10B981"></path><path d="M249.61,283.72l.51-4a2.52,2.52,0,0,1,2.43-2.15H273.5a1.85,1.85,0,0,1,1.87,2.15l-.51,4a2.53,2.53,0,0,1-2.43,2.15h-21A1.85,1.85,0,0,1,249.61,283.72Z" style="opacity:0.2"></path><path d="M151.43,322.44l.51-4a2.52,2.52,0,0,1,2.43-2.15H273.5a1.85,1.85,0,0,1,1.87,2.15l-.51,4a2.53,2.53,0,0,1-2.43,2.15H153.31A1.86,1.86,0,0,1,151.43,322.44Z" style="fill:#10B981"></path><path d="M241.86,322.44l.51-4a2.52,2.52,0,0,1,2.43-2.15h28.7a1.85,1.85,0,0,1,1.87,2.15l-.51,4a2.53,2.53,0,0,1-2.43,2.15H243.74A1.86,1.86,0,0,1,241.86,322.44Z" style="opacity:0.2"></path><path d="M143.69,361.16l.51-4a2.52,2.52,0,0,1,2.43-2.15H273.5a1.85,1.85,0,0,1,1.87,2.15l-.51,4a2.53,2.53,0,0,1-2.43,2.15H145.56A1.85,1.85,0,0,1,143.69,361.16Z" style="fill:#10B981"></path><path d="M234.12,361.16l.51-4a2.52,2.52,0,0,1,2.43-2.15H273.5a1.85,1.85,0,0,1,1.87,2.15l-.51,4a2.53,2.53,0,0,1-2.43,2.15H236A1.86,1.86,0,0,1,234.12,361.16Z" style="opacity:0.2"></path><path d="M128.2,399.88l.51-4a2.52,2.52,0,0,1,2.43-2.15H273.5a1.85,1.85,0,0,1,1.87,2.15l-.51,4a2.52,2.52,0,0,1-2.43,2.15H130.07A1.85,1.85,0,0,1,128.2,399.88Z" style="fill:#10B981"></path><path d="M218.63,399.88l.51-4a2.52,2.52,0,0,1,2.43-2.15H273.5a1.85,1.85,0,0,1,1.87,2.15l-.51,4a2.52,2.52,0,0,1-2.43,2.15H220.51A1.85,1.85,0,0,1,218.63,399.88Z" style="opacity:0.2"></path></g><g id="freepik--Character--inject-1065"><path d="M195.38,76.56c6.24.74,4.64,12.21,7,17.57-1,6.07-16.47,17.66-33.24,13.94,1-7.79-2.4-16.52,1.85-27C175.4,70.32,192.38,67.72,195.38,76.56Z" style="fill:#263238"></path><path d="M135.22,133.78l-2-5.28L127,135.27s3.54,3.61,7.24,4.24l.53-.9A5.62,5.62,0,0,0,135.22,133.78Z" style="fill:#7f3e3b"></path><path d="M127.11,128.63l-1.68,2.43a2.47,2.47,0,0,0,.47,3.3l1.12.91,6.21-6.77-3.51-.86A2.47,2.47,0,0,0,127.11,128.63Z" style="fill:#7f3e3b"></path><path d="M176.23,123.24c-.25.71-.45,1.22-.67,1.81s-.47,1.13-.71,1.68c-.49,1.1-1,2.18-1.53,3.25a66.45,66.45,0,0,1-3.53,6.26,57.9,57.9,0,0,1-9.28,11.33l-1.41,1.24-.35.32-.25.21-.52.4a8.32,8.32,0,0,1-2.16,1,9,9,0,0,1-3.48.29,14.31,14.31,0,0,1-2.49-.52,28.69,28.69,0,0,1-7-3.46,65,65,0,0,1-10.82-9,2.77,2.77,0,0,1,3.28-4.39l.1,0c3.82,2,7.73,4.17,11.52,5.8a24.25,24.25,0,0,0,5.27,1.74,3.58,3.58,0,0,0,.82,0c.17,0,.15-.1-.17,0a2.21,2.21,0,0,0-.66.29l-.19.14,0,0,0,0,.07-.07.25-.27,1-1.07a58.7,58.7,0,0,0,7.06-9.85c1.06-1.77,2-3.62,2.94-5.47.46-.93.91-1.87,1.32-2.81l.62-1.41.54-1.3.11-.25a5.55,5.55,0,0,1,10.35,4Z" style="fill:#7f3e3b"></path><path d="M164.63,123.43c.14,3.09-4.74,10.23,1.28,14.37.71,6.24,1.6,12.38,3.26,22.61h31.41c-1.29-8.84-1-18.93,3.15-38.84a7.93,7.93,0,0,0-7-9.52c-1.25-.13-2.58-.24-3.94-.3a99.7,99.7,0,0,0-14.26,0c-1.54.14-3.13.34-4.65.55A10.79,10.79,0,0,0,164.63,123.43Z" style="fill:#10B981"></path><path d="M195,119.71c0,4,3.39,11.71,6.34,14.73.43-2.77,1-5.77,1.6-9.06Z" style="opacity:0.2"></path><path d="M191.4,95.69c-.9,4.59-1.8,13,1.41,16.06a34,34,0,0,0-15.74,8.7c-3.23-6,1.48-8.7,1.48-8.7,5.12-1.22,5-5,4.09-8.59Z" style="fill:#7f3e3b"></path><path d="M187.83,98.74l-5.18,4.42a15.07,15.07,0,0,1,.44,2.53c1.95-.28,4.64-2.43,4.85-4.47A6.84,6.84,0,0,0,187.83,98.74Z" style="opacity:0.2"></path><path d="M196.24,87.27c-1.79,7.46-2.39,10.66-6.81,13.87-6.66,4.83-15.25,1-15.68-6.83-.39-7.06,2.6-18.08,10.38-19.8S198,79.8,196.24,87.27Z" style="fill:#7f3e3b"></path><path d="M195.45,90.33c-5.44-2-7.32-9-6.3-12.23,0,0,5.41-2.1,7.4.5S199.9,91.93,195.45,90.33Z" style="fill:#263238;opacity:0.5"></path><path d="M169.17,160.41s0,41.16,3.16,67.29c.53,24.54,3.41,81.84,3.41,81.84h6.19s12.32-42,5.74-81.84c12.55-41.5,8.88-67.29,8.88-67.29Z" style="fill:#7f3e3b"></path><path d="M191.77,212.4c1.41-6.09,2.47-11.72,3.25-16.86C191.33,198.5,189.1,204.12,191.77,212.4Z" style="opacity:0.2"></path><path d="M177.38,160.41s16.83,46.46,24,69.27c7.49,23.95,20.6,78.08,20.73,79.86h5.36s6.18-55.74-9.3-78.81C217,174,200.58,160.41,200.58,160.41Z" style="fill:#7f3e3b"></path><path d="M185.18,87.35c-.11.61-.53,1.05-.93,1s-.64-.62-.53-1.24.52-1,.93-1S185.28,86.74,185.18,87.35Z" style="fill:#263238"></path><path d="M177.6,86.12c-.11.61-.52,1-.92,1s-.64-.62-.53-1.24.52-1,.92-1S177.71,85.51,177.6,86.12Z" style="fill:#263238"></path><path d="M177.24,84.94l-1.4-.68S176.4,85.54,177.24,84.94Z" style="fill:#263238"></path><path d="M179.53,87.5A16.65,16.65,0,0,1,176.65,91a2.67,2.67,0,0,0,2.11.8Z" style="fill:#630f0f"></path><path d="M181.89,94.73a5.53,5.53,0,0,1-1-.1.18.18,0,0,1-.15-.21.19.19,0,0,1,.21-.15,5,5,0,0,0,4.31-1.2.17.17,0,0,1,.25,0,.17.17,0,0,1,0,.25A5.07,5.07,0,0,1,181.89,94.73Z" style="fill:#263238"></path><path d="M197,92.07a4.92,4.92,0,0,1-3,2.69c-1.71.48-2.55-1.39-2.07-3.29.44-1.7,1.85-4,3.55-3.63S197.79,90.39,197,92.07Z" style="fill:#7f3e3b"></path><path d="M187.11,81.74a.37.37,0,0,1-.29,0,2.92,2.92,0,0,0-2.62-.33.37.37,0,0,1-.31-.67,3.63,3.63,0,0,1,3.33.39.37.37,0,0,1-.11.66Z" style="fill:#263238"></path><path d="M174.76,82.08a.37.37,0,0,1-.2-.19.35.35,0,0,1,.17-.48,3.66,3.66,0,0,1,3.34,0,.37.37,0,1,1-.37.63,2.93,2.93,0,0,0-2.65,0A.42.42,0,0,1,174.76,82.08Z" style="fill:#263238"></path><path d="M184.82,86.17l-1.4-.68S184,86.77,184.82,86.17Z" style="fill:#263238"></path><path d="M200.58,160.41s-13.46,8.75-12.21,30.87c-3.92.56-19.83-16.74-19.2-30.87C174.15,152,200.58,160.41,200.58,160.41Z" style="fill:#10B981"></path><path d="M198.56,157.13l-5.57-.95,2.72,8.78s4.91-1.23,7.31-4.12l-.51-.91A5.62,5.62,0,0,0,198.56,157.13Z" style="fill:#7f3e3b"></path><path d="M190,161.53l1.25,2.67a2.46,2.46,0,0,0,3.09,1.26l1.35-.5L193,156.18l-2.51,2.6A2.46,2.46,0,0,0,190,161.53Z" style="fill:#7f3e3b"></path><path d="M202.81,114.87c.58.47,1,.83,1.48,1.24s.9.82,1.34,1.23c.88.82,1.73,1.66,2.56,2.52a69.77,69.77,0,0,1,4.73,5.42,57.86,57.86,0,0,1,7.58,12.52l.71,1.75.17.43.12.31c.07.21.14.41.2.62a7.73,7.73,0,0,1,.25,2.38,9,9,0,0,1-.88,3.38,14.29,14.29,0,0,1-1.32,2.17,28.57,28.57,0,0,1-5.61,5.49,65,65,0,0,1-12.08,7.21,2.77,2.77,0,0,1-3-4.56l.08-.08c3.2-2.92,6.51-5.89,9.31-8.92a24.37,24.37,0,0,0,3.4-4.4,3,3,0,0,0,.31-.75c0-.17,0-.18-.08.14a1.87,1.87,0,0,0,.05.72,1.55,1.55,0,0,0,.06.23l0,.05,0,0,0-.09-.17-.32-.67-1.32a58.64,58.64,0,0,0-6.93-9.94c-1.32-1.59-2.75-3.1-4.18-4.6-.72-.74-1.46-1.47-2.21-2.18l-1.12-1-1.05-1-.2-.19a5.55,5.55,0,0,1,7.23-8.42Z" style="fill:#7f3e3b"></path><path d="M229.87,312.41a37.62,37.62,0,0,1-2-10.17s-7.65-1.56-7.18,1c.85,4.62-2.14,8.91-7.63,9.66-3.13.42-1.09,3.45,1.23,3.45,5.81,0,5.39-.09,8.67-.2,2.8-.1,3.46.25,5.72.2C230.52,316.29,230.45,314.48,229.87,312.41Z" style="fill:#7f3e3b"></path><path d="M184.88,311.88c-.54-2.1-2.3-3.25-.72-11.36,0,0-8.94.23-8.73,2.85.4,4.74-3.08,9.21-10.06,9.72-3.11.22-1.39,3.24.9,3.24,5.72,0,7.89-.13,11.11-.25,2.75-.1,3.78.3,6,.25C185.23,316.28,185.42,314,184.88,311.88Z" style="fill:#7f3e3b"></path><path d="M131.22,139.94l-5,7.13-6.89-5.59,5.93-6.34a1.7,1.7,0,0,1,2.31-.16l3.3,2.67A1.69,1.69,0,0,1,131.22,139.94Z" style="fill:#263238"></path><polygon points="136.05 132.08 130.01 140.37 125.12 136.41 131.97 128.77 136.05 132.08" style="fill:#263238"></polygon><path d="M124.11,142.65c1.9,1.55,2.86,3.52,2.13,4.42s-2.85.37-4.76-1.17-2.86-3.52-2.13-4.42S122.21,141.11,124.11,142.65Z" style="fill:#10B981"></path><path d="M123.54,143.36c1.35,1.09,2.1,2.4,1.68,2.92s-2.08.33-3.43-.76-1.88-2.68-1.45-3.2S122.19,142.26,123.54,143.36Z" style="fill:#fff"></path><path d="M134.74,129.52c1.13.91,1.72,2.06,1.31,2.56s-1.64.16-2.77-.75-1.71-2.06-1.31-2.56S133.62,128.61,134.74,129.52Z" style="fill:#263238"></path><path d="M134.89,135.41l-5,7.12L123,137,129,130.6a1.71,1.71,0,0,1,2.32-.16l3.29,2.68A1.69,1.69,0,0,1,134.89,135.41Z" style="fill:#263238"></path><polygon points="139.72 127.55 133.68 135.83 128.79 131.88 135.64 124.24 139.72 127.55" style="fill:#263238"></polygon><path d="M127.78,138.12c1.91,1.54,2.86,3.52,2.14,4.41s-2.86.38-4.77-1.17S122.3,137.85,123,137,125.88,136.58,127.78,138.12Z" style="fill:#10B981"></path><path d="M127.21,138.82c1.35,1.09,2.1,2.4,1.68,2.92s-2.08.34-3.43-.75-1.88-2.68-1.45-3.2S125.86,137.73,127.21,138.82Z" style="fill:#fff"></path><path d="M138.42,125c1.12.91,1.71,2.06,1.3,2.56s-1.64.16-2.77-.75-1.71-2.06-1.31-2.56S137.29,124.08,138.42,125Z" style="fill:#263238"></path><path d="M176.17,131.7a.27.27,0,0,1-.25-.17c-3.19-7.45-3.27-15.6-.21-19.84a.28.28,0,0,1,.45.33c-2.85,4-2.85,11.49,0,18.56,2.33-7.39,10.38-16.79,18.82-19.06a.28.28,0,0,1,.34.2.28.28,0,0,1-.2.34c-8.55,2.3-16.69,12.09-18.65,19.43a.28.28,0,0,1-.25.21Z" style="fill:#263238"></path><path d="M177.61,132.35a1.65,1.65,0,1,1-.91-2.14A1.64,1.64,0,0,1,177.61,132.35Z" style="fill:#263238"></path><path d="M174.61,129.37h.59a0,0,0,0,1,0,0v5.46a0,0,0,0,1,0,0H173a0,0,0,0,1,0,0V131A1.61,1.61,0,0,1,174.61,129.37Z" transform="translate(62.22 -55.64) rotate(22.02)" style="fill:#fff"></path><rect x="175.1" y="129.9" width="0.6" height="5.46" transform="translate(288.3 321.33) rotate(-157.99)" style="fill:#263238"></rect><path d="M194.56,77.48c-3.8,2-14.37,2.6-18.72,1.86,0,0,4.1-6.92,11.55-6.67S194.56,77.48,194.56,77.48Z" style="fill:#263238"></path></g><g id="freepik--Lifebuoy--inject-1065"><path d="M344.37,329.91a52.5,52.5,0,1,0,0,74.24A52.52,52.52,0,0,0,344.37,329.91Zm-55.82,55.82a26.44,26.44,0,1,1,37.39,0A26.44,26.44,0,0,1,288.55,385.73Z" style="fill:#10B981"></path><g style="opacity:0.7000000000000001"><path d="M324.54,317.45,315,341.73a26.58,26.58,0,0,1,17.59,17.59l24.27-9.59a52.59,52.59,0,0,0-32.28-32.28Z" style="fill:#fff"></path><path d="M288.55,385.73a26.16,26.16,0,0,1-6.59-11l-24.3,9.58a52.59,52.59,0,0,0,32.28,32.28l9.59-24.29A26.3,26.3,0,0,1,288.55,385.73Z" style="fill:#fff"></path><path d="M290,317.45a52.58,52.58,0,0,0-32.29,32.28l24.3,9.59a26.36,26.36,0,0,1,17.57-17.57Z" style="fill:#fff"></path><path d="M356.82,384.33l-24.29-9.58A26.47,26.47,0,0,1,315,392.32l9.58,24.29a52.59,52.59,0,0,0,32.28-32.28Z" style="fill:#fff"></path></g><path d="M260.5,375.27a5.66,5.66,0,0,1-5.65-5.35,52.4,52.4,0,0,1,55.29-55.28,5.66,5.66,0,1,1-.63,11.31,41.08,41.08,0,0,0-43.35,43.35,5.67,5.67,0,0,1-5.34,6Z" style="fill:#fff;opacity:0.2"></path><path d="M310,404.66a5.66,5.66,0,0,1-.46-11.31,26.34,26.34,0,0,0,24.07-24.08,5.67,5.67,0,0,1,11.3,1,37.7,37.7,0,0,1-34.43,34.42A3.85,3.85,0,0,1,310,404.66Z" style="fill:#fff;opacity:0.2"></path></g></svg>