<svg xmlns="http://www.w3.org/2000/svg" viewBox="0 0 500 500"><g id="freepik--background-complete--inject-170"><rect x="434.32" y="275.65" width="33.59" height="10.87" style="fill:#ebebeb"></rect><rect x="447.78" y="286.22" width="33.59" height="10.87" style="fill:#f5f5f5"></rect><rect x="414.65" y="106.48" width="33.59" height="10.87" style="fill:#ebebeb"></rect><rect x="428.11" y="117.05" width="33.59" height="10.87" style="fill:#f5f5f5"></rect><polygon points="91.18 326.32 90.68 326.27 95.81 279.58 50.66 297.66 50.47 297.2 96.39 278.8 91.18 326.32" style="fill:#e0e0e0"></polygon><polygon points="95.72 279.29 95.78 278.93 102.83 233.75 103.32 233.82 96.32 278.65 140.6 269.62 140.7 270.11 95.72 279.29" style="fill:#e0e0e0"></polygon><path d="M126.48,312.16l-30.62-33c-13.17-8.2-38.28-23.76-39.22-24.08l.12-.49c.85.18,35.45,21.71,39.39,24.16l.06,0,30.63,33Z" style="fill:#e0e0e0"></path><polygon points="91.14 326.32 90.65 326.27 95.77 279.58 50.62 297.66 50.44 297.2 96.36 278.8 91.14 326.32" style="fill:#e0e0e0"></polygon><polygon points="95.69 279.29 95.74 278.93 102.79 233.75 103.28 233.82 96.29 278.65 140.56 269.62 140.66 270.11 95.69 279.29" style="fill:#e0e0e0"></polygon><path d="M126.44,312.16l-30.61-33C82.66,271,57.55,255.41,56.6,255.09l.12-.49c.85.18,35.46,21.71,39.4,24.16l0,0,30.64,33Z" style="fill:#e0e0e0"></path><polygon points="66.78 316.99 66.39 316.68 95.8 280.04 48 271.05 48.09 270.55 96.71 279.7 66.78 316.99" style="fill:#e0e0e0"></polygon><polygon points="138.75 296.17 95.88 279.75 96.12 279.48 126.33 245.16 126.71 245.49 96.73 279.54 138.93 295.7 138.75 296.17" style="fill:#e0e0e0"></polygon><path d="M104.17,324l-8.11-44.27c-6.7-14-19.52-40.6-20.14-41.38l.35-.35c.63.61,18.25,37.35,20.26,41.54l0,.06,8.11,44.31Z" style="fill:#e0e0e0"></path><path d="M80.15,239.36a42.9,42.9,0,1,1-23.86,55.79h0a43,43,0,0,1,23.87-55.78m-2.29-5.71A49.06,49.06,0,1,0,141.64,261,49.06,49.06,0,0,0,77.86,233.65Z" style="fill:#e0e0e0"></path><circle cx="96.1" cy="279.19" r="7.9" transform="translate(-187.42 196.74) rotate(-54.79)" style="fill:#e0e0e0"></circle><path d="M428.79,305a43.89,43.89,0,0,0-8.87.9l-6-23.42h0l-2.49-17a2,2,0,0,0-.26-.74l12.56-4.16a5.69,5.69,0,0,1,4.65,10.32l-1.22.7a2.35,2.35,0,0,0,1.18,4.38,2.38,2.38,0,0,0,1.17-.31l1.21-.7a10.39,10.39,0,0,0-8.48-18.85l-23.53,7.79a2.35,2.35,0,0,0,1.48,4.47l7.17-2.38v.08l2.14,14.8-83.06,7.52-5-11.79a73.26,73.26,0,0,0,7.09-1.85c4.6-1.52,7.14-.17,5.57-3.75-1.28-2.92-10.45-1.73-16.63-1.67a16.75,16.75,0,0,1-4.68-.55c-6.44-1.81-13.3.74-7.6,8,1.65,1.72,6.95,1.43,12.21.57a1.86,1.86,0,0,0,.14.55l5.68,13.46-8.16,17.22a43.66,43.66,0,1,0,21.57,59.61L352,373.17l-3.07,11.1h-2.36a1.37,1.37,0,0,0,0,2.74h12.1a1.37,1.37,0,0,0,0-2.74h-6.91l2.89-10.4.19,0A9.23,9.23,0,0,0,356,374h0l.31,0a10.16,10.16,0,0,0,9.85-10.15c0-.2,0-.39,0-.58s0-.21,0-.32-.05-.4-.08-.6,0-.2-.05-.3a6,6,0,0,0-.13-.61l-.06-.26c-.06-.21-.12-.41-.19-.62l-.06-.17a10.15,10.15,0,0,0-1.45-2.67l-.12-.15a.94.94,0,0,0-.09-.12l49.44-60.52,2.58,10A43.68,43.68,0,1,0,428.79,305ZM316.4,317.29l-11.89,20,10-21.08C315.14,316.56,315.78,316.91,316.4,317.29Zm-18.78-5.19a36.34,36.34,0,0,1,14.4,2.95l-12.81,27a6.54,6.54,0,0,0-1.59-.21h0a6.73,6.73,0,0,0-2.94.64c-6.08-8.27-14.3-19.42-17.78-23.95A36.36,36.36,0,0,1,297.62,312.1Zm-21.49,7c3.17,4.16,10.91,14.63,17.71,23.86a6.71,6.71,0,0,0-3,5.2H261.09A36.53,36.53,0,0,1,276.13,319.12Zm-15,30h29.73a6.74,6.74,0,0,0,3.84,5.61l-14,26.28A36.55,36.55,0,0,1,261.09,349.12Zm36.55,36.08a36.35,36.35,0,0,1-16.17-3.76l14.08-26.38a2.67,2.67,0,0,0,.26.09l5.36,1.72,9.91,25.77A36.36,36.36,0,0,1,297.64,385.2ZM312,382.29l-9.63-25.05,27.46,8.81A36.7,36.7,0,0,1,312,382.29Zm18.78-18.14-29.38-9.43-.14-.37a6.71,6.71,0,0,0,3-4.37l29.34,5.33A36.23,36.23,0,0,1,330.73,364.15Zm3-9.77-29.39-5.33c0-.13,0-.26,0-.4a6.65,6.65,0,0,0-1.09-3.66l30.82,6.14C334,352.23,333.9,353.32,333.73,354.38Zm.44-5.3-31.78-6.35,14.8-24.94a36.49,36.49,0,0,1,17,30.86C334.18,348.79,334.17,348.94,334.17,349.08ZM317.54,309.8l7.11-15L348.79,352l-7.56-1.51c0-.61,0-1.22,0-1.83h0A43.67,43.67,0,0,0,317.54,309.8Zm30.12,59.78-10.12-3.25a43.32,43.32,0,0,0,3.56-13.8l8.64,1.72.5,1.19a10.15,10.15,0,0,0-2.58,14.14Zm5.27.21a6.72,6.72,0,0,1-1.31-11.09l2.5,5.92a2.69,2.69,0,0,0,.16.29Zm3.08.75-.45,0,1.35-4.86a2,2,0,0,0,.71-.56l4.05-5a6.67,6.67,0,0,1,1.09,3.66A6.75,6.75,0,0,1,356,370.54Zm-.6-13.45.6,0,.44,0-.41,1.5Zm5.31-2.3-.46-.22-.13-.07-.11-.05,3.09-11.12h2.36a1.37,1.37,0,0,0,0-2.74H353.36a1.37,1.37,0,0,0,0,2.74h6.91l-2.88,10.39-3.72-.74L328.1,292.4,410.29,285l1.79,7Zm68.06-42.69A36.39,36.39,0,0,1,447,316.94L431.72,342.6a6.59,6.59,0,0,0-2.54-.66L421.7,312.8A36.71,36.71,0,0,1,428.78,312.1Zm-11.07,1.73,7.41,28.84c-5.93-8.06-13.95-18.94-17.6-23.72A36.25,36.25,0,0,1,417.71,313.83Zm-10.94,5.67c3.39,4.47,11.08,14.87,17.75,23.94a6.68,6.68,0,0,0-2.45,4.74H392.25A36.52,36.52,0,0,1,406.77,319.5Zm-14.52,29.62h29.82a6.7,6.7,0,0,0,3.13,5.23l-14,26.32A36.52,36.52,0,0,1,392.25,349.12Zm36.54,36.08a36.36,36.36,0,0,1-16.8-4.09l14-26.31a6.81,6.81,0,0,0,2.75.59,7,7,0,0,0,2.05-.32l10.7,27.84A36.31,36.31,0,0,1,428.79,385.2Zm13.62-2.63L431.7,354.72a6.76,6.76,0,0,0,3.65-4.6l29.35,5.33A36.62,36.62,0,0,1,442.41,382.57Zm-6.92-33.38c0-.18,0-.35,0-.54a6.72,6.72,0,0,0-3-5.59l15.23-25.65a36.51,36.51,0,0,1,17.1,37.12Z" style="fill:#f0f0f0"></path><rect x="280.73" y="87.75" width="147.21" height="162.9" style="fill:#e6e6e6"></rect><rect x="287.21" y="94.2" width="134.64" height="150.33" style="fill:#f5f5f5"></rect><polygon points="325.26 94.2 287.21 236.71 287.21 159.56 304.62 94.2 325.26 94.2" style="fill:#fff"></polygon><polygon points="342.27 94.2 302.13 244.53 294.57 244.53 334.7 94.2 342.27 94.2" style="fill:#fff"></polygon><polygon points="421.85 135.19 421.85 212.35 413.32 244.53 392.68 244.53 421.85 135.19" style="fill:#fff"></polygon><rect x="351.72" y="87.75" width="5.23" height="162.9" style="fill:#e6e6e6"></rect><rect x="283.29" y="120.8" width="141.83" height="5.23" style="fill:#e6e6e6"></rect><rect x="30.24" y="123.73" width="33.59" height="10.87" style="fill:#ebebeb"></rect><rect x="43.7" y="134.3" width="33.59" height="10.87" style="fill:#f5f5f5"></rect><rect x="145.04" y="222.16" width="33.59" height="10.87" style="fill:#ebebeb"></rect><rect x="158.49" y="232.73" width="33.59" height="10.87" style="fill:#f5f5f5"></rect><rect x="124.62" y="62.8" width="33.59" height="10.87" style="fill:#f5f5f5"></rect><rect x="233.21" y="73.67" width="33.59" height="10.87" style="fill:#f5f5f5"></rect><rect x="322.6" y="44.73" width="33.59" height="10.87" style="fill:#ebebeb"></rect><rect x="336.05" y="55.29" width="33.59" height="10.87" style="fill:#f5f5f5"></rect><path d="M443.92,330.2H263.17a5.87,5.87,0,0,1-5.86-5.86V61.06a5.87,5.87,0,0,1,5.86-5.86H443.92a5.87,5.87,0,0,1,5.86,5.86V324.34A5.87,5.87,0,0,1,443.92,330.2ZM263.17,55.45a5.62,5.62,0,0,0-5.61,5.61V324.34a5.62,5.62,0,0,0,5.61,5.61H443.92a5.61,5.61,0,0,0,5.61-5.61V61.06a5.61,5.61,0,0,0-5.61-5.61Z" style="fill:#e0e0e0"></path><path d="M235.49,330.2H54.75a5.87,5.87,0,0,1-5.87-5.86V61.06a5.87,5.87,0,0,1,5.87-5.86H235.49a5.86,5.86,0,0,1,5.86,5.86V324.34A5.86,5.86,0,0,1,235.49,330.2ZM54.75,55.45a5.62,5.62,0,0,0-5.62,5.61V324.34A5.62,5.62,0,0,0,54.75,330H235.49a5.61,5.61,0,0,0,5.61-5.61V61.06a5.61,5.61,0,0,0-5.61-5.61Z" style="fill:#e0e0e0"></path><rect y="391.27" width="500" height="0.25" style="fill:#e0e0e0"></rect><rect x="52.46" y="405.53" width="16.06" height="0.25" style="fill:#e0e0e0"></rect><rect x="171.14" y="402.82" width="53.53" height="0.25" style="fill:#e0e0e0"></rect><rect x="69.52" y="414.82" width="36.25" height="0.25" style="fill:#e0e0e0"></rect><rect x="379.14" y="402.69" width="43.19" height="0.25" style="fill:#e0e0e0"></rect><rect x="431.24" y="402.69" width="6.33" height="0.25" style="fill:#e0e0e0"></rect><rect x="317" y="408.92" width="53.89" height="0.25" style="fill:#e0e0e0"></rect></g><g id="freepik--Shadow--inject-170"><path d="M467,441.53c0,3.39-93.51,6.14-208.87,6.14s-208.88-2.75-208.88-6.14,93.52-6.13,208.88-6.13S467,438.15,467,441.53Z" style="fill:#f5f5f5"></path></g><g id="freepik--tools-board--inject-170"><rect x="64.58" y="87.15" width="160.37" height="116.36" style="fill:#10B981"></rect><rect x="70.77" y="93.64" width="148.27" height="103.38" style="fill:#fff;opacity:0.6000000000000001"></rect><path d="M95.77,139.22V119.78a5,5,0,1,0-5.41,0v19.44A6.52,6.52,0,0,0,90.22,151v-5.28a13.26,13.26,0,0,1,2.84-1.19l3,1.13V151a6.51,6.51,0,0,0-.25-11.75Zm-2.71-25.8a2.28,2.28,0,0,1,1,4.36H92.11a2.28,2.28,0,0,1,1-4.36Z" style="isolation:isolate;opacity:0.2"></path><path d="M141.83,131.39v-12.2a3.16,3.16,0,1,0-3.39,0v12.2a4.09,4.09,0,0,0-.09,7.41v-3.32a8.11,8.11,0,0,1,1.79-.74l1.85.71v3.31a4.08,4.08,0,0,0-.16-7.37Zm-1.69-16.19a1.43,1.43,0,0,1,1.43,1.44,1.42,1.42,0,0,1-.83,1.29h-1.2a1.41,1.41,0,0,1-.84-1.29A1.43,1.43,0,0,1,140.14,115.2Z" style="isolation:isolate;opacity:0.2"></path><path d="M120.3,136.15V119.81a4.22,4.22,0,1,0-4.54,0v16.34a5.47,5.47,0,0,0-.12,9.92v-4.44a10.68,10.68,0,0,1,2.39-1l2.49.94V146a5.47,5.47,0,0,0-.22-9.87ZM118,114.47a1.92,1.92,0,0,1,.81,3.66h-1.61a1.92,1.92,0,0,1,.8-3.66Z" style="isolation:isolate;opacity:0.2"></path><path d="M95.41,181.46h0V170.67h0a5.66,5.66,0,0,0,.13-10.24V165a11.09,11.09,0,0,1-2.48,1l-2.56-1v-4.59a5.66,5.66,0,0,0,.22,10.2h0v10.79h0a5.66,5.66,0,0,0-.13,10.25v-4.58a11.2,11.2,0,0,1,2.47-1l2.57,1v4.59a5.66,5.66,0,0,0-.22-10.2Z" style="isolation:isolate;opacity:0.2"></path><path d="M120.2,181.46h0V170.67h0a5.65,5.65,0,0,0,.12-10.24V165a11,11,0,0,1-2.47,1l-2.56-1v-4.59a5.66,5.66,0,0,0,.22,10.2h0v10.79h0a5.66,5.66,0,0,0-.13,10.25v-4.58a11.2,11.2,0,0,1,2.47-1l2.57,1v4.59a5.66,5.66,0,0,0-.22-10.2Z" style="isolation:isolate;opacity:0.2"></path><path d="M145,181.46h0V170.67h0a5.65,5.65,0,0,0,.12-10.24V165a11.2,11.2,0,0,1-2.47,1l-2.56-1v-4.59a5.65,5.65,0,0,0,.22,10.2h0v10.79h0a5.66,5.66,0,0,0-.13,10.25v-4.58a11.2,11.2,0,0,1,2.47-1l2.57,1v4.59a5.66,5.66,0,0,0-.22-10.2Z" style="isolation:isolate;opacity:0.2"></path><path d="M174.44,153.9V131.47h-4.78V153.9c0,2.79-.76,10.78-.76,15,0,11.93,0,11.93,3.15,11.93s3.15,0,3.15-11.93C175.2,164.68,174.44,156.71,174.44,153.9Z" style="fill:#fff"></path><path d="M168.9,168.94c0-4.26.76-12.25.76-15h4.78c0,2.81.76,10.78.76,15,0,11.93,0,11.93-3.15,11.93S168.9,180.87,168.9,168.94Z" style="fill:#10B981"></path><path d="M183.74,133.55H160.31c-.88-5.52-1.15-10.6,0-14.63h23.43A48.7,48.7,0,0,1,183.74,133.55Z" style="fill:#263238"></path><path d="M194.23,166.1h1.3v-2.63a.58.58,0,0,0-.06-.26l-.39-.85a1.42,1.42,0,0,1-.13-.61v-21.3h-1.38v21.27a1.37,1.37,0,0,1-.16.66l-.42.83a.6.6,0,0,0-.06.27v2.62Z" style="fill:#fff"></path><path d="M196.74,138.94a57.8,57.8,0,0,0,.37-8.57c0-12,0-12-2.88-12s-2.89,0-2.89,12a56.29,56.29,0,0,0,.38,8.57Z" style="fill:#10B981"></path><rect x="190.72" y="138.94" width="7.02" height="2.46" rx="0.88" style="fill:#10B981"></rect><path d="M205,166.1h1.3v-2.63a.75.75,0,0,0-.05-.26l-.39-.85a1.43,1.43,0,0,1-.14-.61v-21.3h-1.38v21.27a1.49,1.49,0,0,1-.15.66l-.42.83a.5.5,0,0,0-.07.27v2.62Z" style="fill:#fff"></path><path d="M207.54,138.94a57.8,57.8,0,0,0,.37-8.57c0-12,0-12-2.88-12s-2.88,0-2.88,12a57.8,57.8,0,0,0,.37,8.57Z" style="fill:#10B981"></path><rect x="201.52" y="138.94" width="7.02" height="2.46" rx="0.88" style="fill:#10B981"></rect><path d="M95.77,136.17V116.73a5,5,0,1,0-5.41,0v19.44A6.52,6.52,0,0,0,90.22,148V142.7a13.26,13.26,0,0,1,2.84-1.19l3,1.13v5.28a6.51,6.51,0,0,0-.25-11.75Zm-2.71-25.8a2.28,2.28,0,0,1,1,4.36H92.11a2.28,2.28,0,0,1,1-4.36Z" style="fill:#fff"></path><path d="M141.83,128.34v-12.2a3.16,3.16,0,1,0-3.39,0v12.2a4.09,4.09,0,0,0-.09,7.41v-3.31a8.1,8.1,0,0,1,1.79-.75l1.85.71v3.31a4.08,4.08,0,0,0-.16-7.37Zm-1.69-16.19a1.43,1.43,0,0,1,1.43,1.44,1.42,1.42,0,0,1-.83,1.29h-1.2a1.41,1.41,0,0,1-.84-1.29A1.43,1.43,0,0,1,140.14,112.15Z" style="fill:#fff"></path><path d="M120.3,133.1V116.76a4.22,4.22,0,1,0-4.54,0V133.1a5.47,5.47,0,0,0-.12,9.92v-4.44a10.68,10.68,0,0,1,2.39-1l2.49.94V143a5.47,5.47,0,0,0-.22-9.87ZM118,111.42a1.92,1.92,0,0,1,.81,3.66h-1.61a1.92,1.92,0,0,1,.8-3.66Z" style="fill:#fff"></path><path d="M95.41,178.42h0v-10.8h0a5.66,5.66,0,0,0,.13-10.24V162a11.09,11.09,0,0,1-2.48,1l-2.56-1v-4.58a5.65,5.65,0,0,0,.22,10.19h0v10.8h0a5.66,5.66,0,0,0-.13,10.24v-4.58a11.2,11.2,0,0,1,2.47-1l2.57,1v4.59a5.65,5.65,0,0,0-.22-10.19Z" style="fill:#fff"></path><path d="M120.2,178.42h0v-10.8h0a5.65,5.65,0,0,0,.12-10.24V162a11,11,0,0,1-2.47,1l-2.56-1v-4.58a5.65,5.65,0,0,0,.22,10.19h0v10.8h0a5.66,5.66,0,0,0-.13,10.24v-4.58a11.2,11.2,0,0,1,2.47-1l2.57,1v4.59a5.65,5.65,0,0,0-.22-10.19Z" style="fill:#fff"></path><path d="M145,178.42h0v-10.8h0a5.65,5.65,0,0,0,.12-10.24V162a11.2,11.2,0,0,1-2.47,1l-2.56-1v-4.58a5.64,5.64,0,0,0,.22,10.19h0v10.8h0a5.65,5.65,0,0,0-.13,10.24v-4.58a11.2,11.2,0,0,1,2.47-1l2.57,1v4.59a5.65,5.65,0,0,0-.22-10.19Z" style="fill:#fff"></path><path d="M219,93.89a.27.27,0,0,1-.17-.06.26.26,0,0,1,0-.36l5.64-6.22a.25.25,0,0,1,.35,0,.26.26,0,0,1,0,.36l-5.63,6.22A.27.27,0,0,1,219,93.89Z" style="opacity:0.30000000000000004"></path><path d="M70.77,93.89a.27.27,0,0,1-.18-.08l-6-6.3a.25.25,0,0,1,0-.35.26.26,0,0,1,.36,0l6,6.3a.25.25,0,0,1,0,.35A.24.24,0,0,1,70.77,93.89Z" style="opacity:0.30000000000000004"></path><path d="M65,203.64a.27.27,0,0,1-.17-.06.26.26,0,0,1,0-.36L70.42,197a.25.25,0,0,1,.35,0,.26.26,0,0,1,0,.36l-5.64,6.22A.27.27,0,0,1,65,203.64Z" style="opacity:0.30000000000000004"></path><path d="M224.85,203.72a.25.25,0,0,1-.18-.08l-6-6.3a.24.24,0,0,1,0-.35.25.25,0,0,1,.36,0l6,6.3a.25.25,0,0,1,0,.35A.28.28,0,0,1,224.85,203.72Z" style="opacity:0.30000000000000004"></path><path d="M125.68,208.83H82a.25.25,0,0,1,0-.5h43.68a.25.25,0,0,1,0,.5Z" style="fill:#10B981"></path><path d="M134.15,208.83h-5.46a.25.25,0,0,1,0-.5h5.46a.25.25,0,0,1,0,.5Z" style="fill:#10B981"></path><path d="M213.15,82.79H170.34a.25.25,0,0,1,0-.5h42.81a.25.25,0,0,1,0,.5Z" style="fill:#10B981"></path><path d="M174.44,157V134.52h-4.78V157c0,2.79-.76,10.78-.76,15,0,11.94,0,11.94,3.15,11.94s3.15,0,3.15-11.94C175.2,167.73,174.44,159.76,174.44,157Z"></path><path d="M168.9,172c0-4.25.76-12.24.76-15h4.78c0,2.81.76,10.78.76,15,0,11.94,0,11.94-3.15,11.94S168.9,183.92,168.9,172Z"></path><path d="M183.74,136.6H160.31c-.88-5.52-1.15-10.6,0-14.63h23.43A48.7,48.7,0,0,1,183.74,136.6Z"></path><path d="M194.23,169.14h1.3v-2.63a.57.57,0,0,0-.06-.25l-.39-.85a1.42,1.42,0,0,1-.13-.61V143.5h-1.38v21.27a1.4,1.4,0,0,1-.16.66l-.42.82a.67.67,0,0,0-.06.28v2.61Z"></path><path d="M196.74,142a57.87,57.87,0,0,0,.37-8.57c0-12,0-12-2.88-12s-2.89,0-2.89,12a56.36,56.36,0,0,0,.38,8.57Z"></path><rect x="190.72" y="141.99" width="7.02" height="2.46" rx="0.88"></rect><path d="M205,169.14h1.3v-2.63a.74.74,0,0,0-.05-.25l-.39-.85a1.43,1.43,0,0,1-.14-.61V143.5h-1.38v21.27a1.52,1.52,0,0,1-.15.66l-.42.82a.55.55,0,0,0-.07.28v2.61Z"></path><path d="M207.54,142a57.87,57.87,0,0,0,.37-8.57c0-12,0-12-2.88-12s-2.88,0-2.88,12a57.87,57.87,0,0,0,.37,8.57Z"></path><rect x="201.52" y="141.99" width="7.02" height="2.46" rx="0.88"></rect></g><g id="freepik--Toolbox--inject-170"><g id="freepik--freepik--Tools--inject-16--inject-170"><polygon points="147.45 412.94 135.81 427.89 131.64 427.25 143.91 412.94 147.45 412.94" style="fill:#10B981"></polygon><polygon points="147.45 412.94 135.81 427.89 131.64 427.25 143.91 412.94 147.45 412.94" style="isolation:isolate;opacity:0.30000000000000004"></polygon><polygon points="143.91 398.81 132.27 413.75 128.1 413.12 140.38 398.81 143.91 398.81" style="fill:#10B981"></polygon><polygon points="143.91 398.81 132.27 413.75 128.1 413.12 140.38 398.81 143.91 398.81" style="isolation:isolate;opacity:0.30000000000000004"></polygon><polygon points="110.45 391.15 60.19 391.15 71.98 422.28 122.24 422.28 110.45 391.15" style="fill:#10B981"></polygon><polygon points="110.45 391.15 60.19 391.15 71.98 422.28 122.24 422.28 110.45 391.15" style="isolation:isolate;opacity:0.30000000000000004"></polygon><rect x="69.62" y="410.5" width="79.85" height="4.02" style="fill:#10B981"></rect><rect x="69.62" y="410.5" width="30.65" height="4.02" style="isolation:isolate;opacity:0.2"></rect><rect x="64.91" y="398.71" width="79.85" height="4.02" style="fill:#10B981"></rect><rect x="64.91" y="398.71" width="30.65" height="4.02" style="isolation:isolate;opacity:0.2"></rect><polygon points="60.27 391.36 57.48 394.6 68.08 422.37 72.23 422.37 60.27 391.36" style="fill:#10B981"></polygon><path d="M169.6,407.64,175,409a7.74,7.74,0,0,0-5.42-6.32,7.21,7.21,0,0,0-8.33,4.39,6.22,6.22,0,0,0-.36,3.54l-32.53,19.57c-3.81-3.2-8.32-.79-10.18,1.82l5.37,1.3a2.36,2.36,0,0,1-1,4.61l-.17-.05L117,436.5a7.76,7.76,0,0,0,5.42,6.33,7.24,7.24,0,0,0,8.44-4.23,5.73,5.73,0,0,0,.48-3.34l32.53-19.57c3.2,2.19,8.24.6,10.07-2l-5.43-1.41a2.35,2.35,0,0,1-1.76-2.83v-.05A2.37,2.37,0,0,1,169.6,407.64Z" style="fill:#10B981"></path><path d="M169.6,407.64,175,409a7.74,7.74,0,0,0-5.42-6.32,7.21,7.21,0,0,0-8.33,4.39,6.22,6.22,0,0,0-.36,3.54l-32.53,19.57c-3.81-3.2-8.32-.79-10.18,1.82l5.37,1.3a2.36,2.36,0,0,1-1,4.61l-.17-.05L117,436.5a7.76,7.76,0,0,0,5.42,6.33,7.24,7.24,0,0,0,8.44-4.23,5.73,5.73,0,0,0,.48-3.34l32.53-19.57c3.2,2.19,8.24.6,10.07-2l-5.43-1.41a2.35,2.35,0,0,1-1.76-2.83v-.05A2.37,2.37,0,0,1,169.6,407.64Z" style="fill:#fff;isolation:isolate;opacity:0.6000000000000001"></path><rect x="71.98" y="422.28" width="86.93" height="25.38" style="fill:#10B981"></rect><rect x="71.98" y="422.28" width="34.18" height="25.38" style="isolation:isolate;opacity:0.2"></rect><path d="M41.45,441.21l-3.92-3.93a7.73,7.73,0,0,0,1.36,8.24,7.21,7.21,0,0,0,9.42.53,6.22,6.22,0,0,0,2.14-2.84l38,.06c1.61,4.71,6.72,5,9.67,3.71l-3.94-3.9a2.35,2.35,0,1,1,3.33-3.31l3.93,3.94a7.76,7.76,0,0,0-1.38-8.25,7.22,7.22,0,0,0-9.42-.74,5.7,5.7,0,0,0-2.13,2.62l-38-.06c-1.61-3.54-6.71-4.71-9.65-3.54l3.92,4a2.35,2.35,0,0,1,0,3.33l0,0A2.36,2.36,0,0,1,41.45,441.21Z" style="fill:#10B981"></path><path d="M41.45,441.21l-3.92-3.93a7.73,7.73,0,0,0,1.36,8.24,7.21,7.21,0,0,0,9.42.53,6.22,6.22,0,0,0,2.14-2.84l38,.06c1.61,4.71,6.72,5,9.67,3.71l-3.94-3.9a2.35,2.35,0,1,1,3.33-3.31l3.93,3.94a7.76,7.76,0,0,0-1.38-8.25,7.22,7.22,0,0,0-9.42-.74,5.7,5.7,0,0,0-2.13,2.62l-38-.06c-1.61-3.54-6.71-4.71-9.65-3.54l3.92,4a2.35,2.35,0,0,1,0,3.33l0,0A2.36,2.36,0,0,1,41.45,441.21Z" style="fill:#fff;isolation:isolate;opacity:0.6000000000000001"></path></g></g><g id="freepik--Bike--inject-170"><rect x="235.74" y="252.53" width="6.57" height="186.16" style="fill:#263238"></rect><g style="opacity:0.7000000000000001"><rect x="235.74" y="252.53" width="6.57" height="186.16" style="fill:#fff"></rect></g><rect x="213.14" y="438.69" width="51.77" height="2.14" style="fill:#263238"></rect><g style="opacity:0.4"><rect x="213.14" y="438.69" width="51.77" height="2.14" style="fill:#fff"></rect></g><g id="freepik--freepik--Character--inject-280--inject-170"><path d="M177.66,347.52h0a5.23,5.23,0,0,1,1.4-.35l.08,0,.08,0,66.63-12.41a9.13,9.13,0,0,1,4.54,17.54,9,9,0,0,1-2.15.57l-68,4.79,0,0,0,0a5.28,5.28,0,0,1-2.54-10.14m-.86-2.15A7.59,7.59,0,0,0,180.46,360l68-4.82a12,12,0,0,0,2.77-.72,11.45,11.45,0,0,0-5.77-22l-66.71,12.4a7.23,7.23,0,0,0-2,.49Z" style="fill:#263238"></path><path d="M177.66,347.52h0a5.23,5.23,0,0,1,1.4-.35l.08,0,.08,0,66.63-12.41a9.13,9.13,0,0,1,4.54,17.54,9,9,0,0,1-2.15.57l-68,4.79,0,0,0,0a5.28,5.28,0,0,1-2.54-10.14m-.86-2.15A7.59,7.59,0,0,0,180.46,360l68-4.82a12,12,0,0,0,2.77-.72,11.45,11.45,0,0,0-5.77-22l-66.71,12.4a7.23,7.23,0,0,0-2,.49Z" style="fill:#fff;opacity:0.7000000000000001"></path><path d="M247.86,346a1.57,1.57,0,0,1-.3.12,2.31,2.31,0,0,1-2.2-.62l-74.51-75.28a2.31,2.31,0,1,1,3.29-3.25l71.8,72.52,29.94-95.37a2.31,2.31,0,0,1,4.41,1.39l-31.06,99A2.31,2.31,0,0,1,247.86,346Z" style="fill:#10B981"></path><path d="M180.2,353.85a1.56,1.56,0,0,1-2-.86,1.52,1.52,0,0,1-.1-.67l4.43-72.18a1.55,1.55,0,0,1,3.09,0,.92.92,0,0,1,0,.16l-4.43,72.17A1.56,1.56,0,0,1,180.2,353.85Z" style="fill:#10B981"></path><path d="M317.58,299.65a2.31,2.31,0,0,1-2.73-.78l-44.12-60.19-85.62,43.61a2.32,2.32,0,1,1-2.11-4.14l87.38-44.51a2.32,2.32,0,0,1,2.92.69l45.28,61.78a2.31,2.31,0,0,1-.5,3.23A2,2,0,0,1,317.58,299.65Z" style="fill:#10B981"></path><path d="M272.29,237.87a2.31,2.31,0,0,1-2.88-1l-9.66-16.71a2.31,2.31,0,1,1,4-2.33l9.71,16.7a2.31,2.31,0,0,1-.85,3.16h0Z" style="fill:#10B981"></path><path d="M157.47,274.17c4.55,2.06,19.37-8.41,23.54-11.92s7.38-3.17,4.25-6.25c-2.57-2.52-11.65,2.56-18.09,5.22a18.66,18.66,0,0,1-5.12,1.37C154.56,263.4,148.46,268.94,157.47,274.17Z" style="fill:#263238"></path><path d="M250.39,370.6a1.53,1.53,0,0,1-2-.86,1.4,1.4,0,0,1-.11-.4l-5.63-50.74a1.55,1.55,0,0,1,3.07-.34L251.34,369A1.55,1.55,0,0,1,250.39,370.6Z" style="fill:#263238"></path><path d="M248.32,318.45l-12.66,5.06a1.54,1.54,0,1,1-1.14-2.86l12.65-5.07a1.55,1.55,0,0,1,1.15,2.87Z" style="fill:#263238"></path><path d="M259.49,367,246.84,372a1.54,1.54,0,1,1-1.15-2.86l12.65-5.07a1.55,1.55,0,0,1,1.15,2.87Z" style="fill:#263238"></path><path d="M251.51,226.06a2.47,2.47,0,0,1-1.91-.89,2.5,2.5,0,0,1,.29-3.52l21.33-18a11.55,11.55,0,0,1,16.55,15.95l-1,1.24a2.5,2.5,0,1,1-3.93-3.1l1-1.23a6.55,6.55,0,0,0-9.39-9l-21.34,18A2.47,2.47,0,0,1,251.51,226.06Z" style="fill:#263238"></path><polygon points="174.92 397.63 174.42 397.58 179.33 352.8 136.04 370.14 135.85 369.68 179.92 352.03 174.92 397.63" style="fill:#e0e0e0"></polygon><polygon points="179.25 352.52 179.31 352.17 186.07 308.82 186.56 308.9 179.85 351.89 222.31 343.22 222.41 343.71 179.25 352.52" style="fill:#e0e0e0"></polygon><path d="M208.76,384.05,179.39,352.4c-12.63-7.86-36.7-22.78-37.62-23.1l.12-.48c.8.16,31.62,19.33,37.8,23.17l.05.05,29.39,31.67Z" style="fill:#e0e0e0"></path><polygon points="174.88 397.63 174.39 397.58 179.3 352.8 136 370.14 135.82 369.68 179.89 352.03 174.88 397.63" style="fill:#e0e0e0"></polygon><polygon points="179.22 352.52 179.27 352.17 186.04 308.82 186.53 308.9 179.82 351.89 222.28 343.22 222.38 343.71 179.22 352.52" style="fill:#e0e0e0"></polygon><path d="M208.73,384.05,179.36,352.4c-12.63-7.86-36.71-22.78-37.62-23.1l.11-.48c.81.16,31.63,19.33,37.8,23.17l0,.05,29.39,31.67Z" style="fill:#e0e0e0"></path><polygon points="151.51 388.68 151.12 388.37 179.32 353.24 133.48 344.61 133.58 344.12 180.23 352.9 151.51 388.68" style="fill:#e0e0e0"></polygon><polygon points="220.54 368.71 179.4 352.96 179.64 352.69 208.62 319.76 209 320.09 180.25 352.75 220.72 368.24 220.54 368.71" style="fill:#e0e0e0"></polygon><path d="M187.36,395.4l-7.78-42.47c-6.43-13.41-18.72-38.93-19.32-39.69l.36-.35c.58.58,16.29,33.3,19.43,39.85l0,.07,7.78,42.5Z" style="fill:#e0e0e0"></path><path d="M164.33,314.21a41.15,41.15,0,1,1-22.9,53.51h0a41.19,41.19,0,0,1,22.9-53.5m-2.2-5.48a47.06,47.06,0,1,0,61.18,26.19A47.05,47.05,0,0,0,162.13,308.73Z" style="fill:#263238"></path><circle cx="179.63" cy="352.41" r="7.58" transform="translate(-214.97 379.93) rotate(-66.98)" style="fill:#263238"></circle></g><polygon points="243.6 258.1 234.03 258.1 234.03 250.34 243.6 246.13 243.6 258.1" style="fill:#263238"></polygon><polygon points="243.6 258.1 234.03 258.1 234.03 250.34 243.6 246.13 243.6 258.1" style="fill:#fff;opacity:0.30000000000000004"></polygon><path d="M176.81,345.37a7.58,7.58,0,1,1-4.22,9.86A7.6,7.6,0,0,1,176.81,345.37Z" style="fill:#263238"></path><path d="M242.74,333.21a11.45,11.45,0,1,0,14.89,6.37h0a11.45,11.45,0,0,0-14.87-6.38Z" style="fill:#263238"></path></g><g id="freepik--speech-bubble--inject-170"><circle cx="359.1" cy="144.26" r="23.14" transform="translate(28.82 345.96) rotate(-53.3)" style="fill:#10B981"></circle><polygon points="370.56 158.31 369.89 164.24 377.01 166.67 376.63 159.29 370.56 158.31" style="fill:#10B981"></polygon><path d="M386.72,139a.26.26,0,0,1-.25-.23,22.77,22.77,0,0,0-12.19-17.59.25.25,0,0,1-.11-.33.25.25,0,0,1,.34-.12,23.27,23.27,0,0,1,12.46,18,.25.25,0,0,1-.22.27Z" style="fill:#10B981"></path><path d="M386.87,145.81h-.06a.25.25,0,0,1-.19-.3,8,8,0,0,0,.09-3.31.27.27,0,0,1,.21-.3.26.26,0,0,1,.29.21,8.7,8.7,0,0,1-.1,3.52A.26.26,0,0,1,386.87,145.81Z" style="fill:#10B981"></path><path d="M351.92,139.05a9.34,9.34,0,0,0-1.35,3.27l-1.83.17V146l1.83.17a9.34,9.34,0,0,0,1.35,3.27l-1.17,1.41,2.5,2.5,1.41-1.17a9.15,9.15,0,0,0,3.27,1.35l.17,1.83h3.54l.17-1.83a9.15,9.15,0,0,0,3.27-1.35l1.41,1.17,2.5-2.5-1.16-1.41a9.53,9.53,0,0,0,1.35-3.27L371,146v-3.54l-1.82-.17a9.53,9.53,0,0,0-1.35-3.27l1.16-1.41-2.5-2.5-1.41,1.16a9.53,9.53,0,0,0-3.27-1.35l-.17-1.82H358.1l-.17,1.82a9.53,9.53,0,0,0-3.27,1.35l-1.41-1.16-2.5,2.5Zm11.34,1.82a4.79,4.79,0,1,1-6.77,0A4.8,4.8,0,0,1,363.26,140.87Z" style="fill:#fff"></path></g><g id="freepik--Character--inject-170"><polygon points="374.9 414.85 367.63 434.49 361.04 432.36 363.31 411.63 374.9 414.85" style="fill:#b97964"></polygon><path d="M368.34,442.75l-6,0a4.5,4.5,0,0,0-1.91-.57c-.71.08-3.18.53-3.18.53l-15.88-.12a14.56,14.56,0,0,1,.48-1.78,8.37,8.37,0,0,1,.76-1.64,4.49,4.49,0,0,1,3.81-2.24c2.22-.12,9.25-4.74,9.25-4.74a4.19,4.19,0,0,0,2.71-3.57,3.39,3.39,0,0,1,2.27-2.33c1.46-.2,2.26.72,2.46,2.18l.23,1.69,3.36-.5s3.42-1.69,3.24,0c-.1,1-.7,5.19-1.09,8.55-.09.78-.17,1.53-.25,2.18h0C368.46,441.76,368.34,442.75,368.34,442.75Z" style="fill:#263238"></path><g style="opacity:0.2"><path d="M341.39,442.55l15.88.12s2.47-.45,3.18-.53a4.5,4.5,0,0,1,1.91.57l6,0s.12-1,.28-2.43l-26.75.45A14.56,14.56,0,0,0,341.39,442.55Z" style="fill:#fff"></path></g><path d="M352.2,433.86a.21.21,0,0,1,.27,0,2.68,2.68,0,0,1,.94,1.1c.12.24-.24.48-.36.23a2.45,2.45,0,0,0-.82-1,.22.22,0,0,1,0-.34Z" style="fill:#10B981"></path><path d="M353.46,433.12a.24.24,0,0,1,.28,0,2.81,2.81,0,0,1,.94,1.1c.12.25-.24.48-.36.23a2.39,2.39,0,0,0-.83-1,.21.21,0,0,1,0-.33Z" style="fill:#10B981"></path><path d="M354.77,432.44a.23.23,0,0,1,.28,0,2.68,2.68,0,0,1,.94,1.1c.11.24-.24.48-.36.23a2.47,2.47,0,0,0-.83-1,.22.22,0,0,1,0-.34Z" style="fill:#10B981"></path><polygon points="422.39 411.36 425.3 432.73 432.26 433.08 434.52 412.48 422.39 411.36" style="fill:#b97964"></polygon><path d="M438.2,442.65H422.62a3.93,3.93,0,0,1,.05-2.4,7.83,7.83,0,0,1,.23-.89s0,0,0-.05c.14-.48.31-1.08.49-1.72.71-2.6,1.55-6,1.55-6s2.59-5.55,5.62-4.17c2.67,1.22,2,4.7,2,4.7a6.83,6.83,0,0,0,2.28,3.84c1.25,1.11,2.49,2,3.09,3.36a4.24,4.24,0,0,1,.26.83s0,.07,0,.11A6.56,6.56,0,0,1,438.2,442.65Z" style="fill:#263238"></path><g style="opacity:0.2"><path d="M422.67,440.25a3.93,3.93,0,0,0-.05,2.4H438.2a6.56,6.56,0,0,0,.06-2.4Z" style="fill:#fff"></path></g><path d="M432,433a2.1,2.1,0,0,0-2.82.18.23.23,0,0,1-.32-.33,2.56,2.56,0,0,1,3.46-.17c.24.18-.09.5-.32.32Z" style="fill:#10B981"></path><path d="M432.43,434.44a2.09,2.09,0,0,0-2.82.17c-.21.21-.53-.12-.32-.32a2.56,2.56,0,0,1,3.46-.18c.24.18-.09.51-.32.33Z" style="fill:#10B981"></path><path d="M432.87,435.77a2.1,2.1,0,0,0-2.82.18c-.21.21-.53-.12-.32-.33a2.56,2.56,0,0,1,3.46-.17c.24.18-.09.5-.32.32Z" style="fill:#10B981"></path><path d="M438.49,275.8l-33.63.29-20.47-.62s-14.38,62-15.6,73.64-11.7,73.12-11.7,73.12L373,425.72s18.1-65.7,19.41-72c1.13-5.5,13.71-40.78,16.92-49.75q.48,2.76,1,5.51c.81,8.27,3.42,34.64,4.55,44.46,0,0,2.47,56.06,5.33,72.34l15,0c2-23.11,3.24-104.28,3.24-104.28h0C439.53,304.36,438.49,275.8,438.49,275.8Z" style="fill:#263238"></path><g style="opacity:0.5"><path d="M392.78,284.73a19.76,19.76,0,0,1-13.26,13.1.28.28,0,0,0,.15.53,20.36,20.36,0,0,0,13.64-13.48c.11-.34-.42-.48-.53-.15Z"></path><path d="M409.87,284.73c-.38,5.47-.74,10.95-1.11,16.42,0,.35-.56.35-.54,0,.19-2.81.37-5.62.56-8.43-1.35,1-2.93-.23-3.37-1.62a13.74,13.74,0,0,1,.11-7.2.27.27,0,0,1,.53.14,15.83,15.83,0,0,0-.45,4.85,6.9,6.9,0,0,0,.52,2.54c.44.84,1.53,1.56,2.4.79a.26.26,0,0,1,.3,0c.16-2.48.33-5,.5-7.45C409.34,284.38,409.88,284.38,409.87,284.73Z"></path><path d="M426,285.66a13.81,13.81,0,0,0,12.72,13.9c.35,0,.34-.52,0-.54a13.26,13.26,0,0,1-12.18-13.36.27.27,0,0,0-.54,0Z"></path><path d="M429.49,356.39a10.07,10.07,0,0,0,6.91,0c.33-.12.19-.64-.14-.52a9.57,9.57,0,0,1-6.63,0c-.32-.12-.47.4-.14.52Z"></path></g><path d="M347.5,196.19c.12.37,19.46,26.39,19.46,26.39l13.84-18.23s9.86,13.36,9.43,13.47S371.86,245,363.07,238.29s-22.79-36.06-22.79-36.06Z" style="fill:#b97964"></path><path d="M367,222.58s1.49,3.5.77,6.46a6.63,6.63,0,0,0,1.23-3.77,9.58,9.58,0,0,0-.8-4.27Z" style="isolation:isolate;opacity:0.2"></path><path d="M397.64,188.63c5.76,4.2,6.48,16-11.32,41.44l-14.14-14.94c3.67-6.46,6.85-9.63,12.28-17.32C393,185.89,397.64,188.63,397.64,188.63Z" style="fill:#10B981"></path><path d="M397.5,188.18c4.58-.28,22.88-2.12,41.56,1.63L438,261.41s.49,9.48,1.69,19C420.13,288,395,285.72,382.57,278c.13.31.93-7.51,2.15-19,2.14-20.19,5.57-51.66,8.9-69.82C393.71,188.72,397.05,188.21,397.5,188.18Z" style="fill:#10B981"></path><polygon points="388.25 227.25 391.18 204.5 384.53 228.18 386.31 230.07 388.25 227.25" style="isolation:isolate;opacity:0.2"></polygon><path d="M344.2,210s.88.51,1.9-1.37,1-6.52,1-6.52l4.05-.85L350,199l-6.75.3-1.51,2-.88,2.08Z" style="isolation:isolate;opacity:0.2"></path><polygon points="350.52 286.35 350.02 286.3 354.93 241.52 311.64 258.86 311.45 258.4 355.52 240.75 355.48 241.16 350.52 286.35" style="fill:#e0e0e0"></polygon><polygon points="354.85 241.24 361.67 197.54 362.16 197.62 355.45 240.61 397.91 231.94 398.01 232.43 354.85 241.24" style="fill:#e0e0e0"></polygon><path d="M384.36,272.76,355,241.12c-12.63-7.86-36.71-22.78-37.62-23.1l.12-.49c.8.17,31.62,19.34,37.79,23.18l.05,0,29.4,31.67Z" style="fill:#e0e0e0"></path><polygon points="350.48 286.35 349.99 286.3 354.9 241.52 311.6 258.86 311.42 258.4 355.49 240.75 355.44 241.16 350.48 286.35" style="fill:#e0e0e0"></polygon><polygon points="354.81 241.24 361.63 197.54 362.13 197.62 355.42 240.61 397.88 231.94 397.98 232.43 354.81 241.24" style="fill:#e0e0e0"></polygon><path d="M384.33,272.76,355,241.12c-12.63-7.86-36.71-22.78-37.63-23.1l.12-.49c.81.17,31.63,19.34,37.8,23.18l.05,0,29.39,31.67Z" style="fill:#e0e0e0"></path><polygon points="327.11 277.4 326.72 277.09 354.92 241.96 309.08 233.33 309.17 232.84 355.83 241.62 327.11 277.4" style="fill:#e0e0e0"></polygon><polygon points="396.14 257.43 355 241.68 355.23 241.41 384.22 208.48 384.6 208.81 355.85 241.47 396.32 256.96 396.14 257.43" style="fill:#e0e0e0"></polygon><path d="M363,284.12l-7.78-42.47c-6.43-13.41-18.72-38.93-19.33-39.69l.36-.35c.59.58,16.29,33.3,19.44,39.85l0,.07,7.78,42.5Z" style="fill:#e0e0e0"></path><path d="M339.92,202.93A41.15,41.15,0,1,1,317,256.44h0a41.18,41.18,0,0,1,22.89-53.5m-2.19-5.48a47.06,47.06,0,1,0,61.18,26.19A47.05,47.05,0,0,0,337.73,197.45Z" style="fill:#263238"></path><circle cx="355.23" cy="241.13" r="7.58" transform="translate(-35.1 419.94) rotate(-58.78)" style="fill:#263238"></circle><path d="M344.15,195.69s1.69,9.72.34,11.29-2.44-1.18-2.44-1.18,1,3.1-.25,3.71c-1.52.72-2.64-2.17-2.64-2.17s.72,2.57-.44,3-2.7-2.69-2.7-2.69.17,1.9-.82,1.77-4.3-6.81-3.93-9.38,9.09-6.51,11.17-7,3.56-.48,4.9,1.5l-3.19,1.09Z" style="fill:#b97964"></path><path d="M341.9,205.85h0l-1.49-5.5a.14.14,0,0,1,.11-.17.14.14,0,0,1,.19.09l1.49,5.49a.15.15,0,0,1-.11.18A.16.16,0,0,1,341.9,205.85Z" style="opacity:0.2"></path><path d="M339,207.25h0l-1.85-5.16a.15.15,0,0,1,.1-.19.16.16,0,0,1,.2.08l1.85,5.17a.14.14,0,0,1-.1.18A.14.14,0,0,1,339,207.25Z" style="opacity:0.2"></path><path d="M335.81,207.56l-1.49-3.8a.16.16,0,0,1,.29-.11l1.49,3.8a.16.16,0,0,1-.29.11Z" style="opacity:0.2"></path><polygon points="437.01 229.99 435.98 230.12 432.27 211.94 433.99 232.35 437.25 232.88 437.01 229.99" style="isolation:isolate;opacity:0.2"></polygon><path d="M423,188.15s-.77-5.54,2.47-15.13c0,0-.5-.26-.5-.27.44-1.34.91-2.58,1.35-3.65v0l-13.65,7.64c.18,3.12-1.2,9.08-2,11.58,0,0-1.87,4.52,4.23,5C419.36,193.6,423,188.15,423,188.15Z" style="fill:#b97964"></path><path d="M412.24,181.05l7.73-1.39c-.8,2.35-3,5.08-8.36,5.07A24,24,0,0,0,412.24,181.05Z" style="opacity:0.2"></path><path d="M426.69,162.6c-1.26,8.39-1.8,13.15-6.45,17.06-7,5.88-16.84,1.22-18.11-7.41-1.15-7.76,1.11-20.17,9.67-22.72A11.7,11.7,0,0,1,426.69,162.6Z" style="fill:#b97964"></path><path d="M428.66,152.55c-.75-4.75-12.39-5.83-15.86-3.74-.51.31,6.08,4.39,5.67,4.2l3.15,1.41c.51-.07,1.45.6,1.82,2.2,0,0-1.52,12.9,1.82,17,3.07-1.18,3.69-6.29,4.89-9.26C431.94,159.91,434.19,153.4,428.66,152.55Z" style="fill:#263238"></path><path d="M402.13,172.25s7.12-.84,9.48-1.66a38.56,38.56,0,0,1,5.78-1.28c1.65-.24,5.59-4.45,5.59-4.45l1,.57,1,8.8s-4.81,9.14-12.95,8a11.78,11.78,0,0,1-9.95-10" style="opacity:0.1"></path><path d="M429.4,169.93a8,8,0,0,1-4.37,4.3c-2.63,1-3.33-1.81-2.85-4.45.42-2.37,1.38-5.22,4.14-5.12S430.39,167.51,429.4,169.93Z" style="fill:#b97964"></path><path d="M414.41,164c-.08.86-.6,1.52-1.16,1.46s-1-.8-.89-1.66.6-1.52,1.16-1.46S414.48,163.11,414.41,164Z" style="fill:#263238"></path><path d="M405.93,163.39c-.08.86-.6,1.52-1.16,1.46s-1-.8-.89-1.66.6-1.52,1.16-1.46S406,162.53,405.93,163.39Z" style="fill:#263238"></path><path d="M408.72,163.15s-3.11,4-4.14,5.72c1.11,1.19,3.22.87,3.22.87Z" style="fill:#a24e3f"></path><path d="M416.88,160.09a.42.42,0,0,1-.41-.1,3.29,3.29,0,0,0-2.79-.9.42.42,0,0,1-.5-.3.41.41,0,0,1,.3-.49,4.1,4.1,0,0,1,3.55,1.11.41.41,0,0,1,0,.57A.45.45,0,0,1,416.88,160.09Z" style="fill:#263238"></path><path d="M410.77,173.14l-.42,0a.38.38,0,0,1-.34-.41.37.37,0,0,1,.41-.34,4.64,4.64,0,0,0,3.45-1.33.38.38,0,0,1,.53.05.37.37,0,0,1-.06.53A5.67,5.67,0,0,1,410.77,173.14Z" style="fill:#263238"></path><path d="M423.61,169.86h-.05a.25.25,0,0,1-.2-.29,4.52,4.52,0,0,1,1-2.06,2.91,2.91,0,0,1,1.68-1,1.81,1.81,0,0,1,1.83.81.25.25,0,0,1-.1.34.24.24,0,0,1-.34-.1,1.3,1.3,0,0,0-1.31-.56,2.53,2.53,0,0,0-1.39.85,4,4,0,0,0-.91,1.83A.24.24,0,0,1,423.61,169.86Z" style="opacity:0.2"></path><path d="M402.51,159.42a.5.5,0,0,1-.19-.13.42.42,0,0,1,.05-.58,4,4,0,0,1,3.59-.84.41.41,0,0,1,.26.51.39.39,0,0,1-.5.26,3.14,3.14,0,0,0-2.83.7A.41.41,0,0,1,402.51,159.42Z" style="fill:#263238"></path><path d="M430.71,149c-.49-1.94-2.91-2.53-4.8-2.28.25-2.3-2.66-3.85-4.56-3.93a3.87,3.87,0,0,0-2.75.67c.15,0-.51-1.19-.94-1.69a6,6,0,0,0-6.5-1.74,6.54,6.54,0,0,0-4.06,5.63,3.22,3.22,0,0,0-4.58-.22,3.66,3.66,0,0,0-.13,4.83,2.83,2.83,0,1,0,.24,5.65c0,1.71,0,3.86,0,5.58l2.72-6.13c1.2-.33,1.47-.86,1.79-2.12.75,1.67,2.12,1.64,3.88,1.69a4.87,4.87,0,0,0,4.35-2.62,5.24,5.24,0,0,0,4.26,3.24,3.77,3.77,0,0,0,3.84-3.34,4,4,0,0,0,5,1.73A4.38,4.38,0,0,0,430.71,149Z" style="fill:#263238"></path><path d="M383.2,270.68c18,2.41,36.55,1.67,55.63-1.7l.71,8.26c-19.72,3.43-40.26,3.67-57,.24Z" style="fill:#10B981"></path><path d="M383.2,270.68c18,2.41,36.55,1.67,55.63-1.7l.71,8.26c-19.72,3.43-40.26,3.67-57,.24Z" style="opacity:0.30000000000000004"></path><path d="M419.46,279.78c.13.8-4,31.32,4.9,32.64s24.87-3.11,25-7.63-2.38-30-6.54-30S419.46,279.78,419.46,279.78Z" style="fill:#10B981"></path><path d="M419.46,279.78c.13.8-4,31.32,4.9,32.64s24.87-3.11,25-7.63-2.38-30-6.54-30S419.46,279.78,419.46,279.78Z" style="opacity:0.30000000000000004"></path><path d="M406,281a16.93,16.93,0,0,1-5.09-.54c-.38-.2-1.39-.72-.4-7.74a1.45,1.45,0,0,1,1.29-1.33h0c7.24-.36,7.64,0,7.86.15.88.74.76,8.21.61,8.64a.86.86,0,0,1-.52.46A13.29,13.29,0,0,1,406,281Zm1-8.77c-1.2,0-2.91.05-5.14.16h0c-.16,0-.31.21-.35.47-.63,4.46-.42,6.46-.12,6.71,1,.54,7,.54,8,.16a35.6,35.6,0,0,0-.36-7.4A12.13,12.13,0,0,0,407,272.2Z" style="fill:#263238"></path><path d="M411.77,276.81l-.13,0a12.37,12.37,0,0,0-6.25,0,.51.51,0,0,1-.61-.36.51.51,0,0,1,.37-.61,13.31,13.31,0,0,1,6.75,0,.49.49,0,0,1,.35.62A.5.5,0,0,1,411.77,276.81Z" style="fill:#263238"></path><path d="M420.41,287.08c.19.05,24.53-2.47,24.53-2.47s-.94-7.5-2.39-8.05S423,278,421.82,279.23,420.41,287.08,420.41,287.08Z" style="opacity:0.30000000000000004"></path><path d="M429.79,260.11l-1.13-.12,0,.31-.15,1.42a.27.27,0,0,0,0,.17l.28.6a.81.81,0,0,1,.07.4l-1.51,14,.63.07.57.06,1.5-14a.74.74,0,0,1,.19-.41l.42-.51a.38.38,0,0,0,.08-.17l.15-1.41,0-.31Z" style="fill:#e0e0e0"></path><path d="M430.05,278.18l-4.36-.47a28.24,28.24,0,0,0-.93,5.6c-.15,1.36-.4,2.41-.49,3.34l5.25-.53c.08-.72.15-1.34.25-2.27A29.33,29.33,0,0,0,430.05,278.18Z" style="fill:#10B981"></path><path d="M430.16,278.2l-4.58-.5a.69.69,0,0,1-.7-.66l.05-.46a.7.7,0,0,1,.83-.49l4.57.49a.69.69,0,0,1,.7.66l0,.46A.69.69,0,0,1,430.16,278.2Z" style="fill:#10B981"></path><polygon points="425.69 277.71 430.05 278.19 430.09 278.65 425.54 278.2 425.69 277.71" style="opacity:0.30000000000000004"></polygon><path d="M434.6,272.06l0-.2a.83.83,0,0,1,0-.15h0a1.5,1.5,0,0,1,.3-.54l0,0a.93.93,0,0,1,.15-.13l0,0,.16-.1.06,0,.15-.06a1.07,1.07,0,0,1,.27-.08h0l-1.28-7.39-.21,0-.17,0-.41.08a.13.13,0,0,0-.11.11l-.78,7.79.63,3.64a.87.87,0,0,0,.34.55l.86.62h0l.14.77a4.36,4.36,0,0,1-.56,2,13.37,13.37,0,0,0-1.23,6.77l1.78-.15a11.45,11.45,0,0,1,1.1-5.93,5.5,5.5,0,0,0,.66-3l-.11-.63a.13.13,0,0,1,.11-.15l.13,0-.38-2.21h0a1.49,1.49,0,0,1-1.5-.65,1.66,1.66,0,0,1-.21-.55,2.11,2.11,0,0,1,0-.25Z" style="fill:#e0e0e0"></path><path d="M440,278a4.41,4.41,0,0,1-1.22-1.75l-.12-.76.59-.88a.87.87,0,0,0,.14-.63l-.63-3.64-3.36-7.07a.13.13,0,0,0-.14-.07l-.41.07-.27,0-.11,0,1.28,7.39h0a1.47,1.47,0,0,1,1.71,1.2,1.53,1.53,0,0,1,0,.3,1.51,1.51,0,0,1-1.23,1.41h0l.38,2.21.14,0a.12.12,0,0,1,.15.1l.11.64a5.51,5.51,0,0,0,1.65,2.64,11.46,11.46,0,0,1,3,5.22l1.72-.46A13.32,13.32,0,0,0,440,278Z" style="fill:#ebebeb"></path><path d="M440.31,277.83a4.33,4.33,0,0,1-1.17-1.66l-2.26.39a5.66,5.66,0,0,0,1.7,2.73,13.42,13.42,0,0,1,3,5.59l2.51-.26A14.1,14.1,0,0,0,440.31,277.83Z" style="fill:#10B981"></path><path d="M434.54,277a4.45,4.45,0,0,1-.54,2,13.31,13.31,0,0,0-1.4,6.88l2.43-.23a11.49,11.49,0,0,1,1.09-5.85,5.73,5.73,0,0,0,.68-3.15Z" style="fill:#10B981"></path><path d="M436.61,225.1l1.23,15.21L396.3,254.5l3,8.81S447,256,452,253.14s-.13-30.59-.13-30.59Z" style="fill:#b97964"></path><path d="M401.3,247.35s-10.67,2.57-11.67,4.65,2.29,2,2.29,2-3.62.35-3.68,1.91c-.07,1.86,3.38,1.73,3.38,1.73s-2.94.4-2.9,1.79,3.94,1.56,3.94,1.56-2,.68-1.44,1.63,8.85,1.37,11.31-.14,2.63-12.16,2.18-14.49.51-3.59-2.35-7.16l-1.06,6.56Z" style="fill:#b97964"></path><path d="M391.92,254.14h0l6.27-.91a.17.17,0,0,0,.13-.19.17.17,0,0,0-.17-.16l-6.27.91a.17.17,0,0,0-.14.2A.16.16,0,0,0,391.92,254.14Z" style="opacity:0.2"></path><path d="M391.8,257.77h0l6.09-.39a.18.18,0,0,0,.15-.19.17.17,0,0,0-.17-.16l-6.09.39a.17.17,0,0,0-.15.18A.17.17,0,0,0,391.8,257.77Z" style="opacity:0.2"></path><path d="M392.88,261.12l4.53-.16a.18.18,0,0,0,0-.35l-4.54.16a.18.18,0,0,0,0,.35Z" style="opacity:0.2"></path><path d="M438.63,189.73s7.79,1.44,9.56,10.66c1.63,8.48,6.2,27.35,6.2,27.35L436,230.12l-3.71-22.07Z" style="fill:#10B981"></path></g></svg>
