<svg xmlns="http://www.w3.org/2000/svg" viewBox="0 0 750 500"><g id="freepik--background-complete--inject-189"><rect x="98.44" y="401.8" width="155.4" height="19.78" style="fill:#ebebeb"></rect><path d="M156.41,421.78a34.83,34.83,0,0,0-5.18-3.24,29.75,29.75,0,0,0-14.3-2.75,46.24,46.24,0,0,0-14.32,3.31c-1.77.69-3.17,1.31-4.14,1.74a12.65,12.65,0,0,1-1.52.64,8.87,8.87,0,0,1,1.43-.82c1-.49,2.33-1.17,4.09-1.9a43.36,43.36,0,0,1,14.43-3.49,28.9,28.9,0,0,1,14.5,2.94,21.54,21.54,0,0,1,3.79,2.45,10.67,10.67,0,0,1,.93.81A1.52,1.52,0,0,1,156.41,421.78Z" style="fill:#e0e0e0"></path><rect x="243.96" y="401.8" width="9.88" height="19.78" style="fill:#e0e0e0"></rect><path d="M243.48,402.31a2.38,2.38,0,0,1-.32.23l-1,.62c-.87.52-2.09,1.4-3.8,2.28a75.71,75.71,0,0,1-15,6.37,82.68,82.68,0,0,1-11,2.51c-2,.36-4.08.53-6.22.76-1.08.09-2.17.11-3.28.17l-1.67.07h-1.7a78.87,78.87,0,0,1-28.91-5.57,136.23,136.23,0,0,0-14.39-5.07,31.85,31.85,0,0,0-14-.72A73.37,73.37,0,0,0,130,407.73a78.64,78.64,0,0,1-10.71,3.42,27.49,27.49,0,0,1-9.26.58,19.58,19.58,0,0,1-6.69-2,14.74,14.74,0,0,1-3.58-2.61,9.24,9.24,0,0,1-1-1.16s.36.39,1.09,1.08a15.48,15.48,0,0,0,3.6,2.51,19.45,19.45,0,0,0,6.64,1.93,27.49,27.49,0,0,0,9.14-.65,79.84,79.84,0,0,0,10.64-3.47,72.81,72.81,0,0,1,12.33-3.84,32.18,32.18,0,0,1,14.21.7,134.69,134.69,0,0,1,14.45,5.07,78.76,78.76,0,0,0,28.72,5.58l1.69,0,1.66-.07c1.1,0,2.19-.07,3.26-.16,2.13-.22,4.21-.38,6.19-.73a83.35,83.35,0,0,0,10.93-2.43,79.24,79.24,0,0,0,15-6.2c1.72-.85,2.95-1.7,3.83-2.19l1-.57A3,3,0,0,1,243.48,402.31Z" style="fill:#e0e0e0"></path><path d="M219.57,401.64a4.34,4.34,0,0,1-.79.74,17.38,17.38,0,0,1-2.45,1.63,19.37,19.37,0,0,1-18.77,0,17.49,17.49,0,0,1-2.46-1.64,4.14,4.14,0,0,1-.79-.73c.06-.08,1.23.93,3.42,2a20.13,20.13,0,0,0,18.42,0C218.34,402.57,219.51,401.56,219.57,401.64Z" style="fill:#e0e0e0"></path><path d="M244.18,416.9c0,.09-1.12-.33-3-.62a18.66,18.66,0,0,0-3.25-.21,20.48,20.48,0,0,0-3.95.51,19,19,0,0,0-6.56,3c-1.5,1.09-2.3,2-2.37,1.88a3.12,3.12,0,0,1,.51-.65,13,13,0,0,1,1.64-1.53,16.7,16.7,0,0,1,2.81-1.8,18.33,18.33,0,0,1,3.85-1.41,18,18,0,0,1,4.06-.49,16,16,0,0,1,3.32.33,12.62,12.62,0,0,1,2.16.62A2.48,2.48,0,0,1,244.18,416.9Z" style="fill:#e0e0e0"></path><path d="M246.47,421.58c0,.14-33.07.26-73.86.26s-73.86-.12-73.86-.26,33.07-.26,73.86-.26S246.47,421.43,246.47,421.58Z" style="fill:#e0e0e0"></path><rect x="116.43" y="383.81" width="155.4" height="19.78" style="fill:#ebebeb"></rect><path d="M174.4,403.79a35.53,35.53,0,0,0-5.18-3.24,29.75,29.75,0,0,0-14.3-2.75,46.24,46.24,0,0,0-14.32,3.31c-1.77.69-3.17,1.31-4.14,1.74a10.82,10.82,0,0,1-1.52.64,8.87,8.87,0,0,1,1.43-.82c.95-.49,2.33-1.17,4.09-1.9a43.36,43.36,0,0,1,14.43-3.49,28.9,28.9,0,0,1,14.5,2.94,21.54,21.54,0,0,1,3.79,2.45,9,9,0,0,1,.92.81C174.31,403.67,174.41,403.78,174.4,403.79Z" style="fill:#e0e0e0"></path><rect x="261.95" y="383.81" width="9.88" height="19.78" style="fill:#e0e0e0"></rect><path d="M261.46,384.32a1.36,1.36,0,0,1-.32.23c-.23.16-.55.36-1,.62-.87.52-2.09,1.4-3.8,2.28a75.71,75.71,0,0,1-15,6.37,82.68,82.68,0,0,1-11,2.51c-2,.36-4.08.53-6.22.76-1.08.09-2.17.11-3.28.17l-1.67.07h-1.7a78.87,78.87,0,0,1-28.91-5.57,136.23,136.23,0,0,0-14.39-5.07,31.85,31.85,0,0,0-14-.72A73.37,73.37,0,0,0,148,389.74a79.09,79.09,0,0,1-10.71,3.42,27.49,27.49,0,0,1-9.26.58,19.49,19.49,0,0,1-6.7-2,14.85,14.85,0,0,1-3.57-2.61,9.24,9.24,0,0,1-1-1.16s.36.39,1.09,1.08a15.48,15.48,0,0,0,3.6,2.51,19.45,19.45,0,0,0,6.64,1.93,27.22,27.22,0,0,0,9.14-.65,80.31,80.31,0,0,0,10.64-3.47,72.81,72.81,0,0,1,12.33-3.84,32.18,32.18,0,0,1,14.21.7,133.78,133.78,0,0,1,14.44,5.07,78.85,78.85,0,0,0,28.73,5.58l1.69,0,1.66-.07c1.1-.05,2.19-.07,3.26-.16,2.13-.22,4.21-.38,6.19-.73a83.35,83.35,0,0,0,10.93-2.43,79.52,79.52,0,0,0,15-6.2c1.72-.85,2.95-1.7,3.83-2.19l1-.57Z" style="fill:#e0e0e0"></path><path d="M237.56,383.65a4.34,4.34,0,0,1-.79.74,17.38,17.38,0,0,1-2.45,1.63,19.37,19.37,0,0,1-18.77,0,17.49,17.49,0,0,1-2.46-1.64,3.78,3.78,0,0,1-.79-.73c.06-.08,1.23.93,3.42,2a20.13,20.13,0,0,0,18.42,0C236.33,384.58,237.5,383.57,237.56,383.65Z" style="fill:#e0e0e0"></path><path d="M262.17,398.91c0,.09-1.12-.33-3-.62a18.66,18.66,0,0,0-3.25-.21,20.48,20.48,0,0,0-4,.51,19.21,19.21,0,0,0-6.56,3c-1.5,1.09-2.3,1.95-2.37,1.88a3.12,3.12,0,0,1,.51-.65,13,13,0,0,1,1.64-1.53,16.7,16.7,0,0,1,2.81-1.8,18.9,18.9,0,0,1,3.85-1.41,18,18,0,0,1,4.06-.49,16,16,0,0,1,3.32.33,12.62,12.62,0,0,1,2.16.62A2.67,2.67,0,0,1,262.17,398.91Z" style="fill:#e0e0e0"></path><path d="M264.46,403.59c0,.14-33.07.26-73.86.26s-73.86-.12-73.86-.26,33.06-.26,73.86-.26S264.46,403.44,264.46,403.59Z" style="fill:#e0e0e0"></path><rect x="96.41" y="364.81" width="155.4" height="19.78" style="fill:#ebebeb"></rect><path d="M154.37,384.79a34.31,34.31,0,0,0-5.17-3.24,29.94,29.94,0,0,0-14.31-2.75,46.31,46.31,0,0,0-14.32,3.31c-1.76.69-3.17,1.31-4.13,1.74a10.57,10.57,0,0,1-1.53.64,9.37,9.37,0,0,1,1.44-.82c.94-.49,2.33-1.17,4.08-1.9a43.36,43.36,0,0,1,14.44-3.49,28.86,28.86,0,0,1,14.49,2.94,22.09,22.09,0,0,1,3.8,2.45c.42.33.71.62.92.81S154.39,384.78,154.37,384.79Z" style="fill:#e0e0e0"></path><rect x="241.92" y="364.81" width="9.88" height="19.78" style="fill:#e0e0e0"></rect><path d="M241.44,365.32a1.74,1.74,0,0,1-.32.23l-1,.62c-.87.52-2.08,1.4-3.79,2.28a76,76,0,0,1-15,6.37,83.21,83.21,0,0,1-11,2.51c-2,.36-4.08.53-6.22.76-1.07.09-2.17.11-3.27.17l-1.68.07h-1.69a78.89,78.89,0,0,1-28.92-5.57,136.08,136.08,0,0,0-14.38-5.07,31.86,31.86,0,0,0-14-.72A72.79,72.79,0,0,0,128,370.74a78.75,78.75,0,0,1-10.72,3.42,27.43,27.43,0,0,1-9.25.58,19.35,19.35,0,0,1-6.7-2,15,15,0,0,1-3.58-2.61,9.55,9.55,0,0,1-1-1.16s.35.39,1.09,1.08a15.38,15.38,0,0,0,3.59,2.51,19.59,19.59,0,0,0,6.64,1.93,27.22,27.22,0,0,0,9.14-.65,79.37,79.37,0,0,0,10.64-3.47,73.39,73.39,0,0,1,12.33-3.84,32.16,32.16,0,0,1,14.21.7,134.69,134.69,0,0,1,14.45,5.07,78.81,78.81,0,0,0,28.73,5.58l1.68,0,1.67-.07c1.1-.05,2.19-.07,3.26-.16,2.13-.22,4.21-.38,6.19-.73a82.82,82.82,0,0,0,10.92-2.43,79,79,0,0,0,15-6.2c1.72-.85,3-1.7,3.84-2.19l1-.57Z" style="fill:#e0e0e0"></path><path d="M217.54,364.65a4,4,0,0,1-.79.74,17.59,17.59,0,0,1-2.46,1.63,19.28,19.28,0,0,1-18.76,0,16.91,16.91,0,0,1-2.46-1.64,3.71,3.71,0,0,1-.8-.73c.06-.08,1.23.93,3.43,2a20.13,20.13,0,0,0,18.42,0C216.31,365.58,217.48,364.57,217.54,364.65Z" style="fill:#e0e0e0"></path><path d="M242.15,379.91c0,.09-1.13-.33-3-.62a18.59,18.59,0,0,0-3.25-.21,20.48,20.48,0,0,0-4,.51,19.06,19.06,0,0,0-6.55,3c-1.51,1.09-2.3,1.95-2.37,1.88s.15-.25.5-.65a14,14,0,0,1,1.65-1.53,16.7,16.7,0,0,1,2.81-1.8,19.65,19.65,0,0,1,3.84-1.41,18.11,18.11,0,0,1,4.06-.49,16.09,16.09,0,0,1,3.33.33,13.13,13.13,0,0,1,2.15.62A2.65,2.65,0,0,1,242.15,379.91Z" style="fill:#e0e0e0"></path><path d="M244.43,384.59c0,.14-33.07.26-73.85.26s-73.86-.12-73.86-.26,33.06-.26,73.86-.26S244.43,384.44,244.43,384.59Z" style="fill:#e0e0e0"></path><rect x="313.27" y="411.43" width="155.4" height="19.78" style="fill:#ebebeb"></rect><path d="M371.23,431.42a34.31,34.31,0,0,0-5.17-3.24,29.7,29.7,0,0,0-14.31-2.75,46,46,0,0,0-14.32,3.31c-1.76.68-3.17,1.3-4.13,1.74a12.28,12.28,0,0,1-1.53.64,9.37,9.37,0,0,1,1.44-.82c.94-.5,2.33-1.17,4.08-1.91a43.62,43.62,0,0,1,14.44-3.48,28.86,28.86,0,0,1,14.49,2.94,22.09,22.09,0,0,1,3.8,2.45,11.89,11.89,0,0,1,.92.81A1.52,1.52,0,0,1,371.23,431.42Z" style="fill:#e0e0e0"></path><rect x="458.78" y="411.43" width="9.88" height="19.78" style="fill:#e0e0e0"></rect><path d="M458.3,412a1.74,1.74,0,0,1-.32.23l-1,.62c-.87.52-2.08,1.4-3.79,2.28a76,76,0,0,1-15,6.37,83.27,83.27,0,0,1-11,2.5c-2,.37-4.08.54-6.22.76-1.07.1-2.17.12-3.28.18l-1.67.07h-1.69a78.89,78.89,0,0,1-28.92-5.57,136.08,136.08,0,0,0-14.38-5.07,31.71,31.71,0,0,0-14-.72,72.79,72.79,0,0,0-12.26,3.78,80.17,80.17,0,0,1-10.72,3.42,27.16,27.16,0,0,1-9.25.57,19.35,19.35,0,0,1-6.7-2,14.68,14.68,0,0,1-3.58-2.61,8.69,8.69,0,0,1-1-1.16s.35.4,1.09,1.09a15.1,15.1,0,0,0,3.59,2.5,19.35,19.35,0,0,0,6.64,1.94,27.49,27.49,0,0,0,9.14-.65A79.37,79.37,0,0,0,344.71,417,73.39,73.39,0,0,1,357,413.12a32.16,32.16,0,0,1,14.21.7,134.69,134.69,0,0,1,14.45,5.07,78.78,78.78,0,0,0,28.73,5.58l1.68,0,1.67-.07c1.1-.06,2.19-.07,3.25-.16,2.14-.22,4.21-.38,6.2-.73a84.83,84.83,0,0,0,10.92-2.43,79,79,0,0,0,15-6.2c1.72-.85,2.95-1.7,3.84-2.19l1-.58A2.63,2.63,0,0,1,458.3,412Z" style="fill:#e0e0e0"></path><path d="M434.4,411.27a3.63,3.63,0,0,1-.79.74,17.49,17.49,0,0,1-2.46,1.64,19.32,19.32,0,0,1-18.76,0,16.2,16.2,0,0,1-2.46-1.63,3.57,3.57,0,0,1-.8-.74c.06-.07,1.23.94,3.43,2.05a20.13,20.13,0,0,0,18.42,0C433.17,412.21,434.34,411.19,434.4,411.27Z" style="fill:#e0e0e0"></path><path d="M459,426.54c0,.09-1.13-.33-3-.62a18.51,18.51,0,0,0-3.25-.22,21.35,21.35,0,0,0-4,.52,18.88,18.88,0,0,0-6.55,3c-1.51,1.09-2.3,1.95-2.37,1.88s.15-.25.5-.65a13.18,13.18,0,0,1,1.65-1.53,16.7,16.7,0,0,1,2.81-1.8,17.68,17.68,0,0,1,7.9-1.9,16.09,16.09,0,0,1,3.33.33,11.39,11.39,0,0,1,2.15.62C458.76,426.38,459,426.5,459,426.54Z" style="fill:#e0e0e0"></path><path d="M461.29,431.21c0,.15-33.07.27-73.85.27s-73.86-.12-73.86-.27,33.06-.26,73.86-.26S461.29,431.07,461.29,431.21Z" style="fill:#e0e0e0"></path><rect x="304.18" y="392.11" width="155.4" height="19.78" style="fill:#ebebeb"></rect><path d="M362.15,412.1a34.14,34.14,0,0,0-5.18-3.24,29.63,29.63,0,0,0-14.3-2.75,46,46,0,0,0-14.32,3.3c-1.77.69-3.17,1.31-4.14,1.75a9.86,9.86,0,0,1-1.52.63,9.94,9.94,0,0,1,1.43-.82c.95-.49,2.33-1.16,4.09-1.9a43.62,43.62,0,0,1,14.43-3.48,28.9,28.9,0,0,1,14.5,2.94,21.54,21.54,0,0,1,3.79,2.45,10.67,10.67,0,0,1,.93.81A1.52,1.52,0,0,1,362.15,412.1Z" style="fill:#e0e0e0"></path><rect x="449.7" y="392.11" width="9.88" height="19.78" style="fill:#e0e0e0"></rect><path d="M449.22,392.63l-.32.23-1,.62c-.87.52-2.09,1.39-3.8,2.27a75,75,0,0,1-15,6.38,82.73,82.73,0,0,1-11,2.5c-2,.37-4.08.54-6.22.76-1.08.09-2.17.12-3.28.18l-1.67.07h-1.7a78.89,78.89,0,0,1-28.91-5.58A138.41,138.41,0,0,0,362,395a31.7,31.7,0,0,0-14-.72A72.45,72.45,0,0,0,335.78,398a78.64,78.64,0,0,1-10.71,3.42,27.24,27.24,0,0,1-9.26.58,19.36,19.36,0,0,1-6.69-2,14.74,14.74,0,0,1-3.58-2.61,8.44,8.44,0,0,1-1-1.16s.36.4,1.09,1.09a15.5,15.5,0,0,0,3.6,2.5,19.45,19.45,0,0,0,6.64,1.93,27,27,0,0,0,9.14-.65,78.29,78.29,0,0,0,10.64-3.46A71.92,71.92,0,0,1,348,393.8a31.88,31.88,0,0,1,14.21.7,134.69,134.69,0,0,1,14.45,5.07,79,79,0,0,0,28.72,5.58H407l1.66-.06c1.1-.06,2.19-.08,3.26-.16,2.13-.22,4.21-.38,6.19-.74a85.05,85.05,0,0,0,10.93-2.42,79.24,79.24,0,0,0,15-6.2c1.72-.85,2.95-1.7,3.83-2.19l1-.58A1.41,1.41,0,0,1,449.22,392.63Z" style="fill:#e0e0e0"></path><path d="M425.31,392a3.63,3.63,0,0,1-.79.74,17.28,17.28,0,0,1-2.45,1.64,19.34,19.34,0,0,1-18.77,0,17.59,17.59,0,0,1-2.46-1.63,3.63,3.63,0,0,1-.79-.74c.06-.08,1.23.93,3.42,2a20.09,20.09,0,0,0,18.42,0C424.08,392.89,425.25,391.87,425.31,392Z" style="fill:#e0e0e0"></path><path d="M449.92,407.22c0,.09-1.12-.33-3-.62a18.58,18.58,0,0,0-3.25-.22,21.35,21.35,0,0,0-3.95.52,19.21,19.21,0,0,0-6.56,3c-1.5,1.09-2.3,2-2.37,1.89s.16-.25.51-.65a11.67,11.67,0,0,1,1.64-1.53,16.7,16.7,0,0,1,2.81-1.8,18.91,18.91,0,0,1,3.85-1.42,19.27,19.27,0,0,1,4.06-.49,15.93,15.93,0,0,1,3.32.34,11.77,11.77,0,0,1,2.16.62C449.67,407.06,449.94,407.18,449.92,407.22Z" style="fill:#e0e0e0"></path><path d="M452.21,411.89c0,.15-33.07.26-73.86.26s-73.86-.11-73.86-.26,33.07-.26,73.86-.26S452.21,411.75,452.21,411.89Z" style="fill:#e0e0e0"></path><rect x="336.85" y="84.83" width="18.32" height="12.13" style="fill:#ebebeb"></rect><path d="M345.06,329.69h-4.69V103.1h4.69Zm-4.4-.33h4.11V103.43h-4.11Z" style="fill:#e0e0e0"></path><rect x="340.51" y="179.92" width="4.4" height="1.31" style="fill:#e0e0e0"></rect><rect x="340.51" y="182.02" width="4.4" height="1.31" style="fill:#e0e0e0"></rect><rect x="340.51" y="184.62" width="4.4" height="0.33" style="fill:#e0e0e0"></rect><rect x="340.51" y="186.72" width="4.4" height="0.33" style="fill:#e0e0e0"></rect><rect x="340.51" y="188.82" width="4.4" height="0.33" style="fill:#e0e0e0"></rect><rect x="340.51" y="190.92" width="4.4" height="0.33" style="fill:#e0e0e0"></rect><rect x="340.51" y="193.02" width="4.4" height="0.33" style="fill:#e0e0e0"></rect><rect x="340.51" y="194.63" width="4.4" height="1.31" style="fill:#e0e0e0"></rect><rect x="340.51" y="197.23" width="4.4" height="0.33" style="fill:#e0e0e0"></rect><rect x="340.51" y="198.84" width="4.4" height="1.31" style="fill:#e0e0e0"></rect><rect x="340.51" y="201.43" width="4.4" height="0.33" style="fill:#e0e0e0"></rect><rect x="340.51" y="203.53" width="4.4" height="0.33" style="fill:#e0e0e0"></rect><rect x="340.51" y="205.63" width="4.4" height="0.33" style="fill:#e0e0e0"></rect><rect x="340.51" y="207.73" width="4.4" height="0.33" style="fill:#e0e0e0"></rect><rect x="340.51" y="209.83" width="4.4" height="0.33" style="fill:#e0e0e0"></rect><rect x="340.51" y="211.94" width="4.4" height="0.33" style="fill:#e0e0e0"></rect><rect x="340.51" y="213.55" width="4.4" height="1.31" style="fill:#e0e0e0"></rect><rect x="340.51" y="216.14" width="4.4" height="0.33" style="fill:#e0e0e0"></rect><rect x="340.51" y="218.24" width="4.4" height="0.33" style="fill:#e0e0e0"></rect><rect x="340.51" y="219.85" width="4.4" height="1.31" style="fill:#e0e0e0"></rect><rect x="340.51" y="222.45" width="4.4" height="0.33" style="fill:#e0e0e0"></rect><rect x="340.51" y="224.55" width="4.4" height="0.33" style="fill:#e0e0e0"></rect><rect x="340.51" y="226.65" width="4.4" height="0.33" style="fill:#e0e0e0"></rect><rect x="340.51" y="228.75" width="4.4" height="0.33" style="fill:#e0e0e0"></rect><rect x="340.51" y="230.85" width="4.4" height="0.33" style="fill:#e0e0e0"></rect><rect x="340.51" y="232.46" width="4.4" height="1.31" style="fill:#e0e0e0"></rect><rect x="340.51" y="234.57" width="4.4" height="1.31" style="fill:#e0e0e0"></rect><rect x="340.51" y="237.16" width="4.4" height="0.33" style="fill:#e0e0e0"></rect><rect x="340.51" y="239.26" width="4.4" height="0.33" style="fill:#e0e0e0"></rect><rect x="340.51" y="241.36" width="4.4" height="0.33" style="fill:#e0e0e0"></rect><rect x="340.51" y="243.46" width="4.4" height="0.33" style="fill:#e0e0e0"></rect><rect x="340.51" y="245.56" width="4.4" height="0.33" style="fill:#e0e0e0"></rect><rect x="340.51" y="247.67" width="4.4" height="0.33" style="fill:#e0e0e0"></rect><rect x="340.51" y="249.28" width="4.4" height="1.31" style="fill:#e0e0e0"></rect><rect x="340.51" y="251.87" width="4.4" height="0.33" style="fill:#e0e0e0"></rect><rect x="340.51" y="253.48" width="4.4" height="1.31" style="fill:#e0e0e0"></rect><rect x="340.51" y="256.07" width="4.4" height="0.33" style="fill:#e0e0e0"></rect><rect x="340.51" y="257.68" width="4.4" height="1.31" style="fill:#e0e0e0"></rect><rect x="340.51" y="260.28" width="4.4" height="0.33" style="fill:#e0e0e0"></rect><rect x="340.51" y="262.38" width="4.4" height="0.33" style="fill:#e0e0e0"></rect><rect x="340.51" y="264.48" width="4.4" height="0.33" style="fill:#e0e0e0"></rect><rect x="340.51" y="266.58" width="4.4" height="0.33" style="fill:#e0e0e0"></rect><rect x="340.51" y="268.68" width="4.4" height="0.33" style="fill:#e0e0e0"></rect><rect x="340.51" y="270.29" width="4.4" height="1.31" style="fill:#e0e0e0"></rect><rect x="340.51" y="272.89" width="4.4" height="0.33" style="fill:#e0e0e0"></rect><rect x="340.51" y="274.5" width="4.4" height="1.31" style="fill:#e0e0e0"></rect><rect x="340.51" y="277.09" width="4.4" height="0.33" style="fill:#e0e0e0"></rect><rect x="340.51" y="279.19" width="4.4" height="0.33" style="fill:#e0e0e0"></rect><rect x="340.51" y="281.29" width="4.4" height="0.33" style="fill:#e0e0e0"></rect><rect x="340.51" y="283.39" width="4.4" height="0.33" style="fill:#e0e0e0"></rect><rect x="340.51" y="285.5" width="4.4" height="0.33" style="fill:#e0e0e0"></rect><rect x="340.51" y="287.6" width="4.4" height="0.33" style="fill:#e0e0e0"></rect><rect x="340.51" y="289.7" width="4.4" height="0.33" style="fill:#e0e0e0"></rect><rect x="340.51" y="291.8" width="4.4" height="0.33" style="fill:#e0e0e0"></rect><rect x="340.51" y="293.41" width="4.4" height="1.31" style="fill:#e0e0e0"></rect><rect x="340.51" y="296" width="4.4" height="0.33" style="fill:#e0e0e0"></rect><rect x="340.51" y="298.1" width="4.4" height="0.33" style="fill:#e0e0e0"></rect><rect x="340.51" y="300.21" width="4.4" height="0.33" style="fill:#e0e0e0"></rect><rect x="340.51" y="302.31" width="4.4" height="0.33" style="fill:#e0e0e0"></rect><rect x="340.51" y="304.41" width="4.4" height="0.33" style="fill:#e0e0e0"></rect><rect x="340.51" y="306.51" width="4.4" height="0.33" style="fill:#e0e0e0"></rect><rect x="340.51" y="308.61" width="4.4" height="0.33" style="fill:#e0e0e0"></rect><rect x="340.51" y="310.72" width="4.4" height="0.33" style="fill:#e0e0e0"></rect><rect x="340.51" y="312.33" width="4.4" height="1.31" style="fill:#e0e0e0"></rect><rect x="340.51" y="314.92" width="4.4" height="0.33" style="fill:#e0e0e0"></rect><rect x="340.51" y="317.02" width="4.4" height="0.33" style="fill:#e0e0e0"></rect><rect x="340.51" y="319.12" width="4.4" height="0.33" style="fill:#e0e0e0"></rect><rect x="340.51" y="321.22" width="4.4" height="0.33" style="fill:#e0e0e0"></rect><rect x="340.51" y="323.33" width="4.4" height="0.33" style="fill:#e0e0e0"></rect><rect x="340.51" y="325.43" width="4.4" height="0.33" style="fill:#e0e0e0"></rect><rect x="340.51" y="177.96" width="4.4" height="1.31" style="fill:#e0e0e0"></rect><rect x="340.51" y="176.49" width="4.4" height="0.33" style="fill:#e0e0e0"></rect><rect x="340.51" y="174.53" width="4.4" height="0.33" style="fill:#e0e0e0"></rect><rect x="340.51" y="172.58" width="4.4" height="0.33" style="fill:#e0e0e0"></rect><rect x="340.51" y="170.62" width="4.4" height="0.33" style="fill:#e0e0e0"></rect><rect x="340.51" y="168.66" width="4.4" height="0.33" style="fill:#e0e0e0"></rect><rect x="340.51" y="166.7" width="4.4" height="0.33" style="fill:#e0e0e0"></rect><rect x="340.51" y="164.74" width="4.4" height="0.33" style="fill:#e0e0e0"></rect><rect x="340.51" y="162.29" width="4.4" height="1.31" style="fill:#e0e0e0"></rect><rect x="340.51" y="160.82" width="4.4" height="0.33" style="fill:#e0e0e0"></rect><rect x="340.51" y="158.37" width="4.4" height="1.31" style="fill:#e0e0e0"></rect><rect x="340.51" y="156.9" width="4.4" height="0.33" style="fill:#e0e0e0"></rect><rect x="340.51" y="154.94" width="4.4" height="0.33" style="fill:#e0e0e0"></rect><rect x="340.51" y="152.98" width="4.4" height="0.33" style="fill:#e0e0e0"></rect><rect x="340.51" y="151.03" width="4.4" height="0.33" style="fill:#e0e0e0"></rect><rect x="340.51" y="149.07" width="4.4" height="0.33" style="fill:#e0e0e0"></rect><rect x="340.51" y="147.11" width="4.4" height="0.33" style="fill:#e0e0e0"></rect><rect x="340.51" y="145.15" width="4.4" height="0.33" style="fill:#e0e0e0"></rect><rect x="340.51" y="143.19" width="4.4" height="0.33" style="fill:#e0e0e0"></rect><rect x="340.51" y="141.23" width="4.4" height="0.33" style="fill:#e0e0e0"></rect><rect x="340.51" y="138.78" width="4.4" height="1.31" style="fill:#e0e0e0"></rect><rect x="340.51" y="137.31" width="4.4" height="0.33" style="fill:#e0e0e0"></rect><rect x="340.51" y="135.35" width="4.4" height="0.33" style="fill:#e0e0e0"></rect><rect x="340.51" y="133.39" width="4.4" height="0.33" style="fill:#e0e0e0"></rect><rect x="340.51" y="131.44" width="4.4" height="0.33" style="fill:#e0e0e0"></rect><rect x="340.51" y="129.48" width="4.4" height="0.33" style="fill:#e0e0e0"></rect><rect x="340.51" y="127.52" width="4.4" height="0.33" style="fill:#e0e0e0"></rect><rect x="340.51" y="125.56" width="4.4" height="0.33" style="fill:#e0e0e0"></rect><rect x="340.51" y="123.6" width="4.4" height="0.33" style="fill:#e0e0e0"></rect><rect x="340.51" y="121.15" width="4.4" height="1.31" style="fill:#e0e0e0"></rect><rect x="340.51" y="119.68" width="4.4" height="0.33" style="fill:#e0e0e0"></rect><rect x="340.51" y="117.72" width="4.4" height="0.33" style="fill:#e0e0e0"></rect><rect x="340.51" y="115.76" width="4.4" height="0.33" style="fill:#e0e0e0"></rect><rect x="340.51" y="113.8" width="4.4" height="0.33" style="fill:#e0e0e0"></rect><rect x="340.51" y="111.84" width="4.4" height="0.33" style="fill:#e0e0e0"></rect><rect x="340.51" y="109.89" width="4.4" height="0.33" style="fill:#e0e0e0"></rect><rect x="340.51" y="107.93" width="4.4" height="0.33" style="fill:#e0e0e0"></rect><rect x="340.51" y="105.97" width="4.4" height="0.33" style="fill:#e0e0e0"></rect><path d="M353.44,330a.47.47,0,0,1-.45-.49c0-33.49.07-74.4.13-114s.12-80.47.12-114a.47.47,0,0,1,.45-.49.48.48,0,0,1,.45.49c0,33.5-.07,74.4-.13,114s-.12,80.47-.12,114A.47.47,0,0,1,353.44,330Z" style="fill:#ebebeb"></path><path d="M353.44,157.12a.44.44,0,0,1-.36-.2l-23.05-34a.52.52,0,0,1,.09-.69.43.43,0,0,1,.63.11l23.05,34a.51.51,0,0,1-.09.68A.41.41,0,0,1,353.44,157.12Z" style="fill:#ebebeb"></path><path d="M353.44,139a.44.44,0,0,1-.36-.2l-23.05-34a.52.52,0,0,1,.09-.69.43.43,0,0,1,.63.1l23.05,34a.52.52,0,0,1-.09.69A.47.47,0,0,1,353.44,139Z" style="fill:#ebebeb"></path><path d="M353.44,176.33a.44.44,0,0,1-.36-.2l-23.05-34a.52.52,0,0,1,.09-.69.43.43,0,0,1,.63.11l23.05,34a.51.51,0,0,1-.09.68A.41.41,0,0,1,353.44,176.33Z" style="fill:#ebebeb"></path><path d="M353.44,195.54a.44.44,0,0,1-.36-.2L330,161.3a.52.52,0,0,1,.09-.69.43.43,0,0,1,.63.11l23.05,34a.51.51,0,0,1-.09.68A.41.41,0,0,1,353.44,195.54Z" style="fill:#ebebeb"></path><path d="M353.44,214.75a.44.44,0,0,1-.36-.2l-23.05-34a.51.51,0,0,1,.09-.68.43.43,0,0,1,.63.1l23.05,34a.51.51,0,0,1-.09.68A.41.41,0,0,1,353.44,214.75Z" style="fill:#ebebeb"></path><path d="M353.44,234a.44.44,0,0,1-.36-.2l-23.05-34a.51.51,0,0,1,.09-.68.43.43,0,0,1,.63.1l23.05,34a.51.51,0,0,1-.09.68A.41.41,0,0,1,353.44,234Z" style="fill:#ebebeb"></path><path d="M353.44,253.17a.44.44,0,0,1-.36-.2l-23.05-34a.51.51,0,0,1,.09-.68.43.43,0,0,1,.63.1l23.05,34a.52.52,0,0,1-.09.69A.46.46,0,0,1,353.44,253.17Z" style="fill:#ebebeb"></path><path d="M353.44,272.38a.44.44,0,0,1-.36-.2l-23.05-34a.51.51,0,0,1,.09-.68.43.43,0,0,1,.63.1l23.05,34a.52.52,0,0,1-.09.69A.46.46,0,0,1,353.44,272.38Z" style="fill:#ebebeb"></path><path d="M353.44,291.59a.44.44,0,0,1-.36-.2l-23.05-34a.51.51,0,0,1,.09-.68.43.43,0,0,1,.63.1l23.05,34a.52.52,0,0,1-.09.69A.46.46,0,0,1,353.44,291.59Z" style="fill:#ebebeb"></path><path d="M353.2,309.6a.44.44,0,0,1-.36-.2L330,276.57a.52.52,0,0,1,.09-.69.41.41,0,0,1,.62.1l22.82,32.83a.52.52,0,0,1-.09.69A.41.41,0,0,1,353.2,309.6Z" style="fill:#ebebeb"></path><path d="M353.44,330H330.17a.47.47,0,0,1-.44-.49V102.39a.45.45,0,1,1,.89,0V295.06l.13.13,23.05,34a.52.52,0,0,1,0,.51A.43.43,0,0,1,353.44,330Zm-22.82-1h21.93l-21.93-32.38Z" style="fill:#ebebeb"></path><path d="M330.17,154.47a.39.39,0,0,1-.26-.1.51.51,0,0,1-.09-.68l23.39-34.14a.41.41,0,0,1,.62-.1.52.52,0,0,1,.09.69l-23.39,34.13A.44.44,0,0,1,330.17,154.47Z" style="fill:#ebebeb"></path><path d="M330.17,136.07a.43.43,0,0,1-.26-.09.53.53,0,0,1-.1-.69l23.06-34.56a.42.42,0,0,1,.62-.11.51.51,0,0,1,.1.68l-23,34.57A.45.45,0,0,1,330.17,136.07Z" style="fill:#ebebeb"></path><path d="M330.17,174a.43.43,0,0,1-.26-.09.52.52,0,0,1-.1-.68l23.06-34.57a.41.41,0,0,1,.62-.1.51.51,0,0,1,.1.68l-23,34.56A.43.43,0,0,1,330.17,174Z" style="fill:#ebebeb"></path><path d="M330.17,193.48a.43.43,0,0,1-.26-.09.53.53,0,0,1-.1-.69l23.39-35.07a.43.43,0,0,1,.63-.1.52.52,0,0,1,.1.68l-23.39,35.07A.45.45,0,0,1,330.17,193.48Z" style="fill:#ebebeb"></path><path d="M330.17,213a.43.43,0,0,1-.26-.09.52.52,0,0,1-.1-.68l23.06-34.57a.41.41,0,0,1,.62-.1.51.51,0,0,1,.1.68l-23,34.56A.43.43,0,0,1,330.17,213Z" style="fill:#ebebeb"></path><path d="M330.17,232.49a.43.43,0,0,1-.26-.09.53.53,0,0,1-.1-.69l23.06-34.56a.42.42,0,0,1,.62-.11.52.52,0,0,1,.1.69l-23,34.56A.45.45,0,0,1,330.17,232.49Z" style="fill:#ebebeb"></path><path d="M330.17,252a.43.43,0,0,1-.26-.09.52.52,0,0,1-.1-.68l23.06-34.57a.41.41,0,0,1,.62-.1.51.51,0,0,1,.1.68l-23,34.56A.45.45,0,0,1,330.17,252Z" style="fill:#ebebeb"></path><path d="M330.17,271.5a.43.43,0,0,1-.26-.09.53.53,0,0,1-.1-.69l23.06-34.56a.42.42,0,0,1,.62-.11.51.51,0,0,1,.1.68l-23,34.57A.45.45,0,0,1,330.17,271.5Z" style="fill:#ebebeb"></path><path d="M330.17,291a.43.43,0,0,1-.26-.09.52.52,0,0,1-.1-.68l23.06-34.57a.41.41,0,0,1,.62-.1.51.51,0,0,1,.1.68l-23,34.56A.45.45,0,0,1,330.17,291Z" style="fill:#ebebeb"></path><path d="M330.17,310.51a.43.43,0,0,1-.26-.09.53.53,0,0,1-.1-.69l23.06-34.56a.42.42,0,0,1,.62-.11.51.51,0,0,1,.1.68l-23,34.57A.45.45,0,0,1,330.17,310.51Z" style="fill:#ebebeb"></path><path d="M330.17,330a.43.43,0,0,1-.26-.09.52.52,0,0,1-.1-.68l23.06-34.57a.41.41,0,0,1,.62-.1.51.51,0,0,1,.1.68l-23,34.56A.45.45,0,0,1,330.17,330Z" style="fill:#ebebeb"></path><path d="M349.52,70.4l-.8-.89,11-9.83H360c23.45,0,47.33,0,71.22.07s47.77.08,71.21.08V61C479,61,455.06,61,431.18,61s-47.62-.08-71-.08Z" style="fill:#ebebeb"></path><path d="M352.57,73.59a.62.62,0,0,1-.45-.2.61.61,0,0,1,.05-.85L366.31,60a.6.6,0,0,1,.8,0l13,12.18L392.75,60a.6.6,0,0,1,.81,0l13.83,12.2L420.11,60a.6.6,0,0,1,.81,0l13.73,12.2L447.71,60a.6.6,0,0,1,.8,0l13.94,12.2L475,60a.6.6,0,0,1,.82,0L489,72.17,502,60a.6.6,0,0,1,.8,0l14.36,12.56a.6.6,0,1,1-.78.9l-13.95-12.2-13,12.18a.6.6,0,0,1-.82,0L475.38,61.25,462.89,73.42a.61.61,0,0,1-.81,0L448.13,61.23l-13.06,12.2a.61.61,0,0,1-.81,0l-13.72-12.2L407.82,73.42a.59.59,0,0,1-.8,0l-13.84-12.2-12.6,12.18a.61.61,0,0,1-.83,0L366.7,61.24,353,73.44A.6.6,0,0,1,352.57,73.59Z" style="fill:#ebebeb"></path><rect x="266.77" y="62.32" width="24.07" height="28.34" style="fill:#e0e0e0"></rect><path d="M274.53,90.66c-.17,0-.31-6.35-.31-14.17s.14-14.17.31-14.17.32,6.34.32,14.17S274.71,90.66,274.53,90.66Z" style="fill:#ebebeb"></path><path d="M283.8,90.66c-.17,0-.31-6.35-.31-14.17s.14-14.17.31-14.17.31,6.34.31,14.17S284,90.66,283.8,90.66Z" style="fill:#ebebeb"></path><path d="M517.05,73.8H264.5V69.65H517.05ZM265.1,73.2H516.45v-3H265.1Z" style="fill:#ebebeb"></path><path d="M349.12,73.8a.29.29,0,0,1-.17-.06l-13.35-9a.29.29,0,0,1-.08-.42.3.3,0,0,1,.41-.08l13.36,9a.3.3,0,0,1,.08.41A.3.3,0,0,1,349.12,73.8Z" style="fill:#ebebeb"></path><path d="M349.12,73.73a.3.3,0,0,1-.3-.26l-1.14-8.89-13.17,9.1a.3.3,0,0,1-.33,0,.31.31,0,0,1-.14-.29l4.9-38.33v0l.61-4.79v0l.72-5.58v0l.59-4.63a.31.31,0,0,1,.3-.27h1.11a.31.31,0,0,1,.3.27l2.52,19.68a0,0,0,0,1,0,0l.63,4.93v0l.66,5.15a.14.14,0,0,1,0,.06.26.26,0,0,1,0,.15l3,23.37a.3.3,0,0,1-.26.33ZM336.83,56.31l-2.11,16.5,12-8.32-10.65.23h0a.29.29,0,0,1-.28-.2.29.29,0,0,1,.09-.34l10-7.87Zm9.82.2L337,64.1l10.59-.23Zm-9-.8h8.94l-.68-5.24Zm0-5.45-.66,5.17,8.16-5.17Zm.77-.6h7.4l-.57-4.45Zm-.1-4.67-.56,4.38L344.43,45Zm.67-.59h6.15l-.52-4.11Zm0-4.36-.51,4,5.49-4Zm.59-.59h5L344,35.72Zm0-4.05L339,39.05l4.36-3.62Zm.41-.6,4,0-.5-3.85Zm.2-4.21-.46,3.61,3.27-3.59Zm.23-.6,2.91,0-.57-4.42Zm.49-5-.48,3.72,2-3.76Zm.59-4.64-.51,4,1.61-.05-.51-4Z" style="fill:#ebebeb"></path><path d="M343.61,30.65a.3.3,0,0,1-.26-.16l-3-5.66a.31.31,0,0,1,.12-.41.3.3,0,0,1,.41.13l3,5.66a.3.3,0,0,1-.13.4A.23.23,0,0,1,343.61,30.65Z" style="fill:#ebebeb"></path><path d="M344.23,35.46a.33.33,0,0,1-.23-.1l-4.35-4.78a.3.3,0,0,1,0-.42.29.29,0,0,1,.42,0L344.45,35a.3.3,0,0,1,0,.42A.32.32,0,0,1,344.23,35.46Z" style="fill:#ebebeb"></path><path d="M344.8,40.11a.32.32,0,0,1-.19-.07l-5.55-4.61a.3.3,0,1,1,.39-.46L345,39.58a.3.3,0,0,1,0,.42A.31.31,0,0,1,344.8,40.11Z" style="fill:#ebebeb"></path><path d="M345.43,45.06a.27.27,0,0,1-.17-.06l-6.77-5a.3.3,0,0,1-.07-.42.3.3,0,0,1,.42-.06l6.77,5a.29.29,0,0,1,.06.41A.29.29,0,0,1,345.43,45.06Z" style="fill:#ebebeb"></path><path d="M346.1,50.32a.24.24,0,0,1-.16,0L337.86,45a.31.31,0,0,1-.08-.42.3.3,0,0,1,.41-.08l8.07,5.26a.31.31,0,0,1,.09.42A.31.31,0,0,1,346.1,50.32Z" style="fill:#ebebeb"></path><path d="M346.88,56.37a.32.32,0,0,1-.16,0l-9.55-6.06a.3.3,0,0,1-.09-.41.3.3,0,0,1,.41-.09l9.55,6a.29.29,0,0,1,.09.41A.29.29,0,0,1,346.88,56.37Z" style="fill:#ebebeb"></path><path d="M347.76,64.47a.32.32,0,0,1-.18-.06l-11.1-8.1a.3.3,0,0,1,.35-.48l11.1,8.1a.29.29,0,0,1,.07.42A.3.3,0,0,1,347.76,64.47Z" style="fill:#ebebeb"></path><path d="M341.73,85.48a.3.3,0,0,1-.3-.3V19.27a.31.31,0,0,1,.3-.3.3.3,0,0,1,.3.3V85.18A.29.29,0,0,1,341.73,85.48Z" style="fill:#ebebeb"></path><rect x="330.16" y="160.43" width="23.4" height="2.39" style="fill:#ebebeb"></rect><rect x="330.16" y="212.28" width="23.28" height="2.39" style="fill:#ebebeb"></rect><rect x="330.16" y="266.87" width="23.28" height="2.39" style="fill:#ebebeb"></rect><polygon points="268.57 65.32 268.26 64.81 341.78 19.45 341.91 19.49 461.79 60.1 461.6 60.67 341.86 20.11 268.57 65.32" style="fill:#ebebeb"></polygon><polygon points="333.45 69.91 333.15 69.91 333.15 65.22 264.95 65.22 264.95 69.91 264.65 69.91 264.65 64.92 333.45 64.92 333.45 69.91" style="fill:#ebebeb"></polygon><rect x="268.27" y="65.07" width="0.3" height="4.71" style="fill:#ebebeb"></rect><rect x="271.36" y="65.07" width="0.3" height="4.71" style="fill:#ebebeb"></rect><rect x="274.45" y="65.07" width="0.3" height="4.71" style="fill:#ebebeb"></rect><rect x="277.55" y="65.07" width="0.3" height="4.71" style="fill:#ebebeb"></rect><rect x="280.64" y="65.07" width="0.3" height="4.71" style="fill:#ebebeb"></rect><rect x="283.73" y="65.07" width="0.3" height="4.71" style="fill:#ebebeb"></rect><rect x="286.83" y="65.07" width="0.3" height="4.71" style="fill:#ebebeb"></rect><rect x="289.92" y="65.07" width="0.3" height="4.71" style="fill:#ebebeb"></rect><rect x="293.01" y="65.07" width="0.3" height="4.71" style="fill:#ebebeb"></rect><rect x="296.1" y="65.07" width="0.3" height="4.71" style="fill:#ebebeb"></rect><rect x="299.2" y="65.07" width="0.3" height="4.71" style="fill:#ebebeb"></rect><rect x="302.29" y="65.07" width="0.3" height="4.71" style="fill:#ebebeb"></rect><rect x="305.38" y="65.07" width="0.3" height="4.71" style="fill:#ebebeb"></rect><rect x="308.48" y="65.07" width="0.3" height="4.71" style="fill:#ebebeb"></rect><rect x="311.57" y="65.07" width="0.3" height="4.71" style="fill:#ebebeb"></rect><rect x="314.66" y="65.07" width="0.3" height="4.71" style="fill:#ebebeb"></rect><rect x="317.75" y="65.07" width="0.3" height="4.71" style="fill:#ebebeb"></rect><rect x="320.85" y="65.07" width="0.3" height="4.71" style="fill:#ebebeb"></rect><rect x="323.94" y="65.07" width="0.3" height="4.71" style="fill:#ebebeb"></rect><rect x="327.03" y="65.07" width="0.3" height="4.71" style="fill:#ebebeb"></rect><rect x="330.12" y="65.07" width="0.3" height="4.71" style="fill:#ebebeb"></rect><rect x="310.5" y="69.95" width="6.26" height="3.54" style="fill:#ebebeb"></rect><rect x="323.84" y="69.95" width="6.26" height="3.54" style="fill:#ebebeb"></rect><rect x="359.11" y="69.95" width="6.26" height="3.54" style="fill:#ebebeb"></rect><rect x="377.08" y="69.95" width="6.26" height="3.54" style="fill:#ebebeb"></rect><rect x="395.04" y="69.95" width="6.26" height="3.54" style="fill:#ebebeb"></rect><rect x="413.01" y="69.95" width="6.26" height="3.54" style="fill:#ebebeb"></rect><rect x="430.97" y="69.95" width="6.26" height="3.54" style="fill:#ebebeb"></rect><rect x="448.94" y="69.95" width="6.26" height="3.54" style="fill:#ebebeb"></rect><rect x="466.9" y="69.95" width="6.26" height="3.54" style="fill:#ebebeb"></rect><rect x="484.86" y="69.95" width="6.26" height="3.54" style="fill:#ebebeb"></rect><rect x="502.83" y="69.95" width="6.26" height="3.54" style="fill:#ebebeb"></rect><rect x="296.79" y="69.95" width="6.26" height="3.54" style="fill:#ebebeb"></rect><rect x="283.09" y="69.95" width="6.26" height="3.54" style="fill:#ebebeb"></rect><rect x="269.39" y="69.95" width="6.26" height="3.54" style="fill:#ebebeb"></rect><rect x="271.52" y="42.23" width="76.93" height="0.6" transform="translate(33.85 189.68) rotate(-35.87)" style="fill:#ebebeb"></rect><path d="M519.8,74.73a2.62,2.62,0,1,1-2.61-2.62A2.61,2.61,0,0,1,519.8,74.73Z" style="fill:#ebebeb"></path><path d="M509.09,74.73a2.62,2.62,0,1,1-2.61-2.62A2.61,2.61,0,0,1,509.09,74.73Z" style="fill:#ebebeb"></path><rect x="502.4" y="69.25" width="14.79" height="4.73" style="fill:#ebebeb"></rect><rect x="340.72" y="18.72" width="2.2" height="2.2" style="fill:#ebebeb"></rect><path d="M343.51,21.52h-3.39V18.13h3.39Zm-2.19-1.19h1v-1h-1Z" style="fill:#ebebeb"></path><rect x="332.52" y="73.59" width="6.79" height="23.08" style="fill:#ebebeb"></rect><rect x="327.16" y="87.38" width="5.75" height="9.58" style="fill:#ebebeb"></rect><rect x="327.48" y="100.6" width="29.41" height="4.31" style="fill:#ebebeb"></rect><rect x="330.04" y="96.43" width="23.69" height="2.39" style="fill:#ebebeb"></rect><rect x="331.32" y="98.42" width="21.21" height="2.2" style="fill:#ebebeb"></rect><path d="M351.38,73.44a3.4,3.4,0,0,1,2.8,3.57v7.73H338.93l.19-11.24Z" style="fill:#f5f5f5"></path><path d="M351.38,73.44a4.81,4.81,0,0,1-.88.08l-2.49.09-8.89.16.27-.26c-.05,3.3-.1,7.13-.15,11.23l-.31-.31h2.23l13,0-.26.27c0-1.9,0-3.64,0-5.2,0-.77,0-1.49,0-2.17a4.86,4.86,0,0,0-.19-1.76,3.26,3.26,0,0,0-1.59-1.82c-.52-.26-.84-.32-.83-.35a1.68,1.68,0,0,1,.9.2,3.32,3.32,0,0,1,1.81,1.87,4.82,4.82,0,0,1,.28,1.86c0,.68,0,1.4,0,2.17,0,1.56,0,3.3.05,5.2V85h-.27l-13,0h-2.55v-.32c.09-4.1.17-7.93.24-11.23v-.26h.26l8.91.06,2.48.06A3.14,3.14,0,0,1,351.38,73.44Z" style="fill:#e0e0e0"></path><path d="M349.21,76.47c.11.13-1.15,1.35-2.81,2.72s-3.1,2.38-3.21,2.25,1.15-1.35,2.81-2.73S349.1,76.34,349.21,76.47Z" style="fill:#e0e0e0"></path><path d="M349.65,78.74c.11.13-.77,1.06-2,2.08s-2.26,1.73-2.37,1.6.77-1.06,2-2.08S349.54,78.61,349.65,78.74Z" style="fill:#e0e0e0"></path><path d="M353.69,96.87c0,.17-5.43.31-12.13.31s-12.13-.14-12.13-.31,5.43-.31,12.13-.31S353.69,96.7,353.69,96.87Z" style="fill:#e0e0e0"></path><path d="M353.69,98.73c0,.17-5.34.31-11.92.31s-11.92-.14-11.92-.31,5.34-.31,11.92-.31S353.69,98.55,353.69,98.73Z" style="fill:#e0e0e0"></path><path d="M354.49,100.6c0,.17-5.34.31-11.92.31s-11.92-.14-11.92-.31,5.33-.31,11.92-.31S354.49,100.43,354.49,100.6Z" style="fill:#e0e0e0"></path><rect x="455.57" y="58.82" width="8.46" height="1.61" style="fill:#ebebeb"></rect><rect x="108.07" y="124.84" width="151.02" height="16.53" style="fill:#f5f5f5"></rect><rect x="217.98" y="137.93" width="18.12" height="203.34" style="fill:#f5f5f5"></rect><rect x="175.97" y="137.93" width="18.12" height="203.34" style="fill:#f5f5f5"></rect><path d="M79.26,149.46H266a1.25,1.25,0,0,0,0-2.5H79.26a1.25,1.25,0,0,0,0,2.5Z" style="fill:#f5f5f5"></path><path d="M79.26,165.52H266a1.25,1.25,0,0,0,0-2.5H79.26a1.25,1.25,0,0,0,0,2.5Z" style="fill:#f5f5f5"></path><path d="M79.26,181.54H266a1.25,1.25,0,0,0,0-2.5H79.26a1.25,1.25,0,0,0,0,2.5Z" style="fill:#f5f5f5"></path><path d="M79.26,197.57H266a1.25,1.25,0,0,0,0-2.5H79.26a1.25,1.25,0,0,0,0,2.5Z" style="fill:#f5f5f5"></path><path d="M79.26,213.59H266a1.25,1.25,0,0,0,0-2.5H79.26a1.25,1.25,0,0,0,0,2.5Z" style="fill:#f5f5f5"></path><path d="M79.26,229.61H266a1.25,1.25,0,0,0,0-2.5H79.26a1.25,1.25,0,0,0,0,2.5Z" style="fill:#f5f5f5"></path><path d="M79.26,245.64H266a1.25,1.25,0,0,0,0-2.5H79.26a1.25,1.25,0,0,0,0,2.5Z" style="fill:#f5f5f5"></path><path d="M79.26,261.66H266a1.25,1.25,0,0,0,0-2.5H79.26a1.25,1.25,0,0,0,0,2.5Z" style="fill:#f5f5f5"></path><path d="M79.26,277.68H266a1.25,1.25,0,0,0,0-2.5H79.26a1.25,1.25,0,0,0,0,2.5Z" style="fill:#f5f5f5"></path><path d="M79.26,293.7H266a1.25,1.25,0,0,0,0-2.5H79.26a1.25,1.25,0,0,0,0,2.5Z" style="fill:#f5f5f5"></path><path d="M79.26,309.73H266a1.25,1.25,0,0,0,0-2.5H79.26a1.25,1.25,0,0,0,0,2.5Z" style="fill:#f5f5f5"></path><path d="M79.26,325.75H266a1.25,1.25,0,0,0,0-2.5H79.26a1.25,1.25,0,0,0,0,2.5Z" style="fill:#f5f5f5"></path><path d="M92.33,148.61V338.48a1.25,1.25,0,0,0,2.5,0V148.61a1.25,1.25,0,0,0-2.5,0Z" style="fill:#f5f5f5"></path><path d="M100,148.61V338.48a1.25,1.25,0,0,0,2.5,0V148.61a1.25,1.25,0,0,0-2.5,0Z" style="fill:#f5f5f5"></path><path d="M107.65,130.18v208.3a1.25,1.25,0,0,0,2.5,0V130.18a1.25,1.25,0,0,0-2.5,0Z" style="fill:#f5f5f5"></path><path d="M147.59,137.48v201a1.25,1.25,0,0,0,2.5,0v-201a1.25,1.25,0,0,0-2.5,0Z" style="fill:#f5f5f5"></path><path d="M153.06,137.48v201a1.25,1.25,0,0,0,2.5,0v-201a1.25,1.25,0,0,0-2.5,0Z" style="fill:#f5f5f5"></path><path d="M205.59,138.34V341.4a1.25,1.25,0,0,0,2.5,0V138.34a1.25,1.25,0,0,0-2.5,0Z" style="fill:#f5f5f5"></path><path d="M246.08,140.1v200a1.25,1.25,0,0,0,2.5,0v-200a1.25,1.25,0,0,0-2.5,0Z" style="fill:#f5f5f5"></path><path d="M256.42,140.1v200a1.25,1.25,0,0,0,2.5,0v-200a1.25,1.25,0,0,0-2.5,0Z" style="fill:#f5f5f5"></path><rect x="427.66" y="101.82" width="143.2" height="14.23" style="fill:#f5f5f5"></rect><rect x="531.88" y="114.93" width="17.18" height="223.38" style="fill:#f5f5f5"></rect><rect x="492.05" y="114.93" width="17.18" height="223.38" style="fill:#f5f5f5"></rect><path d="M400.34,123.19h177a1.25,1.25,0,0,0,0-2.5h-177a1.25,1.25,0,0,0,0,2.5Z" style="fill:#f5f5f5"></path><path d="M400.34,137h177a1.25,1.25,0,0,0,0-2.5h-177a1.25,1.25,0,0,0,0,2.5Z" style="fill:#f5f5f5"></path><path d="M400.34,150.81h177a1.25,1.25,0,0,0,0-2.5h-177a1.25,1.25,0,0,0,0,2.5Z" style="fill:#f5f5f5"></path><path d="M400.34,164.6h177a1.25,1.25,0,0,0,0-2.5h-177a1.25,1.25,0,0,0,0,2.5Z" style="fill:#f5f5f5"></path><path d="M400.34,178.39h177a1.25,1.25,0,0,0,0-2.5h-177a1.25,1.25,0,0,0,0,2.5Z" style="fill:#f5f5f5"></path><path d="M400.34,192.18h177a1.25,1.25,0,0,0,0-2.5h-177a1.25,1.25,0,0,0,0,2.5Z" style="fill:#f5f5f5"></path><path d="M400.34,206h177a1.25,1.25,0,0,0,0-2.5h-177a1.25,1.25,0,0,0,0,2.5Z" style="fill:#f5f5f5"></path><path d="M400.34,219.77h177a1.25,1.25,0,0,0,0-2.5h-177a1.25,1.25,0,0,0,0,2.5Z" style="fill:#f5f5f5"></path><path d="M400.34,233.56h177a1.25,1.25,0,0,0,0-2.5h-177a1.25,1.25,0,0,0,0,2.5Z" style="fill:#f5f5f5"></path><path d="M400.34,247.35h177a1.25,1.25,0,0,0,0-2.5h-177a1.25,1.25,0,0,0,0,2.5Z" style="fill:#f5f5f5"></path><path d="M400.34,261.15h177a1.25,1.25,0,0,0,0-2.5h-177a1.25,1.25,0,0,0,0,2.5Z" style="fill:#f5f5f5"></path><path d="M400.34,274.94h177a1.25,1.25,0,0,0,0-2.5h-177a1.25,1.25,0,0,0,0,2.5Z" style="fill:#f5f5f5"></path><path d="M400.34,292.52h177a1.25,1.25,0,0,0,0-2.5h-177a1.25,1.25,0,0,0,0,2.5Z" style="fill:#f5f5f5"></path><path d="M400.34,310.1h177a1.25,1.25,0,0,0,0-2.5h-177a1.25,1.25,0,0,0,0,2.5Z" style="fill:#f5f5f5"></path><path d="M400.34,327.69h177a1.25,1.25,0,0,0,0-2.5h-177a1.25,1.25,0,0,0,0,2.5Z" style="fill:#f5f5f5"></path><path d="M412.66,126.67V335.25a1.25,1.25,0,0,0,2.5,0V126.67a1.25,1.25,0,0,0-2.5,0Z" style="fill:#f5f5f5"></path><path d="M419.93,126.67V335.25a1.25,1.25,0,0,0,2.5,0V126.67a1.25,1.25,0,0,0-2.5,0Z" style="fill:#f5f5f5"></path><path d="M427.19,106.42V335.25a1.25,1.25,0,0,0,2.5,0V106.42a1.25,1.25,0,0,0-2.5,0Z" style="fill:#f5f5f5"></path><path d="M465.07,114.43V335.25a1.25,1.25,0,0,0,2.5,0V114.43a1.25,1.25,0,0,0-2.5,0Z" style="fill:#f5f5f5"></path><path d="M470.26,114.43V335.25a1.25,1.25,0,0,0,2.5,0V114.43a1.25,1.25,0,0,0-2.5,0Z" style="fill:#f5f5f5"></path><path d="M520.06,115.39V338.45a1.25,1.25,0,0,0,2.5,0V115.39a1.25,1.25,0,0,0-2.5,0Z" style="fill:#f5f5f5"></path><path d="M558.46,117.32V337.06a1.25,1.25,0,0,0,2.5,0V117.32a1.25,1.25,0,0,0-2.5,0Z" style="fill:#f5f5f5"></path><path d="M568.27,117.32V337.06a1.25,1.25,0,0,0,2.5,0V117.32a1.25,1.25,0,0,0-2.5,0Z" style="fill:#f5f5f5"></path><rect x="680.56" y="168.77" width="13.04" height="169.58" style="fill:#f5f5f5"></rect><rect x="650.32" y="168.77" width="13.04" height="169.58" style="fill:#f5f5f5"></rect><path d="M580.7,175.34H715.1a1.25,1.25,0,0,0,0-2.5H580.7a1.25,1.25,0,0,0,0,2.5Z" style="fill:#f5f5f5"></path><path d="M580.7,185.83H715.1a1.25,1.25,0,0,0,0-2.5H580.7a1.25,1.25,0,0,0,0,2.5Z" style="fill:#f5f5f5"></path><path d="M580.7,196.31H715.1a1.25,1.25,0,0,0,0-2.5H580.7a1.25,1.25,0,0,0,0,2.5Z" style="fill:#f5f5f5"></path><path d="M580.7,206.78H715.1a1.25,1.25,0,0,0,0-2.5H580.7a1.25,1.25,0,0,0,0,2.5Z" style="fill:#f5f5f5"></path><path d="M580.7,217.25H715.1a1.25,1.25,0,0,0,0-2.5H580.7a1.25,1.25,0,0,0,0,2.5Z" style="fill:#f5f5f5"></path><path d="M580.7,227.72H715.1a1.25,1.25,0,0,0,0-2.5H580.7a1.25,1.25,0,0,0,0,2.5Z" style="fill:#f5f5f5"></path><path d="M580.7,238.19H715.1a1.25,1.25,0,0,0,0-2.5H580.7a1.25,1.25,0,0,0,0,2.5Z" style="fill:#f5f5f5"></path><path d="M580.7,248.66H715.1a1.25,1.25,0,0,0,0-2.5H580.7a1.25,1.25,0,0,0,0,2.5Z" style="fill:#f5f5f5"></path><path d="M580.7,259.13H715.1a1.25,1.25,0,0,0,0-2.5H580.7a1.25,1.25,0,0,0,0,2.5Z" style="fill:#f5f5f5"></path><path d="M580.7,269.6H715.1a1.25,1.25,0,0,0,0-2.5H580.7a1.25,1.25,0,0,0,0,2.5Z" style="fill:#f5f5f5"></path><path d="M580.7,280.07H715.1a1.25,1.25,0,0,0,0-2.5H580.7a1.25,1.25,0,0,0,0,2.5Z" style="fill:#f5f5f5"></path><path d="M580.7,290.54H715.1a1.25,1.25,0,0,0,0-2.5H580.7a1.25,1.25,0,0,0,0,2.5Z" style="fill:#f5f5f5"></path><path d="M580.7,303.89H715.1a1.25,1.25,0,0,0,0-2.5H580.7a1.25,1.25,0,0,0,0,2.5Z" style="fill:#f5f5f5"></path><path d="M580.7,317.23H715.1a1.25,1.25,0,0,0,0-2.5H580.7a1.25,1.25,0,0,0,0,2.5Z" style="fill:#f5f5f5"></path><path d="M580.7,330.58H715.1a1.25,1.25,0,0,0,0-2.5H580.7a1.25,1.25,0,0,0,0,2.5Z" style="fill:#f5f5f5"></path><path d="M589.76,177.68V336a1.25,1.25,0,0,0,2.5,0V177.68a1.25,1.25,0,0,0-2.5,0Z" style="fill:#f5f5f5"></path><path d="M595.27,177.68V336a1.25,1.25,0,0,0,2.5,0V177.68a1.25,1.25,0,0,0-2.5,0Z" style="fill:#f5f5f5"></path><path d="M600.79,162.31V336a1.25,1.25,0,0,0,2.5,0V162.31a1.25,1.25,0,0,0-2.5,0Z" style="fill:#f5f5f5"></path><path d="M629.54,168.39V336a1.25,1.25,0,0,0,2.5,0V168.39a1.25,1.25,0,0,0-2.5,0Z" style="fill:#f5f5f5"></path><path d="M633.48,168.39V336a1.25,1.25,0,0,0,2.5,0V168.39a1.25,1.25,0,0,0-2.5,0Z" style="fill:#f5f5f5"></path><path d="M671.29,169.12V338.45a1.25,1.25,0,0,0,2.5,0V169.12a1.25,1.25,0,0,0-2.5,0Z" style="fill:#f5f5f5"></path><path d="M700.44,170.58V337.39a1.25,1.25,0,0,0,2.5,0V170.58a1.25,1.25,0,0,0-2.5,0Z" style="fill:#f5f5f5"></path><path d="M707.88,170.58V337.39a1.25,1.25,0,0,0,2.5,0V170.58a1.25,1.25,0,0,0-2.5,0Z" style="fill:#f5f5f5"></path><polygon points="574.28 458.51 571.86 445.28 582.22 430.74 607.49 426.37 625.52 442.18 629.2 451.38 628.08 459.35 574.28 458.51" style="fill:#f5f5f5"></polygon><polygon points="582.22 430.74 602.62 437.7 601.11 458.56 574.21 458.68 571.86 445.28 582.22 430.74" style="fill:#ebebeb"></polygon><path d="M601.11,458.56l2.79-20.84s8.1,0,8.1.13,8.79,5.79,8.79,5.79l1.17,15Z" style="fill:#e0e0e0"></path><polygon points="625.52 442.18 621.8 443.33 621.96 458.68 628.15 458.78 629.2 451.38 625.52 442.18" style="fill:#e0e0e0"></polygon><polygon points="535.44 458.8 534.19 451.98 539.53 444.47 552.58 442.21 561.88 450.38 563.78 455.12 563.2 459.23 535.44 458.8" style="fill:#f5f5f5"></polygon><polygon points="539.53 444.47 550.06 448.06 549.28 458.83 535.4 458.89 534.19 451.98 539.53 444.47" style="fill:#ebebeb"></polygon><path d="M549.28,458.83l1.45-10.76s4.17,0,4.17.07,4.54,3,4.54,3l.6,7.76Z" style="fill:#e0e0e0"></path><polygon points="561.88 450.38 559.96 450.97 560.04 458.89 563.24 458.94 563.78 455.12 561.88 450.38" style="fill:#e0e0e0"></polygon><polygon points="121.39 462.63 120.14 455.81 125.49 448.3 138.53 446.05 147.84 454.21 149.74 458.96 149.16 463.07 121.39 462.63" style="fill:#f5f5f5"></polygon><polygon points="125.49 448.3 136.02 451.9 135.24 462.66 121.35 462.72 120.14 455.81 125.49 448.3" style="fill:#ebebeb"></polygon><path d="M135.24,462.66l1.44-10.76s4.18,0,4.18.07,4.53,3,4.53,3l.61,7.76Z" style="fill:#e0e0e0"></path><polygon points="147.84 454.21 145.92 454.8 146 462.72 149.19 462.78 149.74 458.96 147.84 454.21" style="fill:#e0e0e0"></polygon><polygon points="152.83 449.4 152.15 445.65 155.08 441.54 162.23 440.3 167.34 444.77 168.38 447.38 168.06 449.63 152.83 449.4" style="fill:#f5f5f5"></polygon><polygon points="155.08 441.54 160.85 443.51 160.43 449.41 152.81 449.44 152.15 445.65 155.08 441.54" style="fill:#ebebeb"></polygon><path d="M160.43,449.41l.79-5.9s2.29,0,2.29,0,2.49,1.64,2.49,1.64l.33,4.26Z" style="fill:#e0e0e0"></path><polygon points="167.34 444.77 166.28 445.1 166.33 449.44 168.08 449.47 168.38 447.38 167.34 444.77" style="fill:#e0e0e0"></polygon><polygon points="610.67 457.92 608.57 442.85 621.4 424.19 653.36 418.11 676.56 437.79 681.42 449.38 680.24 458.78 610.67 457.92" style="fill:#f5f5f5"></polygon><polygon points="621.4 424.19 647.42 432.59 646.03 458.36 610.67 457.92 608.57 442.85 621.4 424.19" style="fill:#ebebeb"></polygon><path d="M646,458.36l3-25.79s10.26-.1,10.26,0,11.28,7.16,11.28,7.16l1.79,19Z" style="fill:#e0e0e0"></path><polygon points="676.56 437.79 671.87 439.31 672.38 458.78 680.24 458.78 681.42 449.38 676.56 437.79" style="fill:#e0e0e0"></polygon><path d="M131.78,99.75c.6-4.4-5.61-8-10.29-8.4-2.22-.18-4.54.16-6.65-.58-4.57-1.59-6.39-7.5-10.86-9.38-3.33-1.41-7.17-.15-10.4,1.47s-6.43,3.68-10,3.91c-3.14.2-6.55-1-9.3.57-2,1.15-3.12,3.51-5,4.9S65,93.89,62.67,94s-4.66.15-6.75,1.11-3.81,3.16-3.38,5.41Z" style="fill:#ebebeb"></path><path d="M700.24,112.8c.61-4.4-5.61-8-10.28-8.4-2.23-.18-4.54.16-6.65-.58-4.58-1.59-6.4-7.5-10.86-9.38-3.34-1.4-7.18-.15-10.41,1.48s-6.43,3.67-10,3.9c-3.14.2-6.56-1-9.31.57-2,1.15-3.12,3.51-5,4.9s-4.25,1.65-6.54,1.78-4.67.14-6.76,1.1-3.81,3.16-3.38,5.42Z" style="fill:#f5f5f5"></path><path d="M250.67,102.67c.43-3.07-3.91-5.59-7.16-5.85-1.55-.13-3.16.11-4.64-.4-3.18-1.11-4.45-5.23-7.56-6.54-2.33-1-5-.11-7.25,1s-4.48,2.56-7,2.72c-2.19.14-4.57-.67-6.48.4-1.43.79-2.18,2.44-3.49,3.41a8.37,8.37,0,0,1-4.57,1.24,12.81,12.81,0,0,0-4.7.76,3.73,3.73,0,0,0-2.36,3.78Z" style="fill:#f5f5f5"></path><path d="M199.75,62.8c.39-2.85-3.63-5.2-6.65-5.44-1.44-.12-2.94.1-4.31-.37-2.95-1-4.14-4.86-7-6.07-2.16-.91-4.64-.1-6.74.95s-4.16,2.38-6.49,2.53c-2,.13-4.24-.63-6,.37-1.33.74-2,2.26-3.25,3.16A7.63,7.63,0,0,1,155,59.08a11.87,11.87,0,0,0-4.37.72,3.45,3.45,0,0,0-2.19,3.5Z" style="fill:#ebebeb"></path><path d="M586.07,52.46c.39-2.85-3.63-5.2-6.65-5.44-1.44-.11-2.94.11-4.31-.37-3-1-4.14-4.85-7-6.07-2.16-.91-4.65-.1-6.74,1s-4.16,2.38-6.5,2.53c-2,.13-4.24-.62-6,.37-1.32.74-2,2.27-3.24,3.17a7.71,7.71,0,0,1-4.23,1.15,11.87,11.87,0,0,0-4.37.71A3.46,3.46,0,0,0,534.8,53Z" style="fill:#ebebeb"></path></g><g id="freepik--Floor--inject-189"><path d="M731.15,339.43c0,.15-159.47.26-356.13.26s-356.17-.11-356.17-.26,159.43-.26,356.17-.26S731.15,339.29,731.15,339.43Z" style="fill:#263238"></path></g><g id="freepik--Ground--inject-189"><path d="M404.4,353.6s24.33-37,29.29-44.34,40.68-27.1,46.84-27.1,42.16,37.2,47.09,37.26,34.76,34.18,34.76,34.18Z" style="fill:#6f4439"></path><path d="M363.12,355.63l9.69-10.36,19.79-4.68,17.67-7.65,23.46,12.33,9.15,16.18s8.12,2.14,9.64,2.66,17.71,2,17.71,2l10.86,5.68L352.65,372l6.31-7.79Z" style="fill:#ae7461"></path><path d="M488.86,371.83c0,.15-32.56.26-72.71.26s-72.72-.11-72.72-.26,32.55-.26,72.72-.26S488.86,371.69,488.86,371.83Z" style="fill:#263238"></path></g><g id="freepik--Wood--inject-189"><rect x="72.65" y="402.2" width="155.4" height="19.78" style="fill:#ae7461"></rect><path d="M130.61,422.18a34.14,34.14,0,0,0-5.18-3.24,29.75,29.75,0,0,0-14.3-2.75,46.24,46.24,0,0,0-14.32,3.31c-1.76.69-3.17,1.31-4.14,1.74a10.26,10.26,0,0,1-1.52.64,9.37,9.37,0,0,1,1.44-.82c.94-.49,2.32-1.17,4.08-1.9a43.36,43.36,0,0,1,14.43-3.49,28.88,28.88,0,0,1,14.5,2.94,21.54,21.54,0,0,1,3.79,2.45,10.67,10.67,0,0,1,.93.81A1.52,1.52,0,0,1,130.61,422.18Z" style="fill:#6f4439"></path><rect x="218.16" y="402.2" width="9.88" height="19.78" style="fill:#6f4439"></rect><path d="M217.68,402.71a2.38,2.38,0,0,1-.32.23l-1,.62c-.87.52-2.08,1.4-3.79,2.28a76,76,0,0,1-15,6.37,83.21,83.21,0,0,1-11,2.51c-2,.36-4.08.53-6.22.76-1.08.09-2.17.11-3.28.17l-1.67.07h-1.7a78.87,78.87,0,0,1-28.91-5.57,136.23,136.23,0,0,0-14.39-5.07,31.85,31.85,0,0,0-14-.72,73.37,73.37,0,0,0-12.26,3.78,78.64,78.64,0,0,1-10.71,3.42,27.49,27.49,0,0,1-9.26.58,19.36,19.36,0,0,1-6.69-2A14.74,14.74,0,0,1,74,407.48a9.24,9.24,0,0,1-1-1.16s.36.39,1.09,1.08a15.48,15.48,0,0,0,3.6,2.51,19.45,19.45,0,0,0,6.64,1.93,27.22,27.22,0,0,0,9.14-.65,79.84,79.84,0,0,0,10.64-3.47,73.1,73.1,0,0,1,12.33-3.84,32.17,32.17,0,0,1,14.21.7,134.69,134.69,0,0,1,14.45,5.07,78.78,78.78,0,0,0,28.73,5.58l1.68,0,1.66-.07c1.11-.05,2.19-.07,3.26-.16,2.14-.22,4.21-.38,6.2-.73a83.55,83.55,0,0,0,10.92-2.43,79,79,0,0,0,15-6.2c1.72-.85,2.95-1.7,3.83-2.19l1-.57A3,3,0,0,1,217.68,402.71Z" style="fill:#6f4439"></path><path d="M193.78,402a4.26,4.26,0,0,1-.8.74,16.8,16.8,0,0,1-2.45,1.63,19.37,19.37,0,0,1-18.77,0,17.49,17.49,0,0,1-2.46-1.64,3.78,3.78,0,0,1-.79-.73c.06-.08,1.23.93,3.42,2a20.15,20.15,0,0,0,18.43,0C192.55,403,193.72,402,193.78,402Z" style="fill:#6f4439"></path><path d="M218.38,417.3c0,.09-1.12-.33-3-.62a18.66,18.66,0,0,0-3.25-.21,20.48,20.48,0,0,0-3.95.51,19.06,19.06,0,0,0-6.55,3c-1.51,1.09-2.3,1.95-2.37,1.88s.15-.25.5-.65a13,13,0,0,1,1.64-1.53,16.82,16.82,0,0,1,2.82-1.8,18.81,18.81,0,0,1,3.84-1.41,18.11,18.11,0,0,1,4.06-.49,16,16,0,0,1,3.32.33,12.62,12.62,0,0,1,2.16.62A2.48,2.48,0,0,1,218.38,417.3Z" style="fill:#6f4439"></path><rect x="64.4" y="382.26" width="155.4" height="19.78" style="fill:#ae7461"></rect><path d="M122.36,402.24a34.31,34.31,0,0,0-5.17-3.24,29.82,29.82,0,0,0-14.31-2.75,46.31,46.31,0,0,0-14.32,3.31c-1.76.69-3.17,1.31-4.13,1.74a12.28,12.28,0,0,1-1.53.64,9.37,9.37,0,0,1,1.44-.82c.94-.49,2.33-1.17,4.08-1.9a43.36,43.36,0,0,1,14.44-3.49,28.86,28.86,0,0,1,14.49,2.94,22.09,22.09,0,0,1,3.8,2.45,11.89,11.89,0,0,1,.92.81C122.27,402.12,122.38,402.23,122.36,402.24Z" style="fill:#6f4439"></path><rect x="209.91" y="382.26" width="9.88" height="19.78" style="fill:#6f4439"></rect><path d="M209.43,382.77a1.74,1.74,0,0,1-.32.23l-1,.62c-.87.52-2.08,1.4-3.79,2.28a76,76,0,0,1-15,6.37,81.7,81.7,0,0,1-11,2.5c-2,.37-4.08.54-6.22.77-1.07.09-2.17.11-3.28.17l-1.67.07h-1.69a78.89,78.89,0,0,1-28.92-5.57,136.08,136.08,0,0,0-14.38-5.07,31.86,31.86,0,0,0-14-.72A72.79,72.79,0,0,0,96,388.19a78.75,78.75,0,0,1-10.72,3.42,27.43,27.43,0,0,1-9.25.58,19.57,19.57,0,0,1-6.7-2,15.23,15.23,0,0,1-3.58-2.61,9.55,9.55,0,0,1-1-1.16s.35.39,1.09,1.08A15.38,15.38,0,0,0,69.42,390a19.59,19.59,0,0,0,6.64,1.93,27.49,27.49,0,0,0,9.14-.65,79.37,79.37,0,0,0,10.64-3.47,73.39,73.39,0,0,1,12.33-3.84,32.16,32.16,0,0,1,14.21.7,134.69,134.69,0,0,1,14.45,5.07,78.78,78.78,0,0,0,28.73,5.58l1.68,0,1.67-.07c1.1-.06,2.19-.07,3.25-.16,2.14-.22,4.22-.38,6.2-.73a83.18,83.18,0,0,0,10.92-2.43,79,79,0,0,0,15-6.2c1.72-.85,2.95-1.7,3.84-2.19l1-.57Z" style="fill:#6f4439"></path><path d="M185.53,382.1a4.14,4.14,0,0,1-.79.73,16.65,16.65,0,0,1-2.46,1.64,19.35,19.35,0,0,1-18.76,0,16.91,16.91,0,0,1-2.46-1.64,4.05,4.05,0,0,1-.8-.73c.06-.08,1.23.93,3.43,2a20.13,20.13,0,0,0,18.42,0C184.3,383,185.47,382,185.53,382.1Z" style="fill:#6f4439"></path><path d="M210.14,397.36c0,.09-1.13-.33-3-.62a18.59,18.59,0,0,0-3.25-.21A20.48,20.48,0,0,0,200,397a18.88,18.88,0,0,0-6.55,3c-1.51,1.09-2.3,1.95-2.37,1.88s.15-.25.5-.65a14,14,0,0,1,1.65-1.53A16.7,16.7,0,0,1,196,398a17.68,17.68,0,0,1,7.9-1.9,16.09,16.09,0,0,1,3.33.33,11.39,11.39,0,0,1,2.15.62A2.65,2.65,0,0,1,210.14,397.36Z" style="fill:#6f4439"></path><path d="M212.42,402c0,.14-33.07.26-73.85.26s-73.86-.12-73.86-.26,33.06-.26,73.86-.26S212.42,401.89,212.42,402Z" style="fill:#6f4439"></path></g><g id="freepik--construction-truck-2--inject-189"><polygon points="161.54 199.77 187.89 186.87 195.75 174.5 213.69 164.75 242.25 155.44 267.19 164.75 279.96 178.15 295.83 177.6 318.47 184.73 338.16 197.66 348.4 211.61 161.54 199.77" style="fill:#ae7461"></polygon><path d="M118.74,192.3s11.31-1,12.17,13.39c.65,10.85,1.53,86.06,1.53,86.06H37.72V245.39s14.09-51.81,23.17-52.29C70.3,192.6,118.74,192.3,118.74,192.3Z" style="fill:#10B981"></path><path d="M353.74,271.8v11.55H157.24V271l137.15-11.46Z" style="fill:#10B981"></path><g style="opacity:0.30000000000000004"><path d="M353.74,271.8v11.55H157.24V271l137.15-11.46Z"></path></g><polygon points="44.05 314.23 388.99 314.23 388.99 301.8 366.19 280.24 44.05 280.24 44.05 314.23" style="fill:#10B981"></polygon><g style="opacity:0.30000000000000004"><polygon points="46.81 314.23 388.99 314.23 388.99 301.8 365.68 280.24 86.45 276.34 65.42 292.25 46.67 293.14 46.81 314.23"></polygon></g><ellipse cx="351.09" cy="312.5" rx="28.54" ry="29.15" style="fill:#263238"></ellipse><path d="M322.56,312a.22.22,0,0,0,0,.08c-.23,16.1,12.37,29.33,28.13,29.57S379.4,329,379.62,312.92v-.08Z" style="fill:#263238"></path><path d="M331.05,312.2A20,20,0,1,0,351.38,292,20.27,20.27,0,0,0,331.05,312.2Z" style="fill:#fafafa"></path><path d="M351.38,292a20.25,20.25,0,0,0-20.33,20.17l40.07.59A20.27,20.27,0,0,0,351.38,292Z" style="fill:#e0e0e0"></path><path d="M338.88,312.32A12.21,12.21,0,1,0,351.26,300,12.35,12.35,0,0,0,338.88,312.32Z" style="fill:#263238"></path><ellipse cx="286.55" cy="312.5" rx="28.54" ry="29.15" style="fill:#263238"></ellipse><path d="M258,312s0,.05,0,.08c-.22,16.1,12.37,29.33,28.13,29.57s28.72-12.63,28.95-28.73c0,0,0-.05,0-.08Z" style="fill:#263238"></path><path d="M266.52,312.2A20,20,0,1,0,286.84,292,20.27,20.27,0,0,0,266.52,312.2Z" style="fill:#fafafa"></path><path d="M286.84,292a20.24,20.24,0,0,0-20.32,20.17l40.07.59A20.29,20.29,0,0,0,286.84,292Z" style="fill:#e0e0e0"></path><path d="M274.35,312.32A12.2,12.2,0,1,0,286.73,300,12.34,12.34,0,0,0,274.35,312.32Z" style="fill:#263238"></path><polygon points="377.92 255.96 369.24 216.59 369.24 206.54 151.87 190.87 147.22 171.19 111.16 171.59 111.16 176.41 129.51 183.59 149.98 270.77 353.74 270.83 377.92 255.96" style="fill:#10B981"></polygon><path d="M155.65,202.68c0-.15,47.8,2.92,106.74,6.84s106.74,7.22,106.73,7.36S321.32,214,262.36,210,155.64,202.82,155.65,202.68Z" style="fill:#263238"></path><path d="M349,215.77c.15,0,2.76,11.38,5.84,25.49s5.46,25.58,5.32,25.61-2.75-11.38-5.83-25.5S348.88,215.8,349,215.77Z" style="fill:#263238"></path><path d="M323.07,213.82c.14,0,3.1,12.7,6.62,28.45s6.24,28.53,6.1,28.56-3.1-12.71-6.61-28.45S322.93,213.85,323.07,213.82Z" style="fill:#263238"></path><path d="M314.73,213.82c.14,0,3,12.71,6.35,28.45s6,28.53,5.83,28.56-3-12.7-6.34-28.45S314.59,213.85,314.73,213.82Z" style="fill:#263238"></path><path d="M288.43,211.82c.14,0,3.1,13.19,6.61,29.52s6.25,29.6,6.11,29.63-3.1-13.19-6.62-29.52S288.29,211.85,288.43,211.82Z" style="fill:#263238"></path><path d="M280.05,212.1c.14,0,3,13.13,6.37,29.38s6,29.46,5.85,29.49-3-13.13-6.36-29.38S279.91,212.13,280.05,212.1Z" style="fill:#263238"></path><path d="M255,209.29c.14,0,3.1,13.75,6.61,30.78s6.25,30.87,6.11,30.9-3.1-13.76-6.62-30.79S254.83,209.31,255,209.29Z" style="fill:#263238"></path><path d="M246.59,209.58c.14,0,3,13.69,6.37,30.64s6,30.72,5.85,30.75-3-13.69-6.36-30.65S246.45,209.6,246.59,209.58Z" style="fill:#263238"></path><path d="M220.18,207c.14,0,3.1,14.28,6.61,31.95s6.25,32,6.11,32.05-3.11-14.28-6.62-32S220,207,220.18,207Z" style="fill:#263238"></path><path d="M211.8,207.27c.14,0,3,14.21,6.36,31.8s6,31.87,5.86,31.9-3-14.21-6.37-31.8S211.66,207.3,211.8,207.27Z" style="fill:#263238"></path><path d="M185.14,204.8c.14,0,3.1,14.77,6.61,33S198,270.94,197.86,271s-3.1-14.76-6.62-33S185,204.83,185.14,204.8Z" style="fill:#263238"></path><path d="M176.76,205.11c.14,0,3,14.7,6.37,32.88s6,32.95,5.85,33-3-14.69-6.37-32.88S176.62,205.14,176.76,205.11Z" style="fill:#263238"></path><path d="M168.47,271s-.08-.28-.2-.81-.29-1.36-.49-2.33c-.43-2.08-1-5-1.76-8.6l-5.87-28.32c-2.31-11-4.41-21-5.93-28.32-.74-3.58-1.34-6.51-1.77-8.58-.19-1-.34-1.76-.46-2.34a4.19,4.19,0,0,1-.12-.83,7,7,0,0,1,.22.8c.14.58.33,1.35.56,2.32.46,2.07,1.12,5,1.93,8.56,1.6,7.23,3.76,17.22,6.08,28.28s4.33,21.09,5.72,28.36c.69,3.64,1.24,6.59,1.59,8.63.17,1,.3,1.76.4,2.35A3.91,3.91,0,0,1,168.47,271Z" style="fill:#263238"></path><polyline points="388.28 300.15 367.7 276.24 267.82 276.24 247.68 300.15 254.2 300.15 269.67 281.79 365.15 281.79 381.29 300.15 388.99 300.15" style="fill:#10B981"></polyline><path d="M389,300.15l-.49,0-1.46,0-5.74,0h0l0,0L365,281.89l.12.06-95.48.1.19-.09L254.4,300.32l-.08.09h-7.2l.36-.43,1.46-1.73,18.69-22.18.07-.09h.12l99.88.1h.07l.05.06,15.12,17.68,4,4.69,1,1.22c.23.27.34.42.34.42l-.37-.39-1.05-1.19-4.05-4.65-15.22-17.58.11.05-99.88.1.2-.09c-6,7.15-12.28,14.59-18.69,22.19l-1.45,1.73-.2-.43h6.52l-.2.09,15.47-18.35.08-.09h.12l95.48.1h.07l0,.05c7,8,12.51,14.31,16.08,18.41l-.06,0,5.74,0,1.46,0Z" style="fill:#263238"></path><path d="M264.46,280.24c0,.15-27.45.26-61.29.26s-61.3-.11-61.3-.26,27.44-.26,61.3-.26S264.46,280.1,264.46,280.24Z" style="fill:#263238"></path><rect x="244.54" y="288.64" width="5.68" height="29.04" transform="translate(494.77 606.31) rotate(180)" style="fill:#10B981"></rect><rect x="154.37" y="288.64" width="5.68" height="29.04" transform="translate(314.43 606.31) rotate(180)" style="fill:#10B981"></rect><rect x="171.36" y="277.25" width="68.2" height="33.52" rx="3.45" transform="translate(410.93 588.01) rotate(180)" style="fill:#e0e0e0"></rect><rect x="158.15" y="288.64" width="92.08" height="6.35" transform="translate(408.38 583.62) rotate(180)" style="fill:#10B981"></rect><rect x="154.47" y="310.76" width="95.75" height="6.91" transform="translate(404.7 628.44) rotate(180)" style="fill:#10B981"></rect><rect x="241.96" y="271.83" width="3.14" height="16.8" transform="translate(487.07 560.47) rotate(180)" style="fill:#10B981"></rect><rect x="164.61" y="271.83" width="3.14" height="16.8" transform="translate(332.35 560.47) rotate(180)" style="fill:#10B981"></rect><path d="M154.84,288.64c0-.15,21.37-.26,47.73-.26s47.75.11,47.75.26-21.38.26-47.75.26S154.84,288.78,154.84,288.64Z" style="fill:#263238"></path><path d="M154.84,317.94c0-.15,21.37-.26,47.73-.26s47.75.11,47.75.26-21.38.26-47.75.26S154.84,318.08,154.84,317.94Z" style="fill:#263238"></path><g style="opacity:0.30000000000000004"><path d="M230.8,283.2a2.81,2.81,0,1,0,2.81-2.86A2.84,2.84,0,0,0,230.8,283.2Z"></path></g><g style="opacity:0.30000000000000004"><polyline points="326.91 270.83 314.69 213.23 288.38 211.51 289.29 215.77 312.6 216.84 324.19 270.97"></polyline></g><g style="opacity:0.30000000000000004"><polygon points="349.05 215.54 360.18 266.87 357.52 268.5 346.96 219.15 324.02 218.1 323.07 213.82 349.05 215.54"></polygon></g><g style="opacity:0.30000000000000004"><polyline points="292.27 270.97 280.05 210.96 254.97 209.28 255.7 212.83 277.22 213.82 289.42 270.83"></polyline></g><g style="opacity:0.30000000000000004"><polyline points="258.81 270.97 246.24 208.73 220.18 206.97 220.91 210.51 243.41 211.59 255.62 270.97"></polyline></g><g style="opacity:0.30000000000000004"><polyline points="224.02 270.97 211.44 206.56 185.14 204.8 185.82 208.33 208.61 209.42 221.31 271.17"></polyline></g><g style="opacity:0.30000000000000004"><polyline points="188.98 270.97 176.55 204.15 154.4 202.39 155.08 205.92 173.72 207.01 186.33 270.69"></polyline></g><path d="M151.21,271.94c0-.14,45.34-.26,101.26-.26s101.27.12,101.27.26-45.33.26-101.27.26S151.21,272.09,151.21,271.94Z" style="fill:#263238"></path><path d="M244.29,317.68c-.14,0-.26-6.45-.26-14.4s.12-14.4.26-14.4.26,6.44.26,14.4S244.43,317.68,244.29,317.68Z" style="fill:#263238"></path><path d="M160,317.68c-.14,0-.26-6.45-.26-14.4s.12-14.4.26-14.4.26,6.44.26,14.4S160.12,317.68,160,317.68Z" style="fill:#263238"></path><ellipse cx="93.96" cy="315.52" rx="28.54" ry="29.15" style="fill:#263238"></ellipse><path d="M65.43,315v.08c-.23,16.09,12.36,29.33,28.12,29.56s28.72-12.63,29-28.72v-.08Z" style="fill:#263238"></path><path d="M73.93,315.22a20,20,0,1,0,20.32-20.17A20.27,20.27,0,0,0,73.93,315.22Z" style="fill:#fafafa"></path><path d="M94.25,295.05a20.24,20.24,0,0,0-20.32,20.17l40.07.59A20.27,20.27,0,0,0,94.25,295.05Z" style="fill:#e0e0e0"></path><path d="M81.76,315.34a12.21,12.21,0,1,0,12.38-12.29A12.35,12.35,0,0,0,81.76,315.34Z" style="fill:#263238"></path><path d="M119.44,206.86V235L45,249.61h0s0-5.54,0-6.6,13-35.68,15-36.15C62.63,206.19,119.44,206.86,119.44,206.86Z" style="fill:#263238"></path><path d="M117.05,212v17.76a2.51,2.51,0,0,1-2.45,2.54l-14.25.26A2.53,2.53,0,0,1,97.81,230l.33-18a2.51,2.51,0,0,1,2.49-2.49h13.93A2.51,2.51,0,0,1,117.05,212Z" style="fill:#455a64"></path><path d="M92.38,211.85l-1.52,23.86a2.23,2.23,0,0,1-1.76,2.06l-38.39,8a2.22,2.22,0,0,1-2.65-2.21v-.36a2.23,2.23,0,0,1,.18-.88l13.07-31.48a2.22,2.22,0,0,1,2-1.37H90.18A2.22,2.22,0,0,1,92.38,211.85Z" style="fill:#455a64"></path><path d="M94.22,269.43a4.17,4.17,0,0,1,.23.59,6.39,6.39,0,0,1,.3,1.85,2.07,2.07,0,0,1-.41,1.32,2.92,2.92,0,0,1-1.53.69,26.73,26.73,0,0,0-3.88,1.41c-5.7,2.55-13.38,7.45-22.21,14.35l0,0H66.6l-25,0h-.22v-.23c0-9.4,0-19.69,0-30.61V246.34a25.07,25.07,0,0,1,1.07-4.22c1.72-5.49,3.69-11,5.68-16.66,1.49-4.1,3-8.16,4.39-12.15.38-1,.7-2,1.14-3a17.65,17.65,0,0,1,1.58-2.78,9.81,9.81,0,0,1,5.07-3.69,10.58,10.58,0,0,1,3.1-.5h31a2,2,0,0,1,.75.09,1.5,1.5,0,0,1,1,1.17c0,.53,0,.91,0,1.37,0,.88,0,1.75-.07,2.62,0,1.73-.09,3.44-.13,5.12-.18,6.71-.35,13-.5,18.68-.32,11.41-.58,20.65-.76,27.06-.1,3.18-.18,5.66-.24,7.36,0,.83,0,1.47-.07,1.92s0,.66,0,.66,0-.22,0-.65,0-1.08,0-1.91c0-1.7.08-4.17.14-7.35.14-6.41.34-15.65.59-27.07.13-5.72.28-12,.43-18.7,0-1.68.08-3.39.13-5.13,0-.86,0-1.74.06-2.62,0-.42,0-.93,0-1.29a1.06,1.06,0,0,0-.66-.81,5.54,5.54,0,0,0-1.26-.06H66.37c-2,0-4.08-.18-6,.49a9.18,9.18,0,0,0-4.81,3.5,17,17,0,0,0-1.53,2.69c-.42.94-.74,2-1.12,3q-2.16,6-4.39,12.15c-2,5.62-4,11.16-5.68,16.63a27.12,27.12,0,0,0-1,4.07v4.24q0,4.2,0,8.3c0,10.92,0,21.21,0,30.61l-.22-.22,25,0-.11,0c8.88-6.88,16.61-11.74,22.36-14.24a25.62,25.62,0,0,1,3.93-1.38,2.92,2.92,0,0,0,1.46-.62,2,2,0,0,0,.41-1.24,6.27,6.27,0,0,0-.26-1.83C94.28,269.63,94.22,269.43,94.22,269.43Z" style="fill:#263238"></path><g style="opacity:0.2"><path d="M125.69,248.05a2.41,2.41,0,0,1,2.46,2.31c.19,3.76.28,10.67-1.75,10.64-3.24-.06-70.35,1.18-70.35,1.18s-.06-.11,2.06-2.67c4.88-5.89,18.09-10.08,27-10.33C92.56,249,117.9,248.26,125.69,248.05Z"></path></g><path d="M132.44,320.63c0-.68-.21-41.85-.21-41.85l-15.7,6c10.91,10.27,10.55,21.93,10.12,35.85Z" style="fill:#263238"></path><path d="M132.23,278.78l-15.7,6s-7.17-6-20.67-5.57-27.15,6.86-29.3,19.29-1.88,15.73-1.88,15.73H44V293.07H62.9s1.21-7.3,4.55-11.64c1.7-2.2,8.28-7.89,17.63-10.18,8.47-2.07,24.66-3.63,33.47-4.47s13.39-1.65,13.39-1.65Z" style="fill:#263238"></path><path d="M131.94,265.13a9.55,9.55,0,0,1-1.48,2.73,12.41,12.41,0,0,1-2.56,2.6,10.27,10.27,0,0,1-4.44,1.92c-3.55.74-7.83.34-12.52.43a150.84,150.84,0,0,0-15.25,1,64,64,0,0,0-14.91,3.13,32.35,32.35,0,0,0-6,2.9,31.65,31.65,0,0,0-4.67,3.4,16.11,16.11,0,0,0-4.71,6.8c-.63,1.88-.69,3-.76,3a11.36,11.36,0,0,1,.57-3,15.89,15.89,0,0,1,4.65-7,32.7,32.7,0,0,1,4.69-3.5,32.26,32.26,0,0,1,6-3,62.54,62.54,0,0,1,15-3.2,143.11,143.11,0,0,1,15.31-.93c4.71-.06,9,.37,12.45-.31a10,10,0,0,0,4.33-1.79,12.6,12.6,0,0,0,2.58-2.49A20,20,0,0,0,131.94,265.13Z" style="fill:#455a64"></path><path d="M44,293.63H37.9a2.26,2.26,0,0,0-2.24,2.29v13.87s.59,3.26,4.9,4.09l3.48.35Z" style="fill:#10B981"></path><path d="M86.45,221a1.06,1.06,0,0,1-.21.17c-.16.13-.37.28-.61.45-.53.39-1.31.94-2.28,1.61-1.94,1.34-4.63,3.16-7.64,5.13S70,232,68,233.27l-2.39,1.45-.65.38c-.15.08-.23.12-.24.11s.07-.07.21-.17l.63-.42,2.33-1.53,7.7-5L83.24,223l2.33-1.52.64-.41A1.06,1.06,0,0,1,86.45,221Z" style="fill:#fafafa"></path><path d="M81.18,221s-.06.07-.2.17l-.61.45-2.28,1.61c-1.94,1.34-4.64,3.16-7.64,5.13s-5.76,3.71-7.76,5c-1,.62-1.81,1.11-2.38,1.45l-.65.38-.24.11s.06-.07.21-.17l.62-.42,2.33-1.53,7.71-5L78,223l2.34-1.52.64-.4A1.3,1.3,0,0,1,81.18,221Z" style="fill:#fafafa"></path><path d="M58,238.62h0a5,5,0,0,1-4.95-5V219.3a5,5,0,0,1,4.95-5h0a5,5,0,0,1,5,5v14.37A5,5,0,0,1,58,238.62Z" style="fill:#263238"></path><path d="M49,253.62h-.5V228A4.57,4.57,0,0,1,53,223.35h1.2v.51H53a4.06,4.06,0,0,0-4,4.1Z" style="fill:#263238"></path><path d="M52.39,253.66l-1.39-24a3,3,0,0,1,.8-2.25,2.92,2.92,0,0,1,2.15-.95V227a2.42,2.42,0,0,0-1.79.79,2.51,2.51,0,0,0-.66,1.87l1.38,24Z" style="fill:#263238"></path><rect x="47.24" y="251.31" width="6.72" height="7.94" style="fill:#263238"></rect><rect x="48.74" y="236.24" width="2.73" height="0.51" style="fill:#263238"></rect><path d="M90.77,247.92l.2,0a1.74,1.74,0,0,0,.52-.21A1.39,1.39,0,0,0,92,247a1.44,1.44,0,0,0,.07-.56,1.29,1.29,0,0,0-.15-.59,1.31,1.31,0,0,0-1.14-.71H85.32a1.28,1.28,0,0,0-.87.35,1.29,1.29,0,0,0-.41.82,1.51,1.51,0,0,0,.16.89,1.34,1.34,0,0,0,.63.57,2.06,2.06,0,0,0,.82.1H87.9l2.1,0h.77a.8.8,0,0,1-.2,0H90l-2.1,0H85.65c-.14,0-.28,0-.43,0a1.34,1.34,0,0,1-.44-.1,1.48,1.48,0,0,1-.69-.62,1.69,1.69,0,0,1-.18-1,1.48,1.48,0,0,1,.46-.91,1.39,1.39,0,0,1,.95-.38h5.47a1.4,1.4,0,0,1,1.22.76,1.5,1.5,0,0,1,.15.64,1.54,1.54,0,0,1-.08.58,1.34,1.34,0,0,1-.57.72,1.25,1.25,0,0,1-.54.19A.51.51,0,0,1,90.77,247.92Z" style="fill:#263238"></path><path d="M90.3,244.7a16.35,16.35,0,0,1-2.16.07A16.48,16.48,0,0,1,86,244.7a20.51,20.51,0,0,1,2.16-.06A20.35,20.35,0,0,1,90.3,244.7Z" style="fill:#fff"></path><path d="M44,293a8.57,8.57,0,0,1,1.46-.1l4-.08c3.37,0,8.06-.07,13.29-.08H63v1.5c0,5.52,0,10.52-.08,14.13,0,1.74-.06,3.18-.08,4.28a9.9,9.9,0,0,1-.1,1.57,8.58,8.58,0,0,1-.1-1.57c0-1.1,0-2.54-.09-4.28,0-3.61-.07-8.61-.07-14.13V293l.26.26c-5.23,0-9.92,0-13.29-.08l-4-.08A7.42,7.42,0,0,1,44,293Z" style="fill:#455a64"></path><path d="M131.44,224.5c.14,0,.48,21.52.76,48.06s.38,48.08.24,48.08-.49-21.52-.76-48.07S131.29,224.5,131.44,224.5Z" style="fill:#263238"></path><rect x="131.94" y="255.62" width="8.24" height="39.02" transform="translate(272.11 550.27) rotate(180)" style="fill:#263238"></rect><path d="M132,294.38c-.15,0-.26-8.43-.26-18.84s.11-18.83.26-18.83.26,8.43.26,18.83S132.11,294.38,132,294.38Z" style="fill:#455a64"></path><path d="M240,183.3a8.51,8.51,0,0,1-1.36-.41c-.87-.29-2.11-.73-3.67-1.16a20.21,20.21,0,0,0-5.59-.8,11.32,11.32,0,0,0-6.45,2,17.86,17.86,0,0,0-2.54,2.53,5.81,5.81,0,0,1-1.41,1.11,4.11,4.11,0,0,1-1.68.46c-1.12.08-2.14-.1-3.07-.08a6.85,6.85,0,0,0-2.52.55,7.58,7.58,0,0,0-3,2.24c-.56.71-.77,1.17-.81,1.15s0-.13.12-.35a6.25,6.25,0,0,1,.53-.92,7.37,7.37,0,0,1,3-2.46,7.17,7.17,0,0,1,2.65-.64c1,0,2,.12,3,0a4,4,0,0,0,2.77-1.44,17.17,17.17,0,0,1,2.59-2.6,11.67,11.67,0,0,1,6.76-2,19.27,19.27,0,0,1,5.69.93c1.57.48,2.8,1,3.64,1.32A7.64,7.64,0,0,1,240,183.3Z" style="fill:#263238"></path><path d="M290.63,189.88a17.89,17.89,0,0,1-1.7-.7,11.18,11.18,0,0,0-4.27-.67,11.3,11.3,0,0,0-4.21,1,17,17,0,0,1-1.64.83,4.17,4.17,0,0,1,1.47-1.15,9.9,9.9,0,0,1,8.79-.36A4,4,0,0,1,290.63,189.88Z" style="fill:#263238"></path></g><g id="freepik--construction-truck-1--inject-189"><polygon points="471.57 161.52 504.01 179.07 501.83 183.56 469.67 166.65 471.57 161.52" style="fill:#e0e0e0"></polygon><polygon points="559.24 206.34 504.01 176.44 499.13 185.68 542.22 206.34 559.24 206.34" style="fill:#263238"></polygon><polygon points="410.06 254.32 421.3 254.32 421.3 258.69 408.34 258.69 410.06 254.32" style="fill:#455a64"></polygon><path d="M696.73,369.16h-168a21.56,21.56,0,0,1-21.56-21.56h0a21.55,21.55,0,0,1,21.56-21.55h168a21.56,21.56,0,0,1,21.56,21.55h0A21.56,21.56,0,0,1,696.73,369.16Z" style="fill:#263238"></path><path d="M696.73,369.16l1.21-.09a20.88,20.88,0,0,0,3.52-.5,22.65,22.65,0,0,0,5.41-2,22.32,22.32,0,0,0,6.1-4.94,20.89,20.89,0,0,0,4.5-8.68,21.94,21.94,0,0,0,.67-5.58,21.37,21.37,0,0,0-3.77-11.85,21.91,21.91,0,0,0-4.8-5,21.57,21.57,0,0,0-6.51-3.34l-1.83-.47c-.63-.14-1.27-.21-1.9-.31a33.78,33.78,0,0,0-3.92-.17l-166.63.08a22.42,22.42,0,0,0-5.93.85,21.35,21.35,0,0,0-9.94,6.26,23.68,23.68,0,0,0-1.82,2.31,24,24,0,0,0-1.45,2.56,21.07,21.07,0,0,0-.75,16.9l.24.68.31.64.63,1.29a24.93,24.93,0,0,0,1.54,2.39,21,21,0,0,0,14,8.46,34.9,34.9,0,0,0,5.51.26H552.8l74.91.06,50.5.08,13.73.05,3.57,0,1.22,0-1.22,0-3.57,0-13.73.05-50.5.08-74.91.06H531.14a34.93,34.93,0,0,1-5.58-.26,21.54,21.54,0,0,1-14.36-8.66,22.26,22.26,0,0,1-1.58-2.45l-.64-1.31-.32-.66-.25-.69a21.66,21.66,0,0,1,.76-17.32,20,20,0,0,1,3.36-5,20.88,20.88,0,0,1,4.62-3.91,21.11,21.11,0,0,1,5.56-2.5,23,23,0,0,1,6.07-.87l166.63.07a34.77,34.77,0,0,1,4,.18c.65.11,1.3.18,1.93.32l1.87.48a22,22,0,0,1,6.59,3.42,21.54,21.54,0,0,1,4.86,5.06,21.47,21.47,0,0,1,3.79,12,21.55,21.55,0,0,1-.7,5.65,21.1,21.1,0,0,1-4.59,8.75,22.16,22.16,0,0,1-6.18,4.94,22.5,22.5,0,0,1-5.45,2,19.33,19.33,0,0,1-3.54.45C697.14,369.16,696.73,369.16,696.73,369.16Z" style="fill:#455a64"></path><polygon points="424.51 282.6 432.11 276.13 448.25 280.15 453.6 289.79 459.38 297.22 461.01 301.07 454.03 306.66 438.41 304.38 421.3 292.74 424.51 282.6" style="fill:#ae7461"></polygon><polygon points="412.21 274.11 456.94 301.41 469.44 299.11 472.07 301.41 420.76 321.47 392.15 308.98 407.28 272.14 412.21 274.11" style="fill:#263238"></polygon><path d="M420.76,321.5h0L392.12,309v0l15.14-36.86h0l4.94,2L457,301.39l12.5-2.31h0l2.66,2.33h0ZM392.18,309l28.59,12.49L472,301.4l-2.6-2.26-12.49,2.3h0L412.2,274.14l-4.91-2Z" style="fill:#455a64"></path><path d="M420.6,282.67C420.85,281.91,463,203,463,203l9.12-17.25-1.26-13.19-2.28-3.29,3.54-1.21.27-13-37,11.42L415,224.34l9.63,3.3L412,267.09Z" style="fill:#10B981"></path><polygon points="417.68 225.65 403.71 264.78 407.41 267.09 422.05 227.14 417.68 225.65" style="fill:#455a64"></polygon><path d="M468.53,169.31a6.71,6.71,0,0,1-.81.1l-2.33.21c-2,.18-5,.36-8.57.7a17.89,17.89,0,0,0-10.79,6,23.08,23.08,0,0,0-2.23,2.89,21.19,21.19,0,0,0-1.71,3.4c-1,2.39-2,4.91-3,7.49-4.05,10.33-7.56,19.74-10.15,26.53l-3.06,8.05c-.36.91-.64,1.64-.86,2.18a4.68,4.68,0,0,1-.33.75,6.49,6.49,0,0,1,.24-.79c.19-.55.44-1.29.76-2.21.7-2,1.69-4.72,2.91-8.11,2.49-6.83,6-16.26,10-26.59,1-2.59,2-5.1,3.06-7.51a21.66,21.66,0,0,1,1.77-3.46,22.34,22.34,0,0,1,2.28-2.94,18.16,18.16,0,0,1,11.1-6.08c3.65-.3,6.56-.41,8.6-.53l2.34-.11A4.25,4.25,0,0,1,468.53,169.31Z" style="fill:#263238"></path><path d="M450.14,182.8l12.11,21.55,84.39,30.16,13.23,21.83L593,236.26l-28.37-28.21c-1.75-1.76-92.58-22.26-92.58-22.26s-9.75-11.22-12.94-12.65S447,174.44,450.14,182.8Z" style="fill:#10B981"></path><path d="M450.14,182.8s-.07-.18-.19-.56a7.27,7.27,0,0,1-.42-1.7l-.09-.61c0-.22,0-.45,0-.69a6,6,0,0,1,.22-1.56,6.37,6.37,0,0,1,2.25-3.22,8.64,8.64,0,0,1,4.64-1.75,5.23,5.23,0,0,1,2.85.46,14.1,14.1,0,0,1,2.51,1.87,130.4,130.4,0,0,1,10.27,10.65l-.08-.05c14.88,3.34,34.3,7.73,56.74,13l17.37,4.15,9,2.25,4.6,1.21a39.94,39.94,0,0,1,4.65,1.45,2,2,0,0,1,.32.18l.21.21.43.43.86.85,1.73,1.72,3.49,3.47,7.09,7,14.56,14.48.23.23-.28.17-3.61,2.19L560,256.56l-.22.13-.13-.21-13.22-21.85.13.11L462.2,204.48l0,0,0,0-8.92-16q-1.51-2.73-2.3-4.17c-.26-.46-.45-.81-.58-1.06s-.19-.37-.19-.37l.22.35c.14.25.34.6.61,1l2.36,4.14c2.07,3.66,5.12,9,9,15.95l-.07-.06,84.43,30.05.08,0,.05.07,13.24,21.83-.35-.09,29.54-17.89,3.61-2.19,0,.4L578.29,222l-7.09-7.05-3.48-3.47L566,209.73l-.87-.86-.43-.42-.21-.22-.22-.1a44.91,44.91,0,0,0-4.52-1.4l-4.6-1.21-9-2.26-17.35-4.17c-22.43-5.3-41.84-9.75-56.71-13.15H472l0,0a134.54,134.54,0,0,0-10.2-10.67,14.6,14.6,0,0,0-2.45-1.85,5,5,0,0,0-2.73-.46,8.55,8.55,0,0,0-4.56,1.68,5.79,5.79,0,0,0-2.46,4.66l0,.67.08.61a8.08,8.08,0,0,0,.37,1.7C450.1,182.61,450.14,182.8,450.14,182.8Z" style="fill:#263238"></path><circle cx="461.84" cy="186.37" r="3.65" style="fill:#e0e0e0"></circle><circle cx="466.78" cy="163" r="3.65" style="fill:#e0e0e0"></circle><polygon points="564.37 232.91 557.94 244.93 557.94 296.81 564.28 303.14 714.43 303.14 714.43 256.34 629.76 256.34 621.93 232.91 564.37 232.91" style="fill:#10B981"></polygon><g style="opacity:0.30000000000000004"><rect x="636.19" y="256.32" width="69.32" height="21.84"></rect></g><polygon points="569.99 239.69 565.22 247.09 565.22 285.42 594.32 285.42 623.16 262.02 616.95 239.69 569.99 239.69" style="fill:#263238"></polygon><polygon points="571.69 242.62 567.99 247.85 567.99 282.19 593.02 282.19 593.02 242.62 571.69 242.62" style="fill:#455a64"></polygon><path d="M596.32,242.62v37.12l15.86-13.41v-8.09a3,3,0,0,1,1.72-2.69l3.37-1.57L614,242.62Z" style="fill:#455a64"></path><path d="M629.67,301.58c-.14,0-.26-10.13-.26-22.63s.12-22.63.26-22.63.26,10.13.26,22.63S629.82,301.58,629.67,301.58Z" style="fill:#263238"></path><rect x="564.28" y="303.14" width="150.16" height="3.29" style="fill:#263238"></rect><g style="opacity:0.30000000000000004"><rect x="684.25" y="288.63" width="23.78" height="8.96"></rect></g><rect x="571.89" y="306.44" width="38.67" height="2.67" style="fill:#263238"></rect><rect x="574.36" y="308.22" width="33.44" height="5.12" style="fill:#263238"></rect><rect x="564.28" y="313.34" width="96.94" height="2.61" style="fill:#263238"></rect><rect x="545.53" y="342.35" width="132.59" height="9.61" style="fill:#455a64"></rect><path d="M546.36,347.6a28.32,28.32,0,0,0-.65-4.22,16.25,16.25,0,0,0-1.94-4.58,17.2,17.2,0,0,0-20.65-7.31,16.2,16.2,0,0,0-4.34,2.34,21.43,21.43,0,0,0-1.94,1.65,20.08,20.08,0,0,0-1.68,2,17.07,17.07,0,0,0,0,20.26,19,19,0,0,0,1.68,2,18.63,18.63,0,0,0,1.94,1.65,16.2,16.2,0,0,0,4.34,2.34,17.23,17.23,0,0,0,20.65-7.3,16.3,16.3,0,0,0,1.94-4.59,28.32,28.32,0,0,0,.65-4.22,1.29,1.29,0,0,1,0,.29c0,.21,0,.48,0,.82a7.92,7.92,0,0,1-.11,1.35,12.11,12.11,0,0,1-.33,1.81,16.41,16.41,0,0,1-1.89,4.69,17.55,17.55,0,0,1-11.81,8.34,17.63,17.63,0,0,1-9.25-.74,16.12,16.12,0,0,1-4.47-2.39,15.57,15.57,0,0,1-3.74-3.74,17.53,17.53,0,0,1,0-20.86,16.06,16.06,0,0,1,3.74-3.74A16.66,16.66,0,0,1,523,331a17.52,17.52,0,0,1,9.25-.73A17.47,17.47,0,0,1,544,338.65a16.37,16.37,0,0,1,1.89,4.68,12.22,12.22,0,0,1,.33,1.82,7.81,7.81,0,0,1,.11,1.34c0,.34,0,.61,0,.83A1.16,1.16,0,0,1,546.36,347.6Z" style="fill:#455a64"></path><path d="M541.66,347.6a24.57,24.57,0,0,0-.5-3.07,12.59,12.59,0,0,0-4.63-6.87,12.41,12.41,0,0,0-5.26-2.32,12.69,12.69,0,0,0-6.55.56,12.47,12.47,0,0,0-5.78,4.35,12.43,12.43,0,0,0,0,14.71,11.77,11.77,0,0,0,2.63,2.64,11.49,11.49,0,0,0,3.15,1.7,12.47,12.47,0,0,0,11.81-1.75,12.66,12.66,0,0,0,4.63-6.87,24.53,24.53,0,0,0,.5-3.08,4.65,4.65,0,0,1,0,.82,6.3,6.3,0,0,1-.07,1,8.58,8.58,0,0,1-.24,1.33,12.8,12.8,0,0,1-10,9.56,13,13,0,0,1-6.79-.54,12,12,0,0,1-3.28-1.75,12.12,12.12,0,0,1-2.75-2.74,12.89,12.89,0,0,1,0-15.31,12.16,12.16,0,0,1,2.75-2.75,12.52,12.52,0,0,1,3.28-1.75,12.84,12.84,0,0,1,12.2,1.91,12.66,12.66,0,0,1,4.6,7.12,8.58,8.58,0,0,1,.24,1.33,6.15,6.15,0,0,1,.07,1A4.56,4.56,0,0,1,541.66,347.6Z" style="fill:#455a64"></path><circle cx="528.9" cy="347.6" r="5.27" style="fill:#455a64"></circle><circle cx="528.68" cy="339.43" r="1.76" style="fill:#455a64"></circle><circle cx="521.3" cy="344.11" r="1.76" style="fill:#455a64"></circle><circle cx="528.9" cy="355.84" r="1.76" style="fill:#455a64"></circle><circle cx="521.87" cy="351.96" r="1.76" style="fill:#455a64"></circle><circle cx="536.52" cy="351.24" r="1.76" style="fill:#455a64"></circle><path d="M538.39,343.89a1.77,1.77,0,1,1-1.76-1.77A1.76,1.76,0,0,1,538.39,343.89Z" style="fill:#455a64"></path><path d="M712.9,347.6a27.26,27.26,0,0,0-.64-4.22,16.55,16.55,0,0,0-1.94-4.58,17.2,17.2,0,0,0-20.65-7.31,16.2,16.2,0,0,0-4.34,2.34,15.64,15.64,0,0,0-3.62,3.64,17.07,17.07,0,0,0,0,20.26,17.85,17.85,0,0,0,1.68,2,16.77,16.77,0,0,0,1.94,1.65,16.2,16.2,0,0,0,4.34,2.34,17.26,17.26,0,0,0,9,.77,17.37,17.37,0,0,0,11.64-8.07,16.6,16.6,0,0,0,1.94-4.59,27.26,27.26,0,0,0,.64-4.22.94.94,0,0,1,0,.29c0,.21,0,.48,0,.82a7.92,7.92,0,0,1-.11,1.35,12.11,12.11,0,0,1-.33,1.81,16.41,16.41,0,0,1-1.89,4.69,17.55,17.55,0,0,1-11.81,8.34,17.67,17.67,0,0,1-9.26-.74,16.26,16.26,0,0,1-4.47-2.39,21.05,21.05,0,0,1-2-1.69A18.94,18.94,0,0,1,681.3,358a17.53,17.53,0,0,1,0-20.86,20,20,0,0,1,1.73-2,21.17,21.17,0,0,1,2-1.7A16.81,16.81,0,0,1,689.5,331a17.56,17.56,0,0,1,9.26-.73,17.47,17.47,0,0,1,11.81,8.34,16.37,16.37,0,0,1,1.89,4.68,12.22,12.22,0,0,1,.33,1.82,7.81,7.81,0,0,1,.11,1.34c0,.34,0,.61,0,.83A.84.84,0,0,1,712.9,347.6Z" style="fill:#455a64"></path><path d="M708.21,347.6a24.57,24.57,0,0,0-.5-3.07,12.59,12.59,0,0,0-4.63-6.87,12.45,12.45,0,0,0-5.27-2.32,12.66,12.66,0,0,0-6.54.56,12.47,12.47,0,0,0-5.78,4.35,12.39,12.39,0,0,0,0,14.71,11.77,11.77,0,0,0,2.63,2.64,11.35,11.35,0,0,0,3.15,1.7,12.49,12.49,0,0,0,11.81-1.75,12.66,12.66,0,0,0,4.63-6.87,24.53,24.53,0,0,0,.5-3.08,6.39,6.39,0,0,1,0,.82,5.4,5.4,0,0,1-.08,1,8.46,8.46,0,0,1-.23,1.33,12.83,12.83,0,0,1-10,9.56,13,13,0,0,1-6.79-.54,12.9,12.9,0,0,1-6-4.49,12.85,12.85,0,0,1,0-15.31,12.12,12.12,0,0,1,2.74-2.75,12.52,12.52,0,0,1,3.28-1.75,13,13,0,0,1,6.79-.53,12.78,12.78,0,0,1,10,9.56,8.46,8.46,0,0,1,.23,1.33,5.27,5.27,0,0,1,.08,1A6.27,6.27,0,0,1,708.21,347.6Z" style="fill:#455a64"></path><circle cx="695.45" cy="347.6" r="5.27" style="fill:#455a64"></circle><circle cx="695.23" cy="339.43" r="1.76" style="fill:#455a64"></circle><circle cx="687.85" cy="344.11" r="1.76" style="fill:#455a64"></circle><circle cx="695.45" cy="355.84" r="1.76" style="fill:#455a64"></circle><circle cx="688.41" cy="351.96" r="1.76" style="fill:#455a64"></circle><path d="M704.83,351.24a1.77,1.77,0,1,1-1.77-1.76A1.76,1.76,0,0,1,704.83,351.24Z" style="fill:#455a64"></path><circle cx="703.17" cy="343.89" r="1.76" style="fill:#455a64"></circle><rect x="543.08" y="322.41" width="13.05" height="2.42" style="fill:#455a64"></rect><rect x="517.75" y="323.27" width="13.05" height="2.42" transform="translate(-54.57 112.13) rotate(-11.61)" style="fill:#455a64"></rect><rect x="500.69" y="336.46" width="13.05" height="2.42" transform="translate(2.47 679.02) rotate(-67.72)" style="fill:#455a64"></rect><rect x="500.16" y="357.2" width="13.05" height="2.42" transform="translate(384.21 966.85) rotate(-113.89)" style="fill:#455a64"></rect><rect x="513.98" y="368.78" width="13.05" height="2.42" transform="translate(887.18 892.84) rotate(-160.45)" style="fill:#455a64"></rect><rect x="534.21" y="370.4" width="13.05" height="2.42" transform="translate(1081.48 743.23) rotate(180)" style="fill:#455a64"></rect><rect x="556.15" y="370.4" width="13.05" height="2.42" transform="translate(1125.36 743.23) rotate(180)" style="fill:#455a64"></rect><rect x="669.87" y="321.91" width="13.05" height="2.42" transform="translate(1352.8 646.25) rotate(180)" style="fill:#455a64"></rect><rect x="695.2" y="322.77" width="13.05" height="2.42" transform="translate(1323.9 782.54) rotate(-168.39)" style="fill:#455a64"></rect><rect x="712.26" y="335.96" width="13.05" height="2.42" transform="translate(679.25 1130.12) rotate(-112.28)" style="fill:#455a64"></rect><rect x="712.79" y="356.7" width="13.05" height="2.42" transform="translate(100.74 870.63) rotate(-66.11)" style="fill:#455a64"></rect><rect x="698.97" y="368.28" width="13.05" height="2.42" transform="translate(-82.97 257.39) rotate(-19.55)" style="fill:#455a64"></rect><rect x="677.13" y="370.4" width="13.05" height="2.42" style="fill:#455a64"></rect><rect x="649.72" y="370.4" width="13.05" height="2.42" style="fill:#455a64"></rect><rect x="578.09" y="370.4" width="13.05" height="2.42" transform="translate(1169.24 743.23) rotate(180)" style="fill:#455a64"></rect><rect x="600.03" y="370.4" width="13.05" height="2.42" transform="translate(1213.12 743.23) rotate(180)" style="fill:#455a64"></rect><rect x="621.98" y="370.4" width="13.05" height="2.42" transform="translate(1257 743.23) rotate(180)" style="fill:#455a64"></rect><polygon points="634.69 256.32 646.63 246.36 695.54 246.36 695.54 256.32 634.69 256.32" style="fill:#455a64"></polygon><path d="M646.23,267.49h0a.83.83,0,0,1-.83-.83v-4.2a.83.83,0,0,1,.83-.83h0a.83.83,0,0,1,.83.83v4.2A.83.83,0,0,1,646.23,267.49Z" style="fill:#263238"></path><path d="M650.74,267.49h0a.83.83,0,0,1-.83-.83v-4.2a.83.83,0,0,1,.83-.83h0a.83.83,0,0,1,.83.83v4.2A.83.83,0,0,1,650.74,267.49Z" style="fill:#263238"></path><path d="M655.25,267.49h0a.83.83,0,0,1-.83-.83v-4.2a.83.83,0,0,1,.83-.83h0a.83.83,0,0,1,.83.83v4.2A.83.83,0,0,1,655.25,267.49Z" style="fill:#263238"></path><path d="M659.76,267.49h0a.83.83,0,0,1-.83-.83v-4.2a.83.83,0,0,1,.83-.83h0a.83.83,0,0,1,.83.83v4.2A.83.83,0,0,1,659.76,267.49Z" style="fill:#263238"></path><path d="M664.27,267.49h0a.83.83,0,0,1-.83-.83v-4.2a.83.83,0,0,1,.83-.83h0a.83.83,0,0,1,.83.83v4.2A.83.83,0,0,1,664.27,267.49Z" style="fill:#263238"></path><path d="M668.79,267.49h0a.83.83,0,0,1-.83-.83v-4.2a.83.83,0,0,1,.83-.83h0a.83.83,0,0,1,.83.83v4.2A.83.83,0,0,1,668.79,267.49Z" style="fill:#263238"></path><path d="M673.3,267.49h0a.83.83,0,0,1-.83-.83v-4.2a.83.83,0,0,1,.83-.83h0a.83.83,0,0,1,.83.83v4.2A.83.83,0,0,1,673.3,267.49Z" style="fill:#263238"></path><path d="M677.81,267.49h0a.83.83,0,0,1-.83-.83v-4.2a.83.83,0,0,1,.83-.83h0a.83.83,0,0,1,.83.83v4.2A.83.83,0,0,1,677.81,267.49Z" style="fill:#263238"></path><path d="M682.32,267.49h0a.83.83,0,0,1-.83-.83v-4.2a.83.83,0,0,1,.83-.83h0a.83.83,0,0,1,.83.83v4.2A.83.83,0,0,1,682.32,267.49Z" style="fill:#263238"></path><path d="M686.83,267.49h0a.83.83,0,0,1-.83-.83v-4.2a.83.83,0,0,1,.83-.83h0a.83.83,0,0,1,.83.83v4.2A.83.83,0,0,1,686.83,267.49Z" style="fill:#263238"></path><path d="M691.34,267.49h0a.83.83,0,0,1-.83-.83v-4.2a.83.83,0,0,1,.83-.83h0a.83.83,0,0,1,.83.83v4.2A.83.83,0,0,1,691.34,267.49Z" style="fill:#263238"></path><path d="M695.85,267.49h0a.83.83,0,0,1-.83-.83v-4.2a.83.83,0,0,1,.83-.83h0a.83.83,0,0,1,.83.83v4.2A.83.83,0,0,1,695.85,267.49Z" style="fill:#263238"></path><path d="M648.48,274.42h0a.83.83,0,0,1-.83-.83v-4.2a.83.83,0,0,1,.83-.83h0a.83.83,0,0,1,.83.83v4.2A.83.83,0,0,1,648.48,274.42Z" style="fill:#263238"></path><path d="M653,274.42h0a.83.83,0,0,1-.83-.83v-4.2a.83.83,0,0,1,.83-.83h0a.83.83,0,0,1,.83.83v4.2A.83.83,0,0,1,653,274.42Z" style="fill:#263238"></path><path d="M657.51,274.42h0a.83.83,0,0,1-.83-.83v-4.2a.83.83,0,0,1,.83-.83h0a.83.83,0,0,1,.83.83v4.2A.83.83,0,0,1,657.51,274.42Z" style="fill:#263238"></path><rect x="661.19" y="268.56" width="1.66" height="5.86" rx="0.83" style="fill:#263238"></rect><path d="M666.53,274.42h0a.83.83,0,0,1-.83-.83v-4.2a.83.83,0,0,1,.83-.83h0a.83.83,0,0,1,.83.83v4.2A.83.83,0,0,1,666.53,274.42Z" style="fill:#263238"></path><path d="M671,274.42h0a.83.83,0,0,1-.83-.83v-4.2a.83.83,0,0,1,.83-.83h0a.83.83,0,0,1,.83.83v4.2A.83.83,0,0,1,671,274.42Z" style="fill:#263238"></path><path d="M675.55,274.42h0a.83.83,0,0,1-.83-.83v-4.2a.83.83,0,0,1,.83-.83h0a.83.83,0,0,1,.83.83v4.2A.83.83,0,0,1,675.55,274.42Z" style="fill:#263238"></path><path d="M680.06,274.42h0a.83.83,0,0,1-.83-.83v-4.2a.83.83,0,0,1,.83-.83h0a.83.83,0,0,1,.83.83v4.2A.83.83,0,0,1,680.06,274.42Z" style="fill:#263238"></path><path d="M684.58,274.42h0a.83.83,0,0,1-.83-.83v-4.2a.83.83,0,0,1,.83-.83h0a.83.83,0,0,1,.83.83v4.2A.83.83,0,0,1,684.58,274.42Z" style="fill:#263238"></path><path d="M689.09,274.42h0a.83.83,0,0,1-.83-.83v-4.2a.83.83,0,0,1,.83-.83h0a.83.83,0,0,1,.83.83v4.2A.83.83,0,0,1,689.09,274.42Z" style="fill:#263238"></path><path d="M693.6,274.42h0a.83.83,0,0,1-.83-.83v-4.2a.83.83,0,0,1,.83-.83h0a.83.83,0,0,1,.83.83v4.2A.83.83,0,0,1,693.6,274.42Z" style="fill:#263238"></path><path d="M594.4,285.42a7.17,7.17,0,0,1,.07,1c0,.71,0,1.65.06,2.8,0,2.49.05,5.92.09,10v.22h-.22l-14.59,0-14.59,0H565v-.22c0-4.1.07-7.53.09-10,0-1.15,0-2.09.06-2.8a5.59,5.59,0,0,1,.07-1,5.59,5.59,0,0,1,.07,1c0,.71,0,1.65.06,2.8,0,2.49.06,5.92.09,10l-.22-.22,14.59,0,14.59,0-.23.22c0-4.1.07-7.53.1-10,0-1.15,0-2.09.06-2.8A4.59,4.59,0,0,1,594.4,285.42Z" style="fill:#263238"></path><path d="M605.56,232.91a2.64,2.64,0,0,1-.66.05l-1.9,0-7,.08-23,.08h-8.7l.22-.13-6.48,12,0-.09c0,3.09-.06,5.61-.08,7.43,0,.84,0,1.51,0,2a3.2,3.2,0,0,1-.06.7,2.93,2.93,0,0,1-.05-.7c0-.52,0-1.19,0-2,0-1.82-.05-4.34-.09-7.43v-.05l0,0c1.77-3.36,3.94-7.47,6.37-12.05l.07-.13h8.85l23,.08,7,.08,1.9.05A3.44,3.44,0,0,1,605.56,232.91Z" style="fill:#263238"></path><rect x="557.44" y="214.56" width="3.97" height="17.9" style="fill:#263238"></rect><rect x="554.85" y="219.3" width="9.13" height="8.43" style="fill:#10B981"></rect><path d="M564,227.72a2.77,2.77,0,0,1,0-.65c0-.48,0-1-.06-1.73,0-1.48-.09-3.56-.12-6l.23.22-9.13,0c-.06.05.49-.5.26-.26h0v4.43c0,1.4,0,2.74,0,4l-.23-.23c2.69,0,4.94.08,6.55.12l1.88.06a4.62,4.62,0,0,1,.71.05,2.1,2.1,0,0,1-.61.05l-1.84.06c-1.59,0-3.9.1-6.69.12h-.22v-.23c0-1.24,0-2.58,0-4v-2.18c0-.37,0-.74,0-1.12v-1.13h0c-.23.23.32-.32.27-.26l9.13,0h.22v.23c0,2.58-.07,4.71-.11,6.18S564,227.76,564,227.72Z" style="fill:#263238"></path><path d="M610.4,309.05c0,.14-8.57.26-19.14.26s-19.15-.12-19.15-.26,8.57-.26,19.15-.26S610.4,308.9,610.4,309.05Z" style="fill:#455a64"></path><path d="M610.4,306.25c0,.15-8.57.26-19.14.26s-19.15-.11-19.15-.26,8.57-.26,19.15-.26S610.4,306.11,610.4,306.25Z" style="fill:#455a64"></path><path d="M610.4,313.25c0,.14-8.57.26-19.14.26s-19.15-.12-19.15-.26,8.57-.26,19.15-.26S610.4,313.1,610.4,313.25Z" style="fill:#455a64"></path><rect x="565.22" y="320.35" width="94.54" height="5.7" style="fill:#263238"></rect><rect x="574.36" y="315.23" width="83.14" height="5.12" style="fill:#263238"></rect><path d="M658.22,316c0,.14-19.44.26-43.4.26s-43.41-.12-43.41-.26,19.43-.26,43.41-.26S658.22,315.8,658.22,316Z" style="fill:#455a64"></path><path d="M658.22,320.35c0,.14-19.44.26-43.4.26s-43.41-.12-43.41-.26,19.43-.26,43.41-.26S658.22,320.2,658.22,320.35Z" style="fill:#455a64"></path><path d="M619.58,337.67a3.23,3.23,0,0,0,1.42-.45,2.83,2.83,0,0,0,1.13-1.35,2.79,2.79,0,0,0-.18-2.34,2.74,2.74,0,0,0-2.52-1.37l-3.74,0-9.1,0-52.73.07a2.56,2.56,0,0,0-1.08,4.88,3.59,3.59,0,0,0,1.72.24H560l14,0,23.71.05,16,.09,4.35.05,1.13,0,.38,0-.38,0-1.13,0-4.35,0-16,.08-23.71.06H554.5c-.31,0-.61,0-1,0a3.32,3.32,0,0,1-1-.27,3.08,3.08,0,0,1,1.3-5.87l52.73.08,9.1,0,3.74,0a3,3,0,0,1,2.7,1.52,2.92,2.92,0,0,1,.14,2.5,2.81,2.81,0,0,1-1.22,1.38,2.69,2.69,0,0,1-1.08.36A1.91,1.91,0,0,1,619.58,337.67Z" style="fill:#455a64"></path><path d="M672.58,361.25a3.3,3.3,0,0,0,1.41-.44,2.81,2.81,0,0,0,1.13-1.36,2.73,2.73,0,0,0-2.7-3.71l-3.73,0-9.11,0-52.73.08a2.55,2.55,0,0,0-1.08,4.87,3.47,3.47,0,0,0,1.72.24H627l23.7.06,16,.08,4.34.05,1.13,0a1.73,1.73,0,0,1,.39,0l-.39,0-1.13,0-4.34.05-16,.09-23.7.05-14,0h-5.54c-.31,0-.6,0-1,0a3.08,3.08,0,0,1,.32-6.14l52.73.07,9.11,0,3.73,0a3,3,0,0,1,2.7,1.52,2.92,2.92,0,0,1,.14,2.5A2.88,2.88,0,0,1,674,360.9a2.6,2.6,0,0,1-1.08.35A1.83,1.83,0,0,1,672.58,361.25Z" style="fill:#455a64"></path><path d="M597.43,358.44s0-.35-.22-.93a3.86,3.86,0,0,0-1.43-2,3.67,3.67,0,1,0,0,5.9,3.91,3.91,0,0,0,1.43-2c.17-.58.17-.93.22-.92a1.9,1.9,0,0,1,0,1,3.9,3.9,0,0,1-1.41,2.27,4.06,4.06,0,0,1-3.87.64,4.12,4.12,0,0,1,0-7.77,4.06,4.06,0,0,1,3.87.64,3.9,3.9,0,0,1,1.41,2.27A2,2,0,0,1,597.43,358.44Z" style="fill:#455a64"></path><path d="M583.92,256.25a70.09,70.09,0,0,1-7.54,9.3,33.78,33.78,0,0,1,3.57-4.81A34.8,34.8,0,0,1,583.92,256.25Z" style="fill:#263238"></path><path d="M584.62,260.94a51,51,0,0,1-4.36,5.77,51,51,0,0,1-4.77,5.44,49.47,49.47,0,0,1,4.37-5.77A50.39,50.39,0,0,1,584.62,260.94Z" style="fill:#263238"></path><path d="M425.07,292.53l-21.36-16.92s8.17-14.47,8.29-14.12,18.34,23.69,18.34,23.69Z" style="fill:#455a64"></path><path d="M412,267.09a7.12,7.12,0,1,1-7.12-7.12A7.12,7.12,0,0,1,412,267.09Z" style="fill:#10B981"></path><g style="opacity:0.30000000000000004"><rect x="476.2" y="204.82" width="63.55" height="4.64" transform="translate(85.58 -142.9) rotate(17.46)"></rect></g><g style="opacity:0.30000000000000004"><polygon points="450.14 182.8 454.11 219.6 462.25 204.35 450.14 182.8"></polygon></g><g style="opacity:0.30000000000000004"><path d="M409.17,267.09a4.33,4.33,0,1,1-4.32-4.32A4.31,4.31,0,0,1,409.17,267.09Z"></path></g></g><g id="freepik--Character--inject-189"><rect x="181.83" y="301.75" width="176.77" height="27.4" style="fill:#ae7461"></rect><path d="M247.77,329.43a16.43,16.43,0,0,1-1.44-1.28,28.84,28.84,0,0,0-4.18-3.11,27.3,27.3,0,0,0-7.08-3,29.65,29.65,0,0,0-9.36-1,44.43,44.43,0,0,0-16.48,4.66c-2,1-3.57,1.82-4.65,2.42a13.61,13.61,0,0,1-1.7.9,2,2,0,0,1,.4-.3c.27-.18.67-.45,1.2-.78,1.05-.66,2.6-1.57,4.59-2.57a42.69,42.69,0,0,1,16.61-4.85,29.15,29.15,0,0,1,9.52,1,26.49,26.49,0,0,1,7.14,3.19,25.11,25.11,0,0,1,4.13,3.27c.45.43.76.8,1,1A2.52,2.52,0,0,1,247.77,329.43Z" style="fill:#6f4439"></path><rect x="347.36" y="301.75" width="11.24" height="27.4" style="fill:#6f4439"></rect><path d="M346.81,302.47l-.35.29-1.06.82-1.73,1.32-1.1.83-1.32.88-3.1,2-3.84,2.2c-.68.41-1.41.76-2.18,1.13l-2.36,1.14a26.49,26.49,0,0,1-2.53,1.12l-2.71,1.1c-.92.4-1.91.67-2.9,1s-2,.7-3.05,1c-2.11.52-4.28,1.21-6.61,1.58a72.51,72.51,0,0,1-14.91,1.46,76,76,0,0,1-33.2-7.8c-5.51-2.56-10.82-5.27-16.28-7a29.82,29.82,0,0,0-16.17-.91c-5.11,1.21-9.66,3.38-13.92,5.3a76.78,76.78,0,0,1-12.18,4.7,25.36,25.36,0,0,1-10.73.67,19.17,19.17,0,0,1-7.54-3,16.54,16.54,0,0,1-3.78-3.47,13.53,13.53,0,0,1-1-1.45,4.47,4.47,0,0,1,.3.35,12.84,12.84,0,0,0,.83,1,16.93,16.93,0,0,0,3.82,3.37,19,19,0,0,0,7.47,2.88,24.94,24.94,0,0,0,10.58-.74,75.18,75.18,0,0,0,12.1-4.73c4.26-1.94,8.82-4.14,14-5.37a30.31,30.31,0,0,1,4-.66,20,20,0,0,1,2.05-.1l1,0,1,.06a35.74,35.74,0,0,1,8.33,1.6c5.52,1.71,10.85,4.42,16.35,7a76,76,0,0,0,33,7.79,73.42,73.42,0,0,0,14.82-1.4c2.31-.37,4.47-1,6.58-1.55,1-.28,2-.65,3-1s2-.6,2.89-1l2.7-1.08c.88-.35,1.74-.69,2.54-1.1L332,311.7c.77-.36,1.51-.71,2.19-1.11l3.84-2.15,3.12-2,1.33-.85,1.11-.82,1.76-1.28,1.08-.77A3.24,3.24,0,0,1,346.81,302.47Z" style="fill:#6f4439"></path><path d="M319.62,301.53a5.44,5.44,0,0,1-.85.94,20.23,20.23,0,0,1-2.7,2.18,18.78,18.78,0,0,1-21.64,0,21.06,21.06,0,0,1-2.7-2.18,4.93,4.93,0,0,1-.85-.94c.07-.08,1.31,1.25,3.75,2.81a19.15,19.15,0,0,0,21.24,0C318.31,302.78,319.55,301.45,319.62,301.53Z" style="fill:#6f4439"></path><path d="M347.61,322.67c0,.1-1.28-.51-3.43-.94a17.51,17.51,0,0,0-3.82-.31,18.89,18.89,0,0,0-4.61.81,20,20,0,0,0-7.33,4.25C326.8,328,326,329.07,325.9,329a3.45,3.45,0,0,1,.53-.8,15.56,15.56,0,0,1,1.74-2,18.75,18.75,0,0,1,7.43-4.48,18.49,18.49,0,0,1,4.75-.79,16.41,16.41,0,0,1,3.9.43,9.8,9.8,0,0,1,1.45.42,6.67,6.67,0,0,1,1.06.42A3.69,3.69,0,0,1,347.61,322.67Z" style="fill:#6f4439"></path><path d="M287.79,319.23a41.8,41.8,0,0,0,1.56-7,14.65,14.65,0,0,0-.84-7.1c-.14-.33-1.31-2.58-1.67-2.54s.49,2.15.36,2.38a12.43,12.43,0,0,0-1.12,7.27,33.4,33.4,0,0,0,1.71,7" style="fill:#263238"></path><path d="M275.19,340.2c-.08-1.7-.53-10.17-.55-10.17s-5.85-.37-6.45-6.13c-.28-2.79-.41-8.56-.47-13.8a10.78,10.78,0,0,1,9.81-10.85l.55-.05c6-.2,9.57,4.81,9.61,10.85L288,338.1l-10.13,1.19Z" style="fill:#ffbf9d"></path><path d="M274.64,330a14,14,0,0,0,7.31-2.91s-1.41,4.44-7.22,4.45Z" style="fill:#ff9a6c"></path><path d="M269.86,315a.83.83,0,0,0,.87.76.79.79,0,0,0,.78-.82.82.82,0,0,0-.86-.76A.8.8,0,0,0,269.86,315Z" style="fill:#263238"></path><path d="M269.17,312.39c.11.09.69-.43,1.58-.5s1.58.3,1.66.18-.07-.23-.38-.41a2.26,2.26,0,0,0-1.34-.29,2.2,2.2,0,0,0-1.25.54C269.19,312.14,269.12,312.34,269.17,312.39Z" style="fill:#263238"></path><path d="M277.83,314.67a.83.83,0,0,0,.87.76.78.78,0,0,0,.78-.82.83.83,0,0,0-.87-.76A.8.8,0,0,0,277.83,314.67Z" style="fill:#263238"></path><path d="M277.88,312c.12.1.7-.42,1.59-.5s1.57.31,1.66.19-.08-.24-.38-.42a2.3,2.3,0,0,0-1.35-.28,2.17,2.17,0,0,0-1.24.53C277.91,311.7,277.83,311.91,277.88,312Z" style="fill:#263238"></path><path d="M275.33,319.05a6.33,6.33,0,0,0-1.46-.13c-.23,0-.45,0-.5-.18a1.1,1.1,0,0,1,.09-.68l.51-1.79a30.42,30.42,0,0,0,1.09-4.64,29.57,29.57,0,0,0-1.46,4.55c-.17.62-.33,1.22-.49,1.79a1.31,1.31,0,0,0,0,.9.54.54,0,0,0,.4.29,1.34,1.34,0,0,0,.39,0A5.7,5.7,0,0,0,275.33,319.05Z" style="fill:#263238"></path><path d="M278,319.43c-.14,0-.06,1-.82,1.72s-1.79.75-1.79.88.25.17.68.14a2.38,2.38,0,0,0,1.5-.68,2.09,2.09,0,0,0,.63-1.44C278.19,319.64,278.06,319.41,278,319.43Z" style="fill:#263238"></path><path d="M277.6,308.35c.11.23,1,0,2,.07s1.92.23,2,0-.12-.33-.48-.53a3.5,3.5,0,0,0-1.54-.39,3.38,3.38,0,0,0-1.56.33C277.73,308,277.56,308.24,277.6,308.35Z" style="fill:#263238"></path><path d="M269.27,309.41c.17.18.76-.08,1.5-.16s1.37,0,1.49-.21-.06-.3-.35-.47a2.15,2.15,0,0,0-1.25-.22,2.09,2.09,0,0,0-1.16.52C269.26,309.1,269.19,309.31,269.27,309.41Z" style="fill:#263238"></path><path d="M287.6,314.36c.1-.05,3.86-1.54,4.09,2.42s-3.78,3.37-3.79,3.26S287.6,314.36,287.6,314.36Z" style="fill:#ffbf9d"></path><path d="M289,318.47s.07,0,.19.09a.65.65,0,0,0,.51,0,1.71,1.71,0,0,0,.7-1.58,2.32,2.32,0,0,0-.25-1,.83.83,0,0,0-.55-.5.35.35,0,0,0-.39.21c-.05.12,0,.2,0,.2s-.09-.06-.07-.22a.42.42,0,0,1,.14-.26.53.53,0,0,1,.38-.12,1,1,0,0,1,.75.57,2.36,2.36,0,0,1,.31,1.09,1.78,1.78,0,0,1-.91,1.76.75.75,0,0,1-.63-.06C289,318.56,289,318.48,289,318.47Z" style="fill:#ff9a6c"></path><path d="M270,303.42c-.66-.32,1.16-2.49,2.69-3.28,2.33-1.2,5.93-2.05,8.15-1.54a9.53,9.53,0,0,1,6.38,4.16,15.51,15.51,0,0,1,2.15,7.85,4.74,4.74,0,0,1-.43,2.45c-.51.9-1.55,1.5-1.44,2.71a1.65,1.65,0,0,1-.35,1.23c-.68.8-1.61.12-2.05-.58a17.18,17.18,0,0,1-1.24-8.9c.16-.67.44-1.3.56-2a2.4,2.4,0,0,0-.38-2,2.19,2.19,0,0,0-.34-.31,4.11,4.11,0,0,0-4.13-.57c-2.19.9-5.93,2.27-7,1.56a6.18,6.18,0,0,1-1.87-1.71Z" style="fill:#263238"></path><path d="M280.31,296.34c.27,0,6.76.9,8.76,5.51s1.66,6.11,1.66,6.11a3,3,0,0,1,.71.51c.3.29,0,1.82-.81,1.72-6.46-2.22-13.85-1.86-22-.9l-6.29.46c-1.74.35-2.4-.06-1.69-.57.54-.38,5.36-2.82,5.36-2.82l.92-.8,2.28-3.82s-.36-.47.24-.94S275.05,296.06,280.31,296.34Z" style="fill:#455a64"></path><path d="M266.9,305.56l.24,0,.7-.07c.61-.08,1.49-.15,2.58-.22a49.32,49.32,0,0,1,8.52.32,76.59,76.59,0,0,1,8.39,1.56c1.06.25,1.92.47,2.51.62l.68.17.24.06-.23-.08-.68-.19c-.59-.16-1.44-.39-2.51-.65a68.57,68.57,0,0,0-8.39-1.59,46.21,46.21,0,0,0-8.53-.29A34.21,34.21,0,0,0,266.9,305.56Z" style="fill:#263238"></path><g style="opacity:0.30000000000000004"><path d="M286.37,298.64s-7-.52-9.91,1.22l.34-.21c-.93.51-1.7,1.33-2.63,1.84a1.48,1.48,0,0,1-1.37.26s1.69-1.22,3.9-2.79C279.18,297.2,284,296.72,286.37,298.64Z"></path></g><path d="M286.47,298.66a4.26,4.26,0,0,0-.65-.35,9,9,0,0,0-1.91-.63,10.39,10.39,0,0,0-3-.16,8.42,8.42,0,0,0-3.5,1,13.92,13.92,0,0,0-1.58,1c-.49.36-1,.69-1.42,1.05a8.77,8.77,0,0,1-1.26,1,3.07,3.07,0,0,1-1.3.38c-1.69.17-2.75-.09-2.69-.21a.31.31,0,0,0,.15.13,3.71,3.71,0,0,0,.53.13,9.22,9.22,0,0,0,2,0,2.87,2.87,0,0,0,1.34-.38,7.92,7.92,0,0,0,1.28-1c.43-.35.93-.67,1.42-1a16.37,16.37,0,0,1,1.57-1,8.67,8.67,0,0,1,3.46-1,10.3,10.3,0,0,1,3,.15,9.12,9.12,0,0,1,1.91.59l.49.23Z" style="fill:#263238"></path><g style="opacity:0.30000000000000004"><path d="M289.84,303.78a15.5,15.5,0,0,1-3.44-.3c-1.32-.17-2.63-.29-3.95-.52a5.75,5.75,0,0,1-2.87-1,1.4,1.4,0,0,0,.55,1.29,6.9,6.9,0,0,0,2.17.75,36.21,36.21,0,0,0,7.91.83,8.37,8.37,0,0,0-.37-1.08"></path></g><path d="M288.83,301.35c.81.27,1.31.46,1.39,1.12s0,1.24-.53,1.38a1.2,1.2,0,0,1-.5,0l-8.65-1a1.28,1.28,0,0,1-.81-.3.86.86,0,0,1,.2-1.19,2.33,2.33,0,0,1,1.27-.4,28.31,28.31,0,0,1,7.63.36" style="fill:#455a64"></path><path d="M279.87,302.7a1,1,0,0,1-.26-.35,1.11,1.11,0,0,1,.26-1.11,2.67,2.67,0,0,1,1.68-.52c.68,0,1.44,0,2.23,0a22.52,22.52,0,0,1,4,.36c.51.09.92.2,1.2.27l.32.09.11,0-.1,0-.32-.11a10.59,10.59,0,0,0-1.19-.3,19.9,19.9,0,0,0-4-.4c-.8,0-1.55,0-2.24,0a2.71,2.71,0,0,0-1.72.57,1.1,1.1,0,0,0-.24,1.17.74.74,0,0,0,.19.28Z" style="fill:#263238"></path><polygon points="268.63 302.94 272.6 302.49 272.28 304.03 267.83 304.29 268.63 302.94" style="fill:#fff"></polygon><path d="M277,307s-2.41-.17-5.39-.3-5.39-.23-5.39-.2,2.41.17,5.39.3S277,307,277,307Z" style="fill:#263238"></path><path d="M296.55,458.86,299.89,469l0,1.19s-12.17,4.44-12.32,6.68l23.48.12.06-5.9-2.87-12.19Z" style="fill:#263238"></path><path d="M307.2,469.2a1,1,0,0,1,.65,1.1.93.93,0,0,1-1.08.66,1,1,0,0,1-.69-1.17,1,1,0,0,1,1.2-.56" style="fill:#e0e0e0"></path><path d="M311.09,477l0-1.9-22.5.59s-1.05.45-.93,1.19Z" style="fill:#455a64"></path><path d="M299.55,470.06c0,.11.58.17,1.14.54s.86.85,1,.81-.06-.71-.75-1.15S299.53,470,299.55,470.06Z" style="fill:#fff"></path><path d="M297.08,471.06c0,.11.47.31.86.8s.49,1,.61,1,.19-.65-.3-1.25S297.08,471,297.08,471.06Z" style="fill:#fff"></path><path d="M295.67,474c.1,0,.26-.54,0-1.17s-.82-.89-.87-.79.28.43.51.95S295.55,474,295.67,474Z" style="fill:#fff"></path><path d="M251.78,458.86,255.12,469l0,1.19s-12.17,4.44-12.32,6.68l23.48.12.06-5.9-2.87-12.19Z" style="fill:#263238"></path><path d="M262.26,469.2a1,1,0,0,1,.66,1.1.94.94,0,0,1-1.09.66,1,1,0,0,1-.69-1.17,1,1,0,0,1,1.21-.56" style="fill:#e0e0e0"></path><path d="M266.32,477l0-1.91-22.73.6s-1.05.45-.94,1.19Z" style="fill:#455a64"></path><path d="M254.61,470.06c0,.11.58.17,1.14.54s.86.85,1,.81-.06-.71-.75-1.15S254.59,470,254.61,470.06Z" style="fill:#fff"></path><path d="M252.14,471.06c0,.11.47.31.86.8s.5,1,.61,1,.19-.65-.3-1.25S252.15,471,252.14,471.06Z" style="fill:#fff"></path><path d="M250.73,474c.1,0,.27-.54,0-1.17s-.83-.89-.88-.79.28.43.51.95S250.62,474,250.73,474Z" style="fill:#fff"></path><path d="M299,426.5,290,401.56v-6.08s-7.1-.15-7.74,0-9.43,14.91-9.43,14.91,8.4,21.39,9.77,22.85,15.3,31.3,15.7,34.06l13.41-.56v-.26C309.54,444.6,299,426.5,299,426.5Z" style="fill:#263238"></path><g style="opacity:0.30000000000000004"><polygon points="289 398.54 276.44 419.52 274.72 415.26 289 398.54"></polygon></g><path d="M262,389.48V382.7l27.28-2.46c0,.89,5.8,12.5-2.21,20.68L262,430l4.3,38.64H252.05v-.81s-2.53-13.59-2.72-14.84-3.84-23-4.09-26.75C244.94,421.65,262,389.48,262,389.48Z" style="fill:#263238"></path><path d="M262,389.48s-.08.12-.2.35l-.57,1-2.14,4.06c-1.85,3.56-4.53,8.74-7.71,15.36-1.58,3.31-3.32,7-4.93,11-.39,1-.77,2.07-1.08,3.17a7,7,0,0,0-.28,1.73c0,.58.11,1.16.19,1.74.29,2.34.66,4.74,1,7.21.76,4.94,1.6,10.16,2.49,15.62.42,2.73,1,5.51,1.48,8.35l1.59,8.69v.93h14.58l0-.17c-.63-5.71-1.3-11.69-2-17.78-.8-7.13-1.57-14.11-2.32-20.86l0,.12,21.53-25c1.66-1.93,3.3-3.78,4.87-5.66a14.71,14.71,0,0,0,2.72-6.52,19.94,19.94,0,0,0-.16-6.69,27.5,27.5,0,0,0-.75-3.1c-.15-.5-.31-1-.47-1.48s-.36-1-.45-1.42l0-.12h-.1L262,382.65h0v.05c0,2.27,0,4,0,5.1,0,.55,0,1,0,1.26s0,.42,0,.42,0-.13,0-.41,0-.71,0-1.26c0-1.14,0-2.83,0-5.11l-.05.05,27.29-2.39-.12-.12a12.39,12.39,0,0,0,.45,1.49c.17.48.32,1,.47,1.47a30.73,30.73,0,0,1,.74,3.08,20,20,0,0,1,.13,6.61,14.41,14.41,0,0,1-2.67,6.4c-1.55,1.83-3.21,3.71-4.86,5.63l-21.56,25,0,.05V430c.75,6.74,1.52,13.72,2.31,20.86.68,6.09,1.35,12.07,2,17.77l.16-.17H252.05l.15.16v-.81h0v0l-1.59-8.67c-.51-2.84-1.08-5.62-1.5-8.35-.9-5.47-1.75-10.68-2.51-15.62-.38-2.47-.75-4.87-1-7.2-.07-.58-.14-1.15-.19-1.72a6.85,6.85,0,0,1,.27-1.66c.3-1.08.68-2.13,1.07-3.15,1.59-4.07,3.31-7.73,4.88-11,3.16-6.62,5.81-11.82,7.63-15.39.91-1.78,1.62-3.15,2.1-4.08l.54-1.06C262,389.61,262,389.48,262,389.48Z" style="fill:#455a64"></path><path d="M268.47,382.21a9.87,9.87,0,0,0,1.71,0c1.06-.05,2.52-.09,4.13-.08s3.07.09,4.12.15a12.33,12.33,0,0,0,1.72.06,7.19,7.19,0,0,0-1.7-.29c-1.05-.11-2.52-.22-4.14-.23a39.92,39.92,0,0,0-4.14.16A8,8,0,0,0,268.47,382.21Z" style="fill:#455a64"></path><path d="M288.33,329.87s5.33,6.81,4.36,21.44c-.84,12.79-.71,15.09-.71,15.09l.85,25.9-33.62.68,4-46.41,5.42-10.3,3.43-1.14,1-1.06a8.25,8.25,0,0,1,4.28-2.84L287.92,329Z" style="fill:#455a64"></path><path d="M262.24,351.62l-2.73,37.69,33.14-1.82-.44-25.82s.75-15.2.44-20.14c-.35-5.69-4.79-12.67-4.79-12.67l-10.59,2.37h0a8.28,8.28,0,0,1,8.27,7.65l.07.81a25.67,25.67,0,0,1-.05,4.72c-1.14,10.3-6.66,12-9.9,12.3h0a7.14,7.14,0,0,1-7.19-4.54l-3-7.66Z" style="fill:#10B981"></path><polygon points="260.23 379.4 292.5 378.53 292.59 383.72 259.77 385.2 260.23 379.4" style="fill:#fff"></polygon><polygon points="260.77 371.59 292.36 370.35 292.45 375.79 260.43 376.57 260.77 371.59" style="fill:#fff"></polygon><g style="opacity:0.30000000000000004"><polygon points="261.98 355.11 279.91 346.48 262.24 351.27 261.98 355.11"></polygon></g><path d="M279.2,333a12,12,0,0,0-4.66.35l-20.15,5.77-8.34-14.88-6.23,1s4.85,21.47,8.83,25.06c2.81,2.54,12.46,1.09,18.66-.32,3.42-.78,8.28-2.62,11.83-3.8l4.59-10.28A5.9,5.9,0,0,0,279.2,333Z" style="fill:#ffbf9d"></path><path d="M251.37,321.25a2.29,2.29,0,0,0-2.52.38,1.31,1.31,0,0,1-1.58,0,36.38,36.38,0,0,1,1.58-4.48c.7-1.36,2.44-4,2.37-5s-.76-1.44-1.3-.45-2.5,4.1-2.88,4,1-6.15.53-6.45-1.44-.69-1.52.83a33,33,0,0,1-.91,4.71s.15-5.39-.68-5.24-.84.68-.91,1.59-.92,4.56-.92,4.56-.22-4.48-1.06-4.4-1,.15-.91,1.06-.84,9.49-.84,9.8v3.19l5.88-.17h.35s3.5-1.43,4.33-2.26S252.13,321.71,251.37,321.25Z" style="fill:#ffbf9d"></path><path d="M262.24,351.27l-1.92-14.95s12.84-4.09,15.25-4.72c3.34-.88,8.15.9,8.91,3.66,2.37,8.58-4.84,11.34-4.84,11.34Z" style="fill:#455a64"></path><path d="M262.24,351.27l.33-.11.95-.28,3.55-1,12.51-3.49h0a9.25,9.25,0,0,0,3.23-2.43,8.08,8.08,0,0,0,1.78-3.95,11.22,11.22,0,0,0-.33-4.62c-.41-1.49-1.89-2.5-3.39-3.1a8.58,8.58,0,0,0-5.62-.32l-5.34,1.64-9.5,2.91.14-.23c.53,4.48,1,8.19,1.27,10.83.14,1.28.25,2.29.34,3.05l.08.81c0,.18,0,.29,0,.29a7.54,7.54,0,0,1-.18-1c-.1-.74-.25-1.74-.43-3-.37-2.68-.89-6.42-1.52-11l0-.17.17-.05,9.49-3,5.35-1.67a9.15,9.15,0,0,1,5.94.34,8,8,0,0,1,2.24,1.3,4.3,4.3,0,0,1,1.46,2.14,11.9,11.9,0,0,1,.33,4.84,8.69,8.69,0,0,1-1.91,4.18,9.66,9.66,0,0,1-3.44,2.54h0L267,350.11l-3.52.89-.91.22Z" style="fill:#263238"></path></g></svg>
